<?xml version="1.0" encoding="UTF-8"?>
<!-- Generated by Pixelmator Pro 3.3.2 -->
<svg width="1000" height="1000" viewBox="0 0 1000 1000" xmlns="http://www.w3.org/2000/svg" xmlns:xlink="http://www.w3.org/1999/xlink">
    <g id="Virtuakeoplaces">
        <filter id="filter1" x="0" y="0" width="1000" height="1000" filterUnits="userSpaceOnUse" primitiveUnits="userSpaceOnUse" color-interpolation-filters="sRGB">
            <feGaussianBlur stdDeviation="9.937792"/>
        </filter>
        <path id="Traado" fill="#94d4b2" stroke="none" filter="url(#filter1)" d="M 811.653687 999.001526 L 135.68988 947.311951 C 104.696159 944.977112 73.594101 934.663513 76.501358 909.817993 L 116.847298 100.128357 C 117.429626 67.447021 181.459763 112.175842 214.400284 111.907166 L 821.908447 122.275269 C 869.636902 123.106567 883.086792 136.009399 882.821411 175.516602 L 877.819092 943.841064 C 877.533813 987.972534 860.896667 1002.743896 811.653687 999.001526 Z"/>
        <path id="path1" fill="#6a9856" stroke="none" d="M 861.60022 921.151489 L 159.941208 927.356506 C 127.766006 927.674438 95.400665 920.196472 98.152824 895.734558 L 132.148438 100.299744 C 132.457809 68.194885 199.316956 106.573975 233.48674 103.546082 L 863.706177 62.752991 C 913.336548 59.495544 927.391968 71.074463 927.500183 109.743164 L 929.790833 861.661011 C 929.923523 904.854736 912.698608 920.765015 861.60022 921.151489 Z"/>
        <filter id="filter2" x="0" y="0" width="1000" height="1000" filterUnits="userSpaceOnUse" primitiveUnits="userSpaceOnUse" color-interpolation-filters="sRGB">
            <feGaussianBlur stdDeviation="6.11926"/>
            <feOffset dx="-0" dy="18.35778" result="offsetblur"/>
            <feFlood flood-color="#000000" flood-opacity="0.5"/>
            <feComposite in2="offsetblur" operator="in"/>
            <feMerge>
                <feMergeNode/>
                <feMergeNode in="SourceGraphic"/>
            </feMerge>
        </filter>
        <path id="path2" fill="#95c0c8" fill-rule="evenodd" stroke="none" filter="url(#filter2)" d="M 126.391426 843.805481 C 126.610428 870.841187 135.671494 898.968384 162.707214 898.74939 L 842.805237 894.454041 C 869.840942 894.235046 898.537842 887.850647 898.318848 860.814941 L 907.786682 69.228455 C 907.567688 42.192749 854.359863 38.010864 827.324036 38.229858 L 188.470123 44.378967 C 161.434448 44.597961 144.321442 50.195679 144.540298 77.231384 Z"/>
        <path id="path3" fill="#6a9856" stroke="none" d="M 814.184021 859.027283 L 145.868317 865.033081 C 119.674332 864.690125 107.059853 873.49707 97.885002 897.12207 L 131.796173 94.195496 C 132.105545 62.090698 151.900497 44.449768 186.070297 41.421753 L 816.312195 0.542297 C 865.920105 -2.628723 879.99823 8.863892 880.106445 47.532532 L 882.37439 799.536743 C 882.507019 842.73053 865.304871 858.554382 814.184021 859.027283 Z"/>
        <filter id="filter3" x="0" y="0" width="1000" height="1000" filterUnits="userSpaceOnUse" primitiveUnits="userSpaceOnUse" color-interpolation-filters="sRGB">
            <feGaussianBlur stdDeviation="4.234247"/>
        </filter>
        <path id="path4" fill="none" stroke="#507441" stroke-width="8.926337" filter="url(#filter3)" d="M 904.77124 68.690308 L 907.260986 841.870667 C 907.393677 885.064453 890.191223 900.888306 839.070374 901.361145 L 170.754913 907.367065 C 170.754913 907.367065 127.252518 912.952759 123.647873 868.21228"/>
        <linearGradient id="linearGradient1" x1="265.506977" y1="123.89046" x2="265.506977" y2="816.287523" gradientUnits="userSpaceOnUse" gradientTransform="matrix(0.999745 0.022603 -0.022603 0.999745 10.683146 -4.974935)">
            <stop offset="1e-05" stop-color="#ffffff" stop-opacity="1"/>
            <stop offset="0.5" stop-color="#cee5f0" stop-opacity="1"/>
            <stop offset="1" stop-color="#e9f3f8" stop-opacity="1"/>
        </linearGradient>
        <path id="Retngulo-arredondado" fill="url(#linearGradient1)" fill-rule="evenodd" stroke="none" visibility="hidden" d="M 188.083939 785.332031 C 187.707031 802.002502 200.915604 815.822144 217.586105 816.199097 C 234.256592 816.575989 248.076248 803.367432 248.453156 786.696899 L 262.738708 154.845947 C 263.115631 138.175476 249.907043 124.355774 233.236557 123.978882 C 216.566055 123.60199 202.746399 136.810547 202.369507 153.481018 Z"/>
        <g id="Arames">
            <g id="Furos">
                <path id="Elipse" fill="#f2f7f8" fill-rule="evenodd" stroke="none" d="M 265.468262 181.116943 C 270.137848 163.125366 259.868591 144.892578 242.531281 140.392822 C 225.193954 135.893005 207.353851 146.830322 202.68428 164.821838 C 198.014725 182.813416 208.283966 201.046204 225.621292 205.546021 C 242.958603 210.045776 260.798706 199.108521 265.468262 181.116943 Z"/>
                <path id="Elipse-copiar" fill="#f2f7f8" fill-rule="evenodd" stroke="none" d="M 247.128754 494.185852 C 251.798309 476.194275 241.529068 457.961487 224.191742 453.461731 C 206.854431 448.961975 189.014328 459.899231 184.344757 477.890747 C 179.675186 495.882324 189.944443 514.115112 207.281754 518.614868 C 224.61908 523.114624 242.459183 512.177368 247.128754 494.185852 Z"/>
                <path id="Elipse-copiar-2" fill="#f2f7f8" fill-rule="evenodd" stroke="none" d="M 248.683594 769.967957 C 253.353165 751.97644 243.083908 733.743591 225.746597 729.243835 C 208.409271 724.74408 190.569168 735.681335 185.899612 753.672852 C 181.230042 771.664429 191.499283 789.897278 208.836609 794.397034 C 226.17392 798.89679 244.014038 787.959534 248.683594 769.967957 Z"/>
            </g>
            <g id="Arame">
                <path id="path5" fill="#222424" fill-rule="evenodd" stroke="none" d="M 130.306946 141.81488 C 118.214973 140.471008 88.031067 148.25293 74.673218 159.912292 C 74.673218 159.912292 70.426735 175.755249 72.071472 181.069519 C 74.765923 189.775452 82.635468 196.826233 92.361092 198.305359 C 131.098068 204.196594 209.895706 196.5896 209.895706 196.5896 C 222.049423 196.032104 244.842133 183.888184 244.284653 171.734558 C 243.727173 159.580933 228.532455 150.404602 216.378784 150.962097 L 123.295494 151.556274 C 111.141792 152.113831 134.664642 142.299133 130.306946 141.81488 Z"/>
                <path id="Traado-copiar-2" fill="#222424" fill-rule="evenodd" stroke="none" d="M 104.833443 732.00061 C 92.74147 730.656738 62.557571 738.438721 49.199722 750.098022 C 49.199722 750.098022 44.953236 765.940979 46.597977 771.25531 C 49.292423 779.961243 57.161972 787.012024 66.887589 788.49115 C 105.624573 794.382385 184.422211 786.775391 184.422211 786.775391 C 196.575928 786.217834 219.368637 774.073975 218.811157 761.920288 C 218.253677 749.766663 203.05896 740.590393 190.905289 741.147827 L 97.821999 741.742065 C 85.668297 742.299561 109.191154 732.484924 104.833443 732.00061 Z"/>
                <path id="Traado-copiar" fill="#222424" fill-rule="evenodd" stroke="none" d="M 111.450233 453.180115 C 99.358253 451.836243 59.959778 461.019775 46.601921 472.679138 C 46.601921 472.679138 42.355434 488.522095 44.000175 493.836395 C 46.69463 502.542328 54.564175 509.593109 64.289787 511.072235 C 103.026756 516.963501 181.824417 509.356476 181.824417 509.356476 C 193.978119 508.79895 216.770828 496.65506 216.213348 484.501404 C 215.655884 472.347778 200.461166 463.171509 188.30748 463.728943 L 98.591408 463.751099 C 86.437691 464.308655 115.807938 453.664368 111.450233 453.180115 Z"/>
            </g>
        </g>
        <text id="Virtuakeo-Places" xml:space="preserve" x="524" y="711" text-anchor="middle" font-family="Poppins" font-size="68" font-weight="700" fill="#131819">Virtuakeo Places</text>
        <g id="compass-151722">
            <g id="Agrupar">
                <linearGradient id="linearGradient2" x1="524.227649" y1="99.638173" x2="478.253284" y2="62.01314" gradientUnits="userSpaceOnUse">
                    <stop offset="1e-05" stop-color="#000000" stop-opacity="0.43299"/>
                    <stop offset="1" stop-color="#ffffff" stop-opacity="1"/>
                </linearGradient>
                <path id="path6" fill="none" stroke="url(#linearGradient2)" stroke-width="2.720159" d="M 488.576477 60.676697 C 472.661011 67.588806 467.739746 81.91394 477.584534 92.672852 C 487.429352 103.431763 508.312164 106.550232 524.227661 99.638184 C 540.143127 92.726074 545.064392 78.400879 535.219604 67.641968 C 525.374817 56.883057 504.491943 53.764587 488.576477 60.676697 Z"/>
                <linearGradient id="linearGradient3" x1="516.783846" y1="111.79166" x2="550.420498" y2="73.918134" gradientUnits="userSpaceOnUse">
                    <stop offset="1e-05" stop-color="#45818e" stop-opacity="1"/>
                    <stop offset="1" stop-color="#a2c4c9" stop-opacity="1"/>
                </linearGradient>
                <path id="path7" fill="none" stroke="url(#linearGradient3)" stroke-width="2.597773" d="M 523.230896 61.752258 C 538.247253 68.471313 542.890686 82.396423 533.602173 92.854919 C 524.31366 103.313354 504.610626 106.344849 489.594208 99.625793 C 474.577789 92.906738 469.934387 78.981628 479.22287 68.523071 C 488.511383 58.064636 508.214417 55.033203 523.230896 61.752258 Z"/>
                <linearGradient id="linearGradient4" x1="529.513807" y1="121.079036" x2="487.872407" y2="121.380536" gradientUnits="userSpaceOnUse">
                    <stop offset="1e-05" stop-color="#76a5af" stop-opacity="1"/>
                    <stop offset="1" stop-color="#a2c4c9" stop-opacity="1"/>
                </linearGradient>
                <path id="path8" fill="url(#linearGradient4)" fill-rule="evenodd" stroke="#797b7a" stroke-width="0.800367" d="M 506.407135 97.253296 C 501.650208 97.253296 497.786438 100.909119 497.786438 105.415588 C 497.786438 106.386963 497.977966 107.299805 498.307007 108.164063 C 489.098663 110.352783 482.321625 117.970825 482.336273 127.19519 L 482.336273 132.837952 C 482.33786 133.807434 482.502808 134.737732 482.648621 135.6698 L 530.164307 135.857178 C 530.307129 134.926208 530.478149 133.994934 530.476624 133.025391 L 530.455811 127.361755 C 530.440857 118.148743 523.661438 110.496826 514.464417 108.226135 C 514.808594 107.344421 515.026611 106.409607 515.026611 105.4151 C 515.026611 100.908569 511.163177 97.252808 506.405914 97.252808 Z"/>
            </g>
            <radialGradient id="radialGradient1" cx="507.164955" cy="373.812954" r="185.413313" fx="507.164955" fy="373.812954" gradientUnits="userSpaceOnUse">
                <stop offset="1e-05" stop-color="#d0e0e3" stop-opacity="1"/>
                <stop offset="1" stop-color="#76a5af" stop-opacity="1"/>
            </radialGradient>
            <path id="path9" fill="url(#radialGradient1)" fill-rule="evenodd" stroke="#000000" stroke-width="0.782754" d="M 692.575134 373.812927 C 692.960266 307.725891 657.70575 246.494446 600.181396 213.339905 C 542.657104 180.185364 471.672821 180.185364 414.148499 213.339905 C 356.624176 246.494446 321.369659 307.725891 321.754761 373.812927 C 321.369659 439.900024 356.624176 501.131439 414.148499 534.286011 C 471.672821 567.440552 542.657104 567.440552 600.181396 534.286011 C 657.70575 501.131439 692.960266 439.900024 692.575134 373.812927 Z"/>
            <path id="path10" fill="#a2c4c9" fill-rule="evenodd" stroke="#000000" stroke-width="0.832883" stroke-opacity="0.46522" d="M 508.207062 131.735107 C 374.552673 131.735107 266.084625 240.216492 266.084625 373.877563 C 266.084625 507.538635 374.546021 615.993286 508.207062 616 C 641.868225 616.006653 750.349548 507.538635 750.349548 373.877563 C 750.349548 240.216492 641.868225 131.735107 508.207062 131.735107 Z M 508.207062 190.099548 C 609.652222 190.099548 691.98114 272.435059 691.98114 373.873535 C 691.98114 475.312073 609.64563 557.627563 508.207062 557.627563 C 406.768616 557.627563 324.453094 475.312073 324.453094 373.873535 C 324.453094 272.435059 406.768616 190.099548 508.207062 190.099548 Z"/>
            <path id="path11" fill="#d0e0e3" fill-rule="evenodd" stroke="none" d="M 508.227081 148.552673 C 382.888184 148.552673 281.163147 249.85791 281.163147 374.683777 C 281.163147 499.509674 382.888184 600.81488 508.227081 600.81488 C 633.565979 600.81488 735.291016 499.509674 735.291016 374.683777 C 735.291016 249.85791 633.565979 148.559387 508.227081 148.552673 Z M 509.14328 151.197083 C 620.729614 151.197083 711.287354 251.123108 711.287354 374.243225 C 711.287354 497.363312 620.729614 597.289307 509.14328 597.289307 C 397.556915 597.289307 306.999176 497.363312 306.999176 374.243225 C 306.999176 251.123108 397.556915 151.197083 509.14328 151.197083 Z"/>
            <linearGradient id="linearGradient5" x1="291.040989" y1="389.828658" x2="692.527586" y2="381.731684" gradientUnits="userSpaceOnUse">
                <stop offset="1e-05" stop-color="#000000" stop-opacity="0"/>
                <stop offset="1" stop-color="#ffffff" stop-opacity="0.6701"/>
            </linearGradient>
            <path id="path12" fill="none" stroke="url(#linearGradient5)" stroke-width="9.349642" d="M 698.491028 374.645874 C 698.491028 270.06604 613.13562 185.287292 507.844391 185.287292 C 402.553131 185.287292 317.197693 270.06604 317.197693 374.645874 C 317.197693 479.225708 402.553131 564.004517 507.844391 564.004517 C 613.13562 564.004517 698.491028 479.225708 698.491028 374.645874 Z"/>
            <g id="g1">
                <path id="path13" fill="#ffffff" fill-rule="evenodd" stroke="#ffffff" stroke-width="0.800367" d="M 619.445923 485.041687 L 637.905273 503.221832"/>
                <text id="SE" transform="matrix(-0.720857 0.693084 -0.693084 -0.720857 1379.21159 437.515403)" xml:space="preserve" x="590" y="502" font-family="Helvetica" font-size="12.816146" font-weight="700" fill="#ffffff">SE</text>
            </g>
            <g id="g2">
                <path id="path14" fill="#45818e" fill-rule="evenodd" stroke="#ffffff" stroke-width="1.011212" stroke-opacity="0.72157" d="M 529.555969 535.034302 C 529.555969 523.83313 520.475159 514.75293 509.273376 514.75293 C 498.071655 514.75293 488.990845 523.83313 488.990845 535.034302 C 488.990845 546.235352 498.071655 555.315674 509.273376 555.315674 C 520.475159 555.315674 529.555969 546.235352 529.555969 535.034302 Z"/>
                <text id="S" stroke="#ffffff" stroke-width="0.343435" stroke-opacity="0.72157" xml:space="preserve" x="499" y="545" font-family="Helvetica" font-size="20.50586" font-weight="700" fill="#ffffff">S</text>
            </g>
            <g id="g3">
                <path id="path15" fill="#ffffff" fill-rule="evenodd" stroke="#ffffff" stroke-width="0.800367" d="M 378.802704 503.438385 L 396.548431 484.561279"/>
                <text id="SW" transform="matrix(-0.708488 -0.705723 0.705723 -0.708488 317.219043 1130.033154)" xml:space="preserve" x="379" y="505" font-family="Helvetica" font-size="12.816148" font-weight="700" fill="#ffffff">SW</text>
            </g>
            <path id="path16" fill="#45818e" fill-opacity="0.08696" fill-rule="evenodd" stroke="#45818e" stroke-width="1.665766" stroke-opacity="0.46087" d="M 508.786804 244.047729 L 490.629974 330.920776 L 444.155029 310.015442 L 465.102417 356.61554 L 378.189392 374.106079 L 465.062408 392.242249 L 444.157043 438.717163 L 490.777863 417.769836 L 508.247742 504.682831 L 526.383911 417.836426 L 572.858826 438.72113 L 551.911499 392.120972 L 638.844482 374.651123 L 551.971436 356.494263 L 572.85614 310.019348 L 526.255981 330.987366 L 508.786102 244.054382 Z M 508.182953 338.683228 C 527.448547 338.683228 543.08075 354.314819 543.08075 373.580994 C 543.08075 392.847351 527.448547 408.478821 508.182953 408.478821 C 488.917389 408.478821 473.264496 392.847351 473.264496 373.580994 C 473.264496 354.314819 488.917389 338.683228 508.182953 338.683228 Z"/>
            <g id="g4">
                <path id="path17" fill="#45818e" fill-rule="evenodd" stroke="#ffffff" stroke-width="1.011212" stroke-opacity="0.72157" d="M 689.200989 374.477539 C 689.200989 363.276489 680.120117 354.196167 668.918396 354.196167 C 657.716614 354.196167 648.635864 363.276489 648.635864 374.477539 C 648.635864 385.67865 657.716614 394.758911 668.918396 394.758911 C 680.120117 394.758911 689.200989 385.67865 689.200989 374.477539 Z"/>
                <text id="E" stroke="#ffffff" stroke-width="0.343435" stroke-opacity="0.72157" xml:space="preserve" x="660" y="384" font-family="Helvetica" font-size="20.50586" font-weight="700" fill="#ffffff">E</text>
            </g>
            <g id="g5">
                <path id="path18" fill="#45818e" fill-rule="evenodd" stroke="#ffffff" stroke-width="1.011212" stroke-opacity="0.72157" d="M 367.184326 373.719238 C 367.184326 362.518127 358.103516 353.437866 346.901764 353.437866 C 335.700043 353.437866 326.619202 362.518127 326.619202 373.719238 C 326.619202 384.920349 335.700043 394.00061 346.901764 394.00061 C 358.103516 394.00061 367.184326 384.920349 367.184326 373.719238 Z"/>
                <text id="W" stroke="#ffffff" stroke-width="0.323665" stroke-opacity="0.72157" xml:space="preserve" x="332" y="383" font-family="Helvetica" font-size="23.069093" font-weight="700" fill="#ffffff">W</text>
            </g>
            <path id="path19" fill="#ffffff" fill-rule="evenodd" stroke="#ffffff" stroke-width="0.800367" d="M 379.520691 243.298828 L 397.980042 261.479004"/>
            <text id="NW" transform="matrix(0.64696 -0.762524 0.762524 0.64696 -72.735652 399.899646)" xml:space="preserve" x="382" y="284" font-family="Helvetica" font-size="12.816169" font-weight="700" fill="#ffffff">NW</text>
            <path id="path20" fill="#ffffff" fill-rule="evenodd" stroke="#ffffff" stroke-width="0.800367" d="M 619.300598 262.510864 L 637.531433 244.101501"/>
            <text id="NE" transform="matrix(0.709334 0.704873 -0.704873 0.709334 370.808513 -338.219836)" xml:space="preserve" x="584" y="286" font-family="Helvetica" font-size="12.81621" font-weight="700" fill="#ffffff">NE</text>
            <g id="g6">
                <path id="path21" fill="#45818e" fill-rule="evenodd" stroke="#ffffff" stroke-width="1.011212" stroke-opacity="0.72174" d="M 529.555969 213.009094 C 529.555969 201.808044 520.475159 192.727722 509.273376 192.727722 C 498.071655 192.727722 488.990845 201.808044 488.990845 213.009094 C 488.990845 224.210266 498.071655 233.290527 509.273376 233.290527 C 520.475159 233.290527 529.555969 224.210266 529.555969 213.009094 Z"/>
                <text id="N" stroke="#ffffff" stroke-width="0.326987" stroke-opacity="0.72174" xml:space="preserve" x="497" y="223" font-family="Helvetica" font-size="20.50586" font-weight="700" fill="#ffffff">N</text>
            </g>
            <g id="g7">
                <path id="path22" fill="#45818e" fill-rule="evenodd" stroke="#000000" stroke-width="0.333155" stroke-opacity="0.45652" d="M 582.240479 235.190796 L 507.593201 373.229187 L 517.966003 378.838501 L 582.240479 235.190796"/>
                <path id="path23" fill="#76a5af" fill-rule="evenodd" stroke="#000000" stroke-width="0.333155" stroke-opacity="0.45652" d="M 582.240479 235.190796 L 507.593201 373.229187 L 497.220367 367.619873 L 582.240479 235.190796"/>
            </g>
            <path id="path24" fill="#a2c4c9" fill-rule="evenodd" stroke="#000000" stroke-width="0.32951" stroke-opacity="0.4549" d="M 432.946075 511.270264 L 507.593384 373.231873 L 517.966187 378.841187 L 432.946075 511.270264"/>
            <path id="path25" fill="#6e6e6e" fill-rule="evenodd" stroke="#a2c4c9" stroke-width="0.131803" stroke-opacity="0.4549" d="M 432.946075 511.270264 L 507.593384 373.231873 L 497.220581 367.622559 L 432.946075 511.270264"/>
            <linearGradient id="linearGradient6" x1="502.769919" y1="358.783044" x2="522.621341" y2="369.518161" gradientUnits="userSpaceOnUse">
                <stop offset="1e-05" stop-color="#45818e" stop-opacity="1"/>
                <stop offset="1" stop-color="#a2c4c9" stop-opacity="1"/>
            </linearGradient>
            <linearGradient id="linearGradient7" x1="497.479308" y1="368.818869" x2="517.253783" y2="379.443872" gradientUnits="userSpaceOnUse">
                <stop offset="1e-05" stop-color="#000000" stop-opacity="1"/>
                <stop offset="1" stop-color="#ffffff" stop-opacity="1"/>
            </linearGradient>
            <path id="path26" fill="url(#linearGradient6)" fill-rule="evenodd" stroke="url(#linearGradient7)" stroke-width="1.016987" d="M 517.253784 379.443848 C 520.218201 373.962036 518.17749 367.115051 512.695618 364.150574 C 507.213837 361.186157 500.366791 363.226929 497.402374 368.70874 C 494.437927 374.190552 496.478699 381.037598 501.96051 384.002014 C 507.442352 386.966492 514.289368 384.925659 517.253784 379.443848 Z"/>
            <path id="path27" fill="#ffffff" fill-rule="evenodd" stroke="none" d="M 509.644135 375.320923 C 510.337769 374.038269 509.86026 372.436157 508.577545 371.742493 C 507.294861 371.048828 505.692719 371.526306 504.999054 372.809021 C 504.305389 374.091736 504.782928 375.693909 506.065613 376.387573 C 507.348328 377.081177 508.95047 376.603699 509.644135 375.320923 Z"/>
            <path id="path28" fill="#ffffff" fill-rule="evenodd" stroke="#ffffff" stroke-width="0.441429" d="M 387.160034 250.775085 L 375.459869 247.49939 L 384.146698 239.0047 L 387.159912 250.775208 Z"/>
            <path id="path29" fill="#ffffff" fill-rule="evenodd" stroke="#ffffff" stroke-width="0.441425" d="M 641.778137 248.686768 L 630.024231 251.763611 L 633.236572 240.046143 L 641.778137 248.686951 Z"/>
            <path id="path30" fill="#ffffff" fill-rule="evenodd" stroke="#ffffff" stroke-width="0.441431" d="M 642.068054 498.776733 L 633.538635 507.429749 L 630.309692 495.716675 L 642.068115 498.776917 Z"/>
            <path id="path31" fill="#ffffff" fill-rule="evenodd" stroke="#ffffff" stroke-width="0.44143" d="M 383.073151 507.307739 L 374.416046 498.782532 L 386.127533 495.547943 L 383.072998 507.307831 Z"/>
        </g>
    </g>
</svg>
