<?xml version="1.0" encoding="UTF-8"?>
<!-- Generated by Pixelmator Pro 3.3.2 -->
<svg width="345" height="345" viewBox="0 0 345 345" xmlns="http://www.w3.org/2000/svg" xmlns:xlink="http://www.w3.org/1999/xlink">
        <g id="2744712244800">
            <path id="Elipse" fill="#e4e8ec" fill-rule="evenodd" stroke="none" d="M 276 216.5 C 276 174.80249 242.421356 141 201 141 C 159.578644 141 126 174.80249 126 216.5 C 126 258.19751 159.578644 292 201 292 C 242.421356 292 276 258.19751 276 216.5 Z"/>
            <path id="Traado" fill="#011627" stroke="#000000" stroke-width="0.037795" d="M 163.853546 183.940155 C 162.530716 182.655121 162.530716 180.538589 163.853546 179.25354 C 165.13858 177.93071 167.255112 177.93071 168.540161 179.25354 L 201.800003 212.475586 L 235.059845 179.25354 C 236.344879 177.93071 238.461411 177.93071 239.74646 179.25354 C 241.06929 180.538589 241.06929 182.655121 239.74646 183.940155 L 206.524414 217.199997 L 239.74646 250.459839 C 241.06929 251.744888 241.06929 253.86142 239.74646 255.146454 C 238.461411 256.469299 236.344879 256.469299 235.059845 255.146454 L 201.800003 221.924408 L 168.540161 255.146454 C 167.255112 256.469299 165.13858 256.469299 163.853546 255.146454 C 162.530716 253.86142 162.530716 251.744888 163.853546 250.459839 L 197.075592 217.199997 L 163.853546 183.940155 Z M 278.486603 217.199997 C 278.486603 196.034653 269.907074 176.872437 256.036224 162.963776 C 242.127563 149.092911 222.965347 140.513382 201.800003 140.513382 C 180.634644 140.513382 161.472443 149.092911 147.563782 162.963776 C 133.692917 176.872437 125.113388 196.034653 125.113388 217.199997 C 125.113388 238.365356 133.692917 257.527557 147.563782 271.436218 C 161.472443 285.307068 180.634644 293.886597 201.800003 293.886597 C 222.965347 293.886597 242.127563 285.307068 256.036224 271.436218 C 269.907074 257.527557 278.486603 238.365356 278.486603 217.199997 Z M 260.722839 158.277161 C 275.803131 173.357483 285.13858 194.182678 285.13858 217.199997 C 285.13858 240.217316 275.803131 261.042542 260.722839 276.122833 C 245.642517 291.203156 224.817322 300.538574 201.800003 300.538574 C 178.782684 300.538574 157.957474 291.203156 142.877167 276.122833 C 127.796852 261.042542 118.461418 240.217316 118.461418 217.199997 C 118.461418 194.182678 127.796852 173.357483 142.877167 158.277161 C 157.957474 143.196854 178.782684 133.86142 201.800003 133.86142 C 224.817322 133.86142 245.642517 143.196854 260.722839 158.277161 Z"/>
        </g>
</svg>
