<?xml version="1.0" encoding="UTF-8"?>
<!-- Generated by Pixelmator Pro 3.3.2 -->
<svg width="841" height="595" viewBox="0 0 841 595" xmlns="http://www.w3.org/2000/svg" xmlns:xlink="http://www.w3.org/1999/xlink">
    <linearGradient id="linearGradient1" x1="370.0165" y1="274.3755" x2="484.1805" y2="274.3755" gradientUnits="userSpaceOnUse">
        <stop offset="0.4225" stop-color="#ffffff" stop-opacity="1"/>
        <stop offset="0.9285" stop-color="#ffffff" stop-opacity="0"/>
    </linearGradient>
    <path id="Traado" fill="url(#linearGradient1)" stroke="none" opacity="0.56" d="M 371.100006 244.300018 C 371.100006 244.300018 413.200012 215.5 469.200012 177.300018 C 503.200012 201.899994 503.799988 348.200012 469.200012 371.599976 C 411.399994 347.700012 370 330.200012 370 330.200012 L 371.100006 244.300018 Z"/>
    <g id="Agrupar">
        <path id="path1" fill="#3d405b" stroke="none" d="M 503 350.200012 C 503.700012 349.599976 504.600006 349.5 505.5 349.5 C 509 349.400024 512.400024 349.900024 515.799988 351.099976 C 521.400024 353.200012 526.900024 355.200012 531.799988 358.700012 C 533.400024 359.900024 535.099976 361 536.299988 362.599976 C 536.299988 367.299988 535.799988 371.900024 534.900024 376.5 C 533.700012 382.599976 531.299988 388.200012 527.799988 393.299988 C 525.299988 396.900024 523 400.599976 519.900024 403.700012 C 517.599976 406.099976 515.099976 408.299988 512.299988 410 C 511.600006 410.400024 510.899994 410.799988 510.100006 411 C 504.5 412.5 498.799988 413.5 493 414 C 487.600006 414.5 482.100006 414.5 476.700012 414.5 C 471.5 414.5 466.399994 414.900024 461.200012 415.5 C 456.899994 416 452.600006 416 448.200012 415.799988 C 447.100006 413.400024 446.299988 410.799988 445 408.5 C 444.100006 407.700012 444 406.700012 443.799988 405.599976 C 443.700012 404.799988 443.600006 404.099976 443.600006 403.299988 C 443.600006 401.400024 443.700012 399.599976 444.100006 397.700012 C 444.200012 397.400024 444.299988 397 444.600006 396.900024 C 445.100006 396.799988 445.299988 397.200012 445.5 397.5 C 446.200012 398.400024 447 399.299988 447.600006 400.400024 C 448 401 448.5 401.5 449.100006 401.900024 C 450 402.400024 450.200012 402.400024 450.5 401.5 C 450.700012 401 450.899994 400.599976 451 400.099976 C 452.100006 396.400024 454.399994 393.5 457.700012 391.599976 C 460.700012 390.299988 463.799988 390 466.899994 390.200012 C 468.600006 390.299988 470.299988 390.400024 472.100006 390.200012 C 474.399994 390.099976 476.600006 389.400024 478.799988 388.799988 C 479.799988 388.5 480.600006 388 481.399994 387.299988 C 482.399994 386.400024 483.5 385.5 484.799988 385 C 485.799988 384.599976 486.799988 384.400024 487.799988 384.400024 C 490.5 384.400024 492.200012 383.299988 493.299988 380.700012 C 493.899994 379.299988 494.100006 377.700012 494.5 376.299988 C 495.299988 372.799988 496.899994 369.700012 499.5 367.200012 C 499.600006 367.099976 499.799988 366.900024 499.899994 366.799988 C 501.899994 365.299988 502.399994 363.200012 502.100006 360.900024 C 501.899994 358.799988 502.600006 356.799988 502.600006 354.700012 C 502.600006 353.700012 502.600006 352.700012 502.5 351.700012 C 502.5 351 502.399994 350.5 503 350.200012 Z"/>
        <path id="path2" fill="#f2cc8f" stroke="none" d="M 370 330.100006 C 370 331.5 370 332.900024 370 334.200012 C 370 335.100006 369.399994 335.200012 368.799988 335.200012 C 367.899994 335.200012 367 335.200012 366 335.100006 C 360.799988 335 355.700012 335.5 350.5 335.300018 C 349.799988 335.300018 349.100006 335.400024 348.5 334.900024 C 348.200012 334.5 348.200012 334 348.200012 333.600006 C 348.200012 331.700012 348.100006 329.800018 348.200012 327.800018 C 348.5 324.800018 348.399994 321.800018 348.399994 318.800018 C 348.399994 314.100006 348.299988 309.400024 348.399994 304.600006 C 348.700012 294.600006 348.399994 284.600006 348.700012 274.600006 C 348.899994 265.900024 348.700012 257.300018 348.899994 248.600006 C 349 245.5 349.100006 242.300018 349.100006 239.200012 C 349.100006 237.899994 349.200012 237.800018 351.299988 237.300018 C 355.700012 236.800018 360.100006 237 364.5 236.899994 C 364.700012 236.899994 365 236.899994 365.100006 237.100006 C 366.700012 237.100006 368.299988 237.100006 369.899994 237.100006 C 371.299988 237.100006 371.600006 237.300018 371.600006 238.800018 C 371.600006 240.200012 371.600006 241.600006 371.600006 243 C 371.5 244 371.399994 245 371.700012 246.100006 C 371.799988 246.5 371.799988 247 371.799988 247.5 C 371.899994 254.300018 371.600006 261.100006 371.5 267.900024 C 371.399994 272.300018 371.600006 276.800018 371.299988 281.200012 C 371 286.600006 371.299988 292.100006 371.100006 297.5 C 370.899994 302 371.100006 306.5 370.899994 311 C 370.700012 315.300018 370.799988 319.600006 370.700012 323.900024 C 370.600006 326.100006 370.299988 328.100006 370 330.100006 Z"/>
        <path id="path3" fill="#e7c388" stroke="none" d="M 351.399994 237.800018 C 351.299988 237.800018 351.299988 237.899994 351.399994 237.800018 C 350.799988 238.200012 350 237.700012 349.700012 238.200012 C 349.299988 238.800018 349.600006 239.5 349.600006 240.200012 C 349.299988 250.800018 349.600006 261.5 349.299988 272.100006 C 349.100006 281 349.399994 289.900024 349.100006 298.800018 C 348.799988 307.800018 349.100006 316.800018 348.899994 325.800018 C 348.799988 328.800018 348.799988 331.800018 348.700012 334.900024 C 348.399994 335.300018 347.899994 335.300018 347.399994 335.300018 C 346.899994 335.300018 346.399994 335.300018 345.899994 335.300018 C 340.700012 335.100006 335.5 335.600006 330.299988 335.5 C 329.799988 335.5 329.200012 335.5 328.700012 335.400024 C 328.200012 335.300018 327.600006 335.100006 327.700012 334.400024 C 327.600006 333.600006 328.200012 332.900024 327.700012 332.100006 C 327.299988 331.400024 327.299988 330.700012 327.299988 330 C 327.299988 324.300018 327.200012 318.600006 327.299988 313 C 327.799988 292.100006 327.399994 271.200012 327.5 250.300018 C 327.5 249.100006 327.700012 247.899994 327.5 246.700012 C 328 246.399994 328.200012 246 328.200012 245.399994 C 328.200012 243.600006 328.200012 241.700012 328.200012 239.899994 C 328.299988 238.100006 328.5 238 330.200012 238.100006 C 331.299988 238.200012 332.299988 238.100006 333.399994 238.100006 C 333.700012 237.800018 334.200012 237.700012 334.600006 237.700012 C 337.200012 237.700012 339.799988 237.300018 342.399994 237.5 C 344.899994 237.600006 347.399994 237.200012 349.899994 237.300018 C 350.399994 237.5 351 237.300018 351.399994 237.800018 Z"/>
        <path id="path4" fill="#debb83" stroke="none" d="M 327.399994 246.800018 C 327.899994 246.899994 328.100006 247.100006 328 247.600006 C 327.700012 248.600006 327.899994 249.600006 327.899994 250.600006 C 327.899994 270.200012 328 289.900024 327.799988 309.5 C 327.700012 316.5 327.799988 323.400024 327.600006 330.400024 C 327.600006 331 328.200012 331.600006 327.600006 332.200012 C 327 332.300018 326.700012 331.900024 326.299988 331.600006 C 317.799988 324.800018 309.299988 318 300.700012 311.300018 C 300.100006 310.800018 299.899994 310.400024 299.899994 309.600006 C 300.299988 297.5 300.100006 285.400024 300.100006 273.200012 C 300.100006 272 300.5 271.200012 301.399994 270.5 C 305.200012 267.100006 308.899994 263.600006 312.700012 260.100006 C 317.399994 255.700012 322.200012 251.399994 326.899994 247 C 327.100006 247 327.299988 246.899994 327.399994 246.800018 Z"/>
        <path id="path5" fill="#2d2f42" stroke="none" d="M 448.299988 415.799988 C 448.600006 415.400024 449.100006 415.5 449.5 415.5 C 451.600006 415.5 453.700012 415.5 455.799988 415.5 C 459.100006 415.400024 462.299988 415.099976 465.600006 414.599976 C 466.600006 414.5 467.700012 414.400024 468.700012 414.299988 C 472.399994 414.200012 476.200012 413.900024 479.899994 414 C 483.299988 414.099976 486.700012 413.900024 490.100006 413.700012 C 494.399994 413.5 498.700012 412.799988 503 412 C 504.799988 411.700012 506.600006 411.200012 508.399994 410.900024 C 511.5 410.400024 513.799988 408.5 516 406.599976 C 522.599976 401 527.200012 393.799988 531.200012 386.299988 C 533.400024 382.099976 534.299988 377.5 535.099976 372.799988 C 535.599976 369.900024 535.599976 367 536 364.200012 C 536.099976 363.700012 536 363.299988 535.799988 362.799988 C 535.700012 362.400024 535.900024 362.200012 536.299988 362.299988 C 537.200012 363.200012 537.799988 364.400024 538.299988 365.5 C 540.599976 370.400024 541.5 375.599976 541.700012 380.900024 C 542 389.099976 542.200012 397.299988 541.099976 405.5 C 540.700012 408.400024 539.900024 411.299988 538.700012 414 C 536.799988 418.400024 533.200012 420.599976 528.599976 421.5 C 523.700012 422.5 518.700012 422.900024 513.799988 422.099976 C 512.200012 421.799988 510.600006 422.200012 509 422.299988 C 507.600006 422.400024 506.200012 422.5 504.899994 422.5 C 499.200012 422.299988 493.600006 423 487.899994 422.400024 C 481.5 421.799988 475.100006 422.599976 468.700012 422.599976 C 464.600006 422.599976 460.5 423.200012 456.399994 423.099976 C 455.299988 423.099976 454.299988 422.900024 453.5 422.200012 C 451.299988 420.599976 449.299988 418.5 448.299988 415.799988 Z"/>
        <path id="path6" fill="#c56b53" stroke="none" d="M 327.600006 334.5 C 327.899994 335.100006 328.299988 335.200012 328.899994 335.200012 C 335.399994 335.100006 342 335 348.5 335 C 354.700012 335.200012 360.899994 334.700012 367.100006 334.800018 C 367.600006 334.800018 368.200012 334.700012 368.700012 334.900024 C 369.299988 335.100006 369.600006 334.800018 369.899994 334.300018 C 372 334.300018 374.100006 334.300018 376.200012 334.300018 C 377.5 334.300018 377.600006 334.400024 377.200012 335.700012 C 376.700012 336.5 375.899994 336.300018 375.200012 336.300018 C 370.399994 336.300018 365.600006 336.400024 360.899994 336.300018 C 357.799988 336.300018 354.600006 336.600006 351.5 336.600006 C 350.600006 336.600006 350.299988 336.900024 350.299988 337.800018 C 350.299988 338.700012 350.5 339.599976 350 340.400024 C 349.5 340.799988 348.799988 340.799988 348.200012 340.799988 C 345.799988 340.799988 343.399994 340.799988 341.100006 340.799988 C 339.899994 340.799988 339.799988 340.900024 339.799988 342.099976 C 339.799988 349.900024 339.799988 357.700012 339.799988 365.599976 C 339.799988 366.799988 339.899994 366.900024 341.200012 366.900024 C 344.200012 366.900024 347.299988 366.900024 350.299988 366.900024 C 350.899994 366.900024 351.5 366.799988 352.100006 367.299988 C 352 368.200012 351.200012 368 350.700012 368 C 348 368.099976 345.299988 368 342.5 368 C 339.600006 368 339.899994 367.799988 339.899994 370.599976 C 339.899994 373.599976 339.899994 376.700012 339.899994 379.700012 C 339.899994 381.200012 340 381.200012 341.5 381.200012 C 344.200012 381.200012 346.899994 381.200012 349.600006 381.200012 C 350.200012 381.200012 350.799988 381.099976 351.399994 381.599976 C 351.700012 381.900024 351.700012 382.299988 351.700012 382.700012 C 351.700012 384.700012 351.700012 386.599976 351.700012 388.599976 C 351.700012 389 351.600006 389.400024 351.299988 389.799988 C 347.700012 389.900024 344.200012 389.900024 340.600006 389.900024 C 339.700012 389.900024 339.5 390.200012 339.5 391.099976 C 339.5 399.200012 339.5 407.400024 339.399994 415.5 C 339.399994 416.400024 339.600006 416.799988 340.600006 416.700012 C 343.100006 416.700012 343.100006 416.700012 343 419.099976 C 343 419.799988 342.899994 420.5 343 421.200012 C 343.100006 422.299988 342.5 422.599976 341.600006 422.700012 C 340.799988 422.799988 339.899994 422.799988 339.100006 422.799988 C 335 422.799988 330.899994 422.799988 326.799988 422.799988 C 325.200012 422.799988 325.100006 422.599976 325.200012 421.099976 C 325.200012 419.900024 325.299988 418.700012 325.299988 417.5 C 325.299988 417 325.5 416.799988 326 416.799988 C 326.899994 416.799988 327.799988 416.599976 328.600006 416.700012 C 329.399994 416.700012 329.600006 416.400024 329.600006 415.599976 C 329.5 411.200012 329.399994 406.900024 329.299988 402.5 C 329 392 328.899994 381.599976 328.799988 371.099976 C 328.700012 361.200012 328.600006 351.400024 328.5 341.5 C 328.5 340.599976 328.200012 340.400024 327.399994 340.400024 C 325.399994 340.5 323.399994 340.5 321.399994 340.5 C 320.5 340.5 320 340.299988 320.200012 339.099976 C 320.399994 338.100006 320.200012 337 320.100006 336 C 320 335 320.399994 334.600006 321.399994 334.600006 C 323.399994 334.5 325.5 334.5 327.600006 334.5 Z"/>
        <path id="path7" fill="#81b29a" stroke="none" d="M 503 350.200012 C 502.899994 350.5 502.799988 350.700012 502.799988 351 C 503.399994 354.400024 502.600006 357.700012 502.600006 361 C 501.700012 362.5 500.399994 363.599976 499.200012 364.700012 C 497.899994 365.799988 497 367.099976 496.299988 368.599976 C 494.299988 372.900024 491.799988 376.799988 489 380.5 C 488.5 381.200012 487.799988 381.5 486.899994 381.599976 C 484.5 381.700012 482.299988 382.400024 480.299988 383.700012 C 477.799988 385.400024 475.100006 386.900024 473.100006 389.400024 C 472.899994 389.599976 472.700012 389.799988 472.299988 389.900024 C 472 389.799988 471.799988 389.599976 471.700012 389.400024 C 470.399994 387.400024 469 385.5 467.5 383.700012 C 466.700012 382.599976 465.899994 381.5 465 380.5 C 464.700012 380.200012 464.200012 379.900024 464.600006 379.400024 C 465.100006 379.200012 465.5 379.599976 465.799988 379.900024 C 467.100006 380.700012 468.399994 381.5 469.899994 381.900024 C 472.799988 382.799988 475.399994 381.900024 477.700012 380.299988 C 481.200012 377.799988 483.799988 374.400024 485.700012 370.5 C 487 367.900024 488.5 365.400024 489.899994 362.799988 C 491.899994 359 493.399994 355 494 350.700012 C 494 350.5 494.100006 350.299988 494.100006 350.200012 C 491.799988 354.599976 488.600006 358.099976 484.299988 360.700012 C 481.299988 362.5 478.200012 364 474.700012 364.700012 C 473.5 364.900024 472.399994 365.099976 471.200012 365.200012 C 468.100006 365.5 465.799988 363.799988 463.600006 361.900024 C 462.200012 360.700012 460.899994 359.400024 459.600006 358.099976 C 459.100006 357.700012 458.700012 357.299988 458.399994 356.700012 C 456.5 353.799988 453.700012 351.799988 451 349.700012 C 449.799988 348.799988 448.299988 348.400024 446.899994 347.799988 C 446.600006 347.299988 447 347 447.200012 346.799988 C 447.600006 346.400024 447.899994 345.900024 448.200012 345.5 C 449.200012 344.200012 450.200012 343.099976 452.100006 343.299988 C 452.600006 343.400024 453.100006 343.5 453.5 343.799988 C 455.5 345.5 457.600006 347.099976 459.899994 348.5 C 460.100006 348.599976 460.299988 348.799988 460.5 349.099976 C 461.399994 350.599976 462.5 351.900024 464.100006 352.700012 C 464.700012 353 465.299988 353.400024 465.799988 353.900024 C 466.299988 354.400024 466.799988 354.799988 467.5 355 C 467.899994 355.099976 468.200012 355.299988 468.5 355.5 C 471.200012 357.599976 474.399994 357.200012 476 354.200012 C 478 350.5 480.200012 346.900024 481.100006 342.599976 C 481.899994 338.5 483.899994 334.900024 486.399994 331.600006 C 487.299988 330.300018 488.200012 329 489.200012 327.800018 C 489.5 327.700012 489.600006 327.800018 489.700012 328.100006 C 492.799988 331.400024 496.200012 334.600006 498.5 338.600006 C 500.399994 342 501.799988 345.5 502.799988 349.200012 C 502.700012 349.400024 502.700012 349.900024 503 350.200012 Z"/>
        <path id="path8" fill="#c76c54" stroke="none" d="M 495.299988 251.100006 C 498.299988 251.700012 500.5 253.600006 502.399994 255.900024 C 505.5 259.5 508.899994 262.700012 513.299988 264.700012 C 514.400024 265.200012 515.599976 265.800018 516.700012 266.300018 C 517.299988 266.600006 517.599976 266.900024 517.5 267.600006 C 517.099976 271.900024 516.799988 276.300018 515.5 280.5 C 513.5 286.800018 513.099976 293.300018 514 299.900024 C 514 300.100006 514.099976 300.200012 514.099976 300.400024 C 514.099976 300.700012 514.299988 301.100006 514 301.300018 C 513.700012 301.5 513.400024 301.200012 513.099976 301 C 511.899994 300.300018 510.600006 299.700012 509.399994 299 C 509.299988 299 509.299988 299 509.100006 299 C 509.399994 303.900024 510.200012 308.600006 511.600006 313.600006 C 509.100006 311.700012 507.100006 309.700012 504.600006 308 C 503.700012 312.300018 503.899994 316.5 505 320.600006 C 504.600006 320.900024 504.600006 321 504.200012 320.700012 C 503.600006 320.200012 503 319.5 502.399994 318.900024 C 497.799988 313.700012 493.899994 308 490.700012 301.800018 C 490.399994 301.300018 490 301 489.700012 300.600006 C 489.799988 300.100006 490.299988 300.100006 490.700012 299.900024 C 499.5 296.400024 501.899994 285.700012 495.399994 278.800018 C 495 278.400024 494.600006 278.100006 494.700012 277.400024 C 494.899994 270.600006 494.899994 263.800018 495 257 C 495 255.5 495.200012 254 495.200012 252.5 C 494.799988 252.100006 494.799988 251.5 495.299988 251.100006 Z"/>
        <path id="path9" fill="#e07a5f" stroke="none" d="M 350 340.200012 C 350 339.200012 350 338.100006 350 337.100006 C 350 336.300018 350.299988 336.100006 351.100006 336 C 358.799988 335.700012 366.5 335.800018 374.100006 335.800018 C 375.200012 335.800018 376.299988 336 377.399994 335.600006 C 377.5 336.800018 377.200012 338 377.200012 339.299988 C 377.200012 340 376.899994 340.200012 376.200012 340.200012 C 374.799988 340.200012 373.399994 340.200012 372.100006 340.200012 C 371.5 340.200012 371.200012 340.299988 371.200012 341 C 371.100006 350.099976 371 359.299988 370.899994 368.400024 C 370.899994 368.700012 370.899994 369.099976 370.899994 369.400024 C 371.200012 369.700012 371.299988 370.099976 371.200012 370.400024 C 370.399994 372.099976 370.899994 373.799988 370.799988 375.5 C 370.799988 375.599976 370.799988 375.599976 370.799988 375.700012 C 370.700012 388.5 370.600006 401.299988 370.399994 414.099976 C 370.399994 414.5 370.399994 414.900024 370.299988 415.200012 C 370.299988 415.599976 370.5 415.799988 370.899994 415.900024 C 371.600006 416 372.299988 415.599976 372.799988 416.299988 C 373.399994 417 373.200012 417.900024 373.200012 418.700012 C 373.200012 418.900024 373.200012 419.099976 373.200012 419.299988 C 372.799988 419.700012 372.299988 419.700012 371.799988 419.700012 C 367.5 419.599976 363.200012 420 358.899994 419.900024 C 357.600006 419.900024 356.600006 419.900024 356.100006 421.400024 C 355.700012 420.099976 355.899994 418.700012 355.899994 417.400024 C 355.899994 416.700012 356.399994 416.400024 357.100006 416.200012 C 358.200012 415.900024 359.299988 415.700012 360.399994 415.700012 C 361.200012 415.700012 361.5 415.5 361.5 414.599976 C 361.200012 406.5 361 398.400024 361.100006 390.200012 C 361.100006 389.5 360.799988 389.299988 360.200012 389.299988 C 357.200012 389.299988 354.200012 389.299988 351.200012 389.299988 C 351.200012 386.599976 351.200012 383.900024 351.200012 381.200012 C 352 380.599976 352.899994 380.599976 353.799988 380.599976 C 355.600006 380.5 357.5 380.599976 359.299988 380.599976 C 360.600006 380.599976 360.600006 380.5 360.700012 379.200012 C 360.799988 375.599976 360.600006 372.099976 360.5 368.5 C 360.5 368 360.5 367.400024 360.600006 366.900024 C 360.5 364.5 360.600006 362.099976 360.5 359.700012 C 360.5 353.599976 360.100006 347.5 360.299988 341.400024 C 360.299988 340.599976 360 340.400024 359.299988 340.400024 C 356.799988 340.400024 354.299988 340.400024 351.799988 340.400024 C 351.100006 340.700012 350.399994 340.799988 350 340.200012 Z"/>
        <path id="path10" fill="#e07a5f" stroke="none" d="M 467.700012 383.5 C 469.5 385.400024 470.899994 387.5 472.299988 389.700012 C 472.600006 389.900024 472.700012 390.099976 472.5 390.400024 C 471.100006 390.700012 469.700012 390.700012 468.299988 390.599976 C 465.799988 390.299988 463.399994 390.599976 461 390.900024 C 459.899994 391.099976 458.899994 391.5 457.799988 391.900024 C 457.100006 392.200012 456.5 392.200012 455.799988 392.099976 C 452.700012 391.5 449.5 392.099976 446.399994 392.099976 C 444.700012 392.099976 441.5 394.299988 441.100006 396.799988 C 440.700012 398.799988 440.5 400.700012 440.399994 402.700012 C 440.399994 404 440.399994 405.400024 440.399994 406.700012 C 440.399994 407.5 440.100006 408 439.200012 408 C 435 407.400024 430.700012 407.400024 426.600006 405.599976 C 425 404.900024 424.299988 403.799988 424.299988 402.200012 C 424.299988 400.700012 424.200012 399.099976 423.899994 397.599976 C 424 395.400024 423.899994 393.099976 424.399994 390.900024 C 424.5 390.299988 424.399994 389.799988 424.200012 389.299988 C 424.700012 389.299988 425.100006 389.200012 425.200012 388.5 C 426.100006 384.200012 427.600006 380.099976 429.799988 376.400024 C 430 376 430.200012 375.599976 430.299988 375.200012 C 431.700012 373.099976 433.5 371.299988 435.799988 370.099976 C 439.899994 367.799988 444.200012 367.900024 448.399994 369.799988 C 452.899994 371.799988 457.200012 374.200012 461.100006 377.099976 C 463.600006 378.900024 465.600006 381.200012 467.700012 383.5 Z"/>
        <path id="path11" fill="#e07a5f" stroke="none" d="M 454.700012 276.200012 C 454.899994 274.800018 454.5 273.5 454.399994 272.200012 C 454.100006 269.800018 454.399994 267.5 455.700012 265.5 C 460.200012 258.600006 466.299988 253.600006 474.200012 250.899994 C 474.700012 250.700012 475.299988 250.5 475.899994 250.600006 C 476.600006 251.600006 476.399994 252.800018 476.5 253.899994 C 476.899994 260.900024 478.299988 267.700012 480 274.400024 C 480.100006 274.900024 480.299988 275.400024 480.299988 275.900024 C 480.100006 276.600006 479.5 276.800018 479.100006 277.200012 C 476.100006 279.300018 474.200012 282.100006 473.5 285.700012 C 472.600006 290.600006 475 296.100006 479.299988 298.600006 C 479.799988 298.900024 480.299988 299.100006 480.600006 299.5 C 481.200012 301.100006 481.899994 302.700012 482.5 304.400024 C 482.700012 305.200012 482.299988 305.400024 481.600006 305.300018 C 481.299988 305.200012 481 305.100006 480.700012 305 C 479.799988 304.400024 478.799988 304.200012 477.899994 303.700012 C 473.5 301.300018 470.5 297.700012 468.200012 293.300018 C 467.700012 292.400024 467.100006 291.700012 466.299988 291.100006 C 464 289.5 462.100006 287.5 460.799988 285.100006 C 460.700012 284.700012 460.5 284.400024 460.299988 284.100006 C 458.200012 281.200012 456.600006 278.100006 455.299988 274.800018 C 455.200012 275.300018 455.600006 275.900024 454.700012 276.200012 Z"/>
        <path id="path12" fill="#6f9985" stroke="none" d="M 446.700012 347.599976 C 448.600006 347.799988 450.200012 348.599976 451.700012 349.799988 C 453.5 351.200012 455.200012 352.799988 456.899994 354.299988 C 457.799988 355 458.100006 356.200012 458.899994 357 C 461.600006 359.400024 463.899994 362.099976 467.100006 364 C 468.600006 364.900024 470.200012 364.900024 471.799988 364.700012 C 476.799988 364.200012 481.200012 362.299988 485.399994 359.5 C 489 357.099976 491.700012 353.900024 493.799988 350.099976 C 494 349.799988 494.200012 349.400024 494.399994 349.099976 C 494.399994 350.700012 494.299988 352.200012 493.799988 353.700012 C 492.5 358.400024 490.600006 362.799988 487.899994 366.900024 C 486.600006 368.799988 486 371.200012 484.700012 373.099976 C 482.899994 375.700012 481 378.299988 478.399994 380.200012 C 475.399994 382.400024 471.899994 383.5 468.200012 381.5 C 467 380.799988 465.799988 380.099976 464.5 379.400024 C 464 379.5 463.799988 379.099976 463.5 378.799988 C 461.200012 375.900024 458.600006 373.099976 456.5 370 C 454.899994 367.700012 452.600006 366.400024 450.200012 365.099976 C 449.799988 364.900024 449.299988 364.900024 449.100006 364.299988 C 447.899994 362.099976 446 360.400024 444.399994 358.5 C 443.299988 357.299988 442.100006 356.099976 441 355 C 440.5 353.900024 440.5 352.900024 441.299988 352 C 442.399994 350.900024 443.700012 349.900024 444.899994 348.799988 C 445.5 348.5 445.799988 347.599976 446.700012 347.599976 Z"/>
        <path id="path13" fill="#3d405b" stroke="none" d="M 424.100006 397.599976 C 424.600006 399 424.600006 400.400024 424.600006 401.799988 C 424.600006 403.599976 425.100006 404.700012 427 405.5 C 429.799988 406.599976 432.600006 406.900024 435.5 407.299988 C 436.700012 407.400024 437.899994 407.799988 439.100006 407.799988 C 440.200012 408 441.200012 407.599976 442.299988 407.900024 C 442.899994 408.099976 443.5 408.099976 443.600006 408.900024 C 443.399994 411.400024 443.799988 413.900024 443.799988 416.400024 C 443.799988 417 443.899994 417.5 443.600006 418.099976 C 442.200012 418.900024 440.700012 418.700012 439.200012 418.900024 C 433.100006 419.599976 427.100006 419.5 421.100006 418.200012 C 416 417 411.700012 414.400024 409.799988 409.099976 C 409.200012 407.5 408.5 405.900024 407.899994 404.299988 C 407.799988 403.200012 408 402 408.200012 400.900024 C 408.299988 400.5 408.299988 400.099976 408.100006 399.700012 C 408.5 398.099976 409.100006 396.599976 410 395.200012 C 411.899994 392.200012 415.200012 391.5 418.299988 392.799988 C 420.600006 393.799988 422.399994 395.599976 424.100006 397.599976 Z"/>
        <path id="path14" fill="#ffedd8" stroke="none" d="M 480.600006 304.800018 C 481 304.900024 481.299988 305 481.700012 305.200012 C 482.5 305.5 482.299988 305 482.200012 304.600006 C 482.100006 304.300018 482.299988 304.300018 482.5 304.400024 C 482.899994 304.5 483.100006 304.800018 483.399994 305.100006 C 485.299988 307 487.100006 308.800018 489 310.700012 C 489.399994 311.100006 489.799988 311.5 489.799988 312.200012 C 489.600006 313.400024 489.200012 314.5 488.799988 315.600006 C 488.5 316.400024 488 317.100006 487.200012 317.5 C 484.299988 318.800018 481.5 320 478.299988 320.5 C 475.5 320.900024 472.600006 321.200012 469.799988 320.5 C 468.399994 320.200012 467.100006 319.800018 465.799988 319.200012 C 465.299988 318.300018 464.5 317.900024 463.899994 317.100006 C 461.799988 313.900024 460.899994 310.300018 460 306.700012 C 459.299988 303.400024 458.600006 300.100006 458.799988 296.800018 C 458.799988 296.5 458.799988 296.300018 458.600006 296.100006 C 458.399994 295.100006 459.299988 294.400024 459.5 293.5 C 459.700012 293 459.5 292.5 459.899994 292 C 460.5 291.700012 460.799988 292.200012 461.100006 292.5 C 462.299988 293.800018 463.700012 294.900024 465 296.100006 C 465.100006 296.200012 465.200012 296.300018 465.299988 296.300018 C 468.799988 298.400024 471.600006 301.300018 475.299988 303.100006 C 476.899994 303.600006 478.700012 304.200012 480.600006 304.800018 Z"/>
        <path id="path15" fill="#6f9985" stroke="none" d="M 489 327.600006 C 488.5 329 487.399994 330.100006 486.5 331.300018 C 484 334.700012 481.899994 338.300018 481.100006 342.5 C 480.299988 346.799988 478 350.299988 476.100006 354 C 474.600006 356.799988 472.5 357.299988 469.399994 356.5 C 469.299988 356.5 469.100006 356.5 469.100006 356.400024 C 468 355.099976 466 355 465 353.700012 C 464.600006 353.099976 463.899994 352.900024 463.299988 352.599976 C 461.799988 351.700012 460.600006 350.599976 460 349 C 460.5 348.700012 460.899994 349 461.299988 349.200012 C 462.100006 349.599976 462.5 349.400024 462.700012 348.5 C 464 343.700012 466.600006 339.400024 469.399994 335.300018 C 470.399994 333.800018 471.600006 332.5 472.700012 331.200012 C 473.200012 330.600006 474 330.300018 474.5 329.700012 C 474.799988 329.5 475.100006 329.400024 475.399994 329.200012 C 477.100006 327.200012 479.5 326.900024 481.799988 326.600006 C 483.5 326.400024 485.299988 326.5 487.100006 326.600006 C 487.899994 326.600006 488.799988 326.5 489 327.600006 Z"/>
        <path id="path16" fill="#3d405b" stroke="none" d="M 495.299988 251.100006 C 495.100006 257.300018 495.100006 263.5 495 269.700012 C 495 272.100006 494.899994 274.400024 494.799988 276.800018 C 494.799988 277.200012 494.700012 277.5 494.600006 277.800018 C 494.100006 277.900024 493.799988 277.600006 493.5 277.400024 C 490.200012 275.400024 486.799988 274.600006 483 275.600006 C 482.5 275.700012 481.899994 275.900024 481.5 275.400024 C 481.100006 274.700012 481.100006 274 481.100006 273.300018 C 481.200012 268.300018 480.799988 263.400024 480.799988 258.400024 C 480.799988 256.200012 480.600006 254 480.600006 251.800018 C 480.600006 251.200012 480.600006 250.700012 480.899994 250.100006 C 480.899994 249.899994 480.899994 249.800018 480.899994 249.600006 C 480.899994 247 481.600006 246.300018 484.200012 246.300018 C 484.5 246.700012 484.799988 246.899994 485.200012 246.300018 C 487.5 246.200012 489.799988 246.200012 492 246.100006 C 492.299988 246.200012 492.700012 246 492.899994 246.5 C 493.100006 247.399994 493.399994 246.600006 493.700012 246.5 C 495 246.700012 495.200012 247.800018 495.299988 248.800018 C 495.299988 249.600006 495.299988 250.300018 495.299988 251.100006 Z"/>
        <path id="path17" fill="#f4f1de" stroke="none" d="M 370 330.100006 C 370.100006 324.600006 370.100006 319.100006 370.299988 313.700012 C 370.399994 312.100006 370.399994 310.400024 370.399994 308.800018 C 370.399994 300.700012 370.600006 292.600006 370.700012 284.400024 C 370.799988 279.700012 370.600006 275 370.899994 270.400024 C 371.100006 266 370.899994 261.700012 371.100006 257.300018 C 371.299988 253 371.200012 248.600006 371.299988 244.300018 C 371.299988 244 371.200012 243.600006 371.5 243.300018 C 371.299988 246 372.700012 248.300018 373.700012 250.700012 C 375 254.100006 375.799988 257.700012 376.399994 261.400024 C 377.200012 266.800018 377.700012 272.100006 377.899994 277.600006 C 378 280.400024 378.100006 283.200012 378 286 C 377.799988 290.600006 377.600006 295.200012 377.200012 299.800018 C 376.5 306.400024 375.399994 312.900024 373.700012 319.400024 C 373 322.300018 372 325 370.799988 327.800018 C 370.5 328.5 370.299988 329.300018 370 330.100006 Z"/>
        <path id="path18" fill="#9f9e9e" stroke="none" d="M 370.799988 375.900024 C 370.700012 373.799988 370.799988 371.599976 371 369.5 C 372.600006 369.799988 373.600006 370.799988 374.299988 372.099976 C 376.5 376.099976 377.700012 380.299988 377.600006 384.799988 C 377.5 387.200012 377.5 389.599976 377.5 391.900024 C 377.399994 398.200012 377.799988 404.599976 380.100006 410.599976 C 381.399994 413.900024 383.299988 416.700012 386.299988 418.5 C 389.799988 420.700012 391.799988 420.400024 394.100006 416.900024 C 395.5 414.799988 395.899994 412.299988 396.399994 409.799988 C 397.399994 404.799988 397.700012 399.700012 398.5 394.700012 C 399.5 388.599976 399.600006 382.299988 400.100006 376.200012 C 401 365.400024 403.600006 355.200012 408.200012 345.400024 C 411.100006 339.299988 414.100006 333.300018 417.799988 327.600006 C 419.200012 325.5 420.899994 323.800018 423.100006 322.5 C 425.100006 321.400024 427.100006 321 429.100006 322.5 C 429.600006 322.700012 429.799988 323 429.799988 323.5 C 429.700012 324.400024 429.100006 324.400024 428.399994 324.200012 C 427.399994 323.800018 426.5 323.300018 425.399994 323.400024 C 422.899994 324.100006 421.100006 325.800018 419.700012 327.800018 C 417.700012 330.5 416.100006 333.300018 414.600006 336.300018 C 410.200012 344.599976 406.299988 353.099976 403.899994 362.200012 C 402.799988 366.400024 402.399994 370.799988 402 375.099976 C 401 384.700012 400.600006 394.299988 399 403.799988 C 398.399994 407.5 398 411.200012 396.899994 414.799988 C 396.200012 417.099976 394.899994 419.099976 392.899994 420.599976 C 391.700012 421.5 390.399994 421.700012 389 421.400024 C 385.700012 420.700012 383.299988 418.599976 381.299988 416.099976 C 378.299988 412.299988 377.100006 407.799988 376.399994 403.099976 C 375.399994 397.299988 375.700012 391.400024 375.799988 385.5 C 375.899994 381.099976 374.899994 377.099976 372.799988 373.200012 C 372.700012 373.099976 372.700012 373 372.600006 372.900024 C 372.200012 372.299988 371.799988 371.200012 371.100006 371.400024 C 370.5 371.599976 370.899994 372.599976 370.799988 373.299988 C 370.799988 374.200012 371 375 370.799988 375.900024 Z"/>
        <path id="path19" fill="#ffedd8" stroke="none" d="M 446.700012 347.599976 C 446.200012 348.099976 445.600006 348.5 445.100006 349 C 444.600006 349.200012 444.299988 348.799988 444 348.5 C 442.899994 347.599976 441.700012 346.799988 440.299988 346.400024 C 438.5 345.700012 436.799988 344.799988 435.299988 343.700012 C 432.600006 341.799988 429.700012 340.299988 427.5 337.800018 C 426 336.100006 424.600006 334.400024 423.5 332.5 C 423.299988 332.100006 422.899994 331.700012 423.100006 331.100006 C 423.399994 331.100006 423.700012 331.100006 424.200012 331.100006 C 423.600006 330.100006 422.899994 329.200012 423.100006 328 C 423.299988 327.100006 423.5 326.400024 424.299988 326 C 424.700012 325.800018 425 325.600006 425.100006 326.300018 C 425.200012 326.900024 424.5 327 424.299988 327.400024 C 423.700012 329 423.899994 330 425.100006 331 C 426.399994 332.100006 427.700012 333 429.100006 333.800018 C 429.799988 334.200012 430.600006 334.5 431.399994 334.400024 C 432.899994 334.200012 434.200012 333.200012 435.600006 332.600006 C 436 332.400024 435.799988 332.200012 435.700012 331.900024 C 435.5 331.400024 435.200012 331 434.899994 330.5 C 434.5 329.200012 434 328 433.600006 326.700012 C 433.299988 325.800018 433.399994 325 433.899994 324.200012 C 434.5 323.400024 435.200012 323.300018 435.899994 324 C 436.200012 324.300018 436.5 324.600006 436.700012 324.900024 C 440.100006 328.100006 442.399994 331.900024 443.600006 336.400024 C 444 337.900024 444.299988 339.400024 445 340.900024 C 445.399994 341.799988 445.899994 342.700012 446.700012 343.299988 C 447.100006 344.099976 447.799988 344.700012 448 345.599976 C 447.899994 346.400024 447.200012 346.900024 446.700012 347.599976 Z"/>
        <path id="path20" fill="#77a48e" stroke="none" d="M 350 237.800018 C 344.5 238.100006 338.899994 238.100006 333.399994 238.200012 C 334 233.300018 336.799988 230 340.799988 227.600006 C 342.899994 226.300018 345.299988 225.600006 347.700012 225.200012 C 348.100006 224.5 348.5 224.200012 349.299988 224.800018 C 349.899994 225.399994 350.700012 224.899994 351.399994 225.200012 C 352.799988 226 353.100006 226.800018 352.700012 228.399994 C 352.399994 229.600006 351.899994 230.600006 351.5 231.800018 C 351 233.399994 350.600006 235 350.5 236.600006 C 350.5 237 350.5 237.5 350 237.800018 Z"/>
        <path id="path21" fill="#2d2f42" stroke="none" d="M 407.799988 404.200012 C 409 405.5 409.5 407.099976 410 408.700012 C 411.100006 411.799988 413.200012 413.799988 415.899994 415.599976 C 418.700012 417.400024 421.700012 418 424.899994 418.299988 C 426.600006 418.400024 428.299988 418.799988 430 418.900024 C 431.5 419 433 418.599976 434.5 418.700012 C 437.200012 418.799988 439.799988 418.400024 442.5 418.099976 C 442.899994 418.099976 443.299988 418.099976 443.600006 418.099976 C 443.600006 419.299988 443.5 420.400024 443.299988 421.5 C 443.200012 422.200012 442.799988 422.700012 442.100006 422.599976 C 438.899994 422.299988 435.799988 422.799988 432.600006 423 C 429.399994 423.200012 426.299988 422.700012 423.200012 422.5 C 420.899994 422.400024 418.5 422.200012 416.299988 421.400024 C 412.700012 420.200012 410.700012 417.5 409.299988 414.200012 C 407.799988 411.099976 407.600006 407.700012 407.799988 404.200012 Z"/>
        <path id="path22" fill="#e07a5f" stroke="none" d="M 489.5 300.600006 C 490 300.600006 490.299988 300.800018 490.600006 301.300018 C 492.700012 305.300018 495 309.200012 497.700012 312.800018 C 499.700012 315.400024 501.700012 318 504.100006 320.300018 C 504.299988 320.5 504.399994 320.900024 504.799988 320.600006 C 505.700012 322.700012 506.299988 324.900024 507.899994 327 C 502.200012 325.600006 498.600006 322 495.5 317.700012 C 495.200012 317.900024 495.399994 318.200012 495.299988 318.400024 C 494.600006 318.200012 494.299988 317.400024 493.799988 316.900024 C 492.200012 315.100006 491 313.100006 489.799988 311 C 488.399994 308.100006 487 305.200012 485.700012 302.200012 C 485.5 301.800018 485.100006 301.300018 485.600006 300.900024 C 486.799988 300.600006 488.100006 300.100006 489.5 300.600006 Z"/>
        <path id="path23" fill="#cd7057" stroke="none" d="M 449 364.299988 C 451.200012 365.099976 453.100006 366.299988 454.899994 367.799988 C 456.399994 369 457.200012 370.799988 458.399994 372.200012 C 460.399994 374.599976 462.399994 377 464.399994 379.400024 C 465.5 380.799988 466.799988 382 467.700012 383.5 C 467.200012 383.299988 466.899994 382.900024 466.600006 382.5 C 462.799988 378.299988 458.200012 375.099976 453.200012 372.5 C 450.399994 371.099976 447.700012 369.5 444.600006 368.900024 C 443.100006 368.599976 441.600006 368.599976 440 368.900024 C 436.200012 369.700012 433.200012 371.799988 430.899994 374.900024 C 430.799988 375.099976 430.700012 375.5 430.399994 375.200012 C 431.299988 372 433.100006 369.400024 435.5 367.200012 C 439.299988 363.5 444 363 449 364.299988 Z"/>
        <path id="path24" fill="#c76c54" stroke="none" d="M 443.5 408.900024 C 442.600006 407.799988 441.299988 408.299988 440.200012 408 C 439.799988 407.900024 439.399994 408 439 407.799988 C 439.799988 407.900024 440 407.400024 440 406.700012 C 440 403.799988 440 400.900024 440.399994 398 C 440.799988 395.700012 441.700012 394 443.799988 392.799988 C 445.200012 392 446.600006 391.599976 448.100006 391.700012 C 449.5 391.799988 451 391.700012 452.399994 391.5 C 454.200012 391.299988 455.899994 392 457.700012 392 C 456.600006 392.900024 455.399994 393.700012 454.399994 394.700012 C 452.399994 396.799988 451.600006 399.400024 450.700012 402 C 450.399994 402.900024 450.100006 403.099976 449.299988 402.599976 C 448.399994 402 447.5 401.400024 447 400.400024 C 446.399994 399.200012 445.299988 398.400024 444.700012 397.099976 C 443.600006 399 443.700012 404.799988 444.899994 408.599976 C 444.600006 409 444 408.799988 443.5 408.900024 Z"/>
        <path id="path25" fill="#81b29a" stroke="none" d="M 350 237.800018 C 350.5 236.700012 350.200012 235.5 350.399994 234.399994 C 350.799988 232.800018 351.200012 231.200012 351.899994 229.600006 C 352.600006 228 352.899994 226.5 351.399994 225.100006 C 351.600006 225.100006 351.899994 225.100006 352.100006 225.100006 C 352.899994 225.300018 353.700012 225.399994 354.399994 225.600006 C 359.700012 227 363.5 230.100006 365.200012 235.5 C 365.399994 236.200012 365.5 236.800018 365.100006 237.399994 C 364.5 237.600006 364 237.600006 363.399994 237.600006 C 359.399994 237.600006 355.399994 237.600006 351.399994 237.899994 C 350.899994 237.800018 350.399994 237.800018 350 237.800018 Z"/>
        <path id="path26" fill="#5b7d6c" stroke="none" d="M 448.299988 345.599976 C 447.5 345.099976 447.100006 344.299988 446.899994 343.5 C 446.399994 342.900024 446.899994 342.599976 447.299988 342.299988 C 447.899994 341.799988 448.899994 341.799988 449.200012 341.099976 C 449.5 340.400024 448.600006 339.799988 448.299988 339.099976 C 448.200012 338.800018 448.200012 338.600006 448.399994 338.400024 C 449.399994 337.800018 451.399994 337.900024 452.299988 338.700012 C 454.100006 340.400024 456.100006 341.900024 457.5 343.900024 C 458.100006 344.799988 458.700012 344.700012 459.299988 344 C 460.899994 342.5 462.200012 340.700012 463.399994 338.900024 C 465.100006 336.400024 466.899994 334.100006 469.399994 332.300018 C 471 331.100006 472.799988 330.200012 474.700012 329.600006 C 474.899994 329.900024 474.600006 330 474.5 330.100006 C 471.399994 332.700012 469.299988 336 467.299988 339.400024 C 465.5 342.400024 463.899994 345.599976 463.100006 349 C 462.899994 349.799988 462.600006 349.900024 461.899994 349.599976 C 461.299988 349.299988 460.799988 349.099976 460.200012 348.900024 C 457.899994 347.299988 455.5 345.700012 453.299988 343.799988 C 452.5 343.099976 450.700012 343.200012 449.899994 343.900024 C 449.200012 344.5 448.600006 345 448.299988 345.599976 Z"/>
        <path id="path27" fill="#e6d6c3" stroke="none" d="M 423.200012 331 C 425.299988 335.200012 428.299988 338.700012 432.299988 341.200012 C 435.200012 343 437.899994 345.200012 441.200012 346.299988 C 442.700012 346.799988 443.899994 347.900024 445.100006 348.900024 C 443.899994 349.900024 442.799988 350.900024 441.600006 351.900024 C 441.5 352 441.399994 352 441.299988 351.900024 C 440.899994 350.799988 439.799988 350.299988 439.299988 349.299988 C 438.399994 348.099976 437 347.799988 435.700012 347.700012 C 431.799988 347.5 428.700012 345.900024 426.200012 343.099976 C 424.299988 340.900024 422.399994 338.700012 421.700012 335.700012 C 421.399994 334.300018 421.899994 333 422.100006 331.700012 C 422.200012 331.5 422.600006 331.100006 423.200012 331 Z"/>
        <path id="path28" fill="#28293b" stroke="none" d="M 424.100006 397.599976 C 423.5 397.5 423.299988 397.099976 422.899994 396.700012 C 421.700012 395.5 420.399994 394.299988 418.899994 393.5 C 414.600006 391.200012 410.799988 392.900024 409.100006 397.200012 C 408.799988 398 408.799988 399.099976 407.899994 399.700012 C 406 395.700012 407.5 389.700012 410.899994 387 C 412.5 385.799988 414.299988 385.599976 416.100006 386 C 417.700012 386.400024 419.299988 387 420.700012 388 C 421.700012 388.700012 422.799988 389.200012 424.100006 389.400024 C 424.799988 389.599976 425 389.799988 424.799988 390.599976 C 424.100006 392.5 424.399994 394.5 424.200012 396.5 C 424.100006 396.799988 424.100006 397.200012 424.100006 397.599976 Z"/>
        <path id="path29" fill="#bbbbbb" stroke="none" d="M 354.399994 225.600006 C 353.600006 225.399994 352.700012 226.200012 352.100006 225.100006 C 352.100006 223.600006 352.799988 222.300018 353.299988 220.899994 C 358.600006 206.399994 364 191.899994 369.5 177.5 C 369.5 177.399994 369.600006 177.300018 369.700012 177.200012 C 370.5 177.200012 371.100006 177.600006 371.5 178.100006 C 368.899994 185.100006 366.399994 192.100006 363.799988 199 C 360.700012 207.300018 357.600006 215.5 354.399994 223.700012 C 354.299988 224 354.200012 224.300018 354 224.5 C 353.600006 225.200012 354 225.399994 354.399994 225.600006 Z"/>
        <path id="path30" fill="#c76c54" stroke="none" d="M 480.899994 250.100006 C 481 254.600006 481.100006 259.100006 481.200012 263.600006 C 481.299988 267.600006 481.5 271.5 481.600006 275.5 C 481.200012 276 480.700012 276.400024 480 276.200012 C 478.5 270.900024 477.399994 265.5 476.600006 260 C 476.200012 256.900024 475.899994 253.800018 475.899994 250.700012 C 477.100006 250.100006 478.5 250.300018 479.799988 250.200012 C 480.100006 250.100006 480.5 250.100006 480.899994 250.100006 Z"/>
        <path id="path31" fill="#cd7057" stroke="none" d="M 465.799988 319 C 466.100006 318.900024 466.399994 318.800018 466.700012 318.900024 C 470 320.400024 473.399994 320.5 476.899994 320 C 477.399994 319.900024 477.899994 319.800018 478.399994 319.900024 C 479 320.400024 478.799988 321.100006 478.799988 321.700012 C 478.600006 323.600006 477.799988 325.400024 476.799988 327 C 476.600006 327.300018 476.299988 327.600006 475.899994 327.600006 C 472.299988 329.600006 469.200012 327.900024 466.200012 326 C 465.700012 325.700012 465.799988 325.400024 466.299988 325.200012 C 467.200012 324.600006 468.100006 324 469 323.100006 C 466.5 323.300018 464.5 322.200012 462.399994 320.900024 C 463.799988 320.600006 464.799988 319.900024 465.799988 319 Z"/>
        <path id="path32" fill="#e5d5c2" stroke="none" d="M 475.899994 327.800018 C 477.600006 325.5 478.700012 323 478.399994 320 C 481.299988 319.400024 483.899994 318.300018 486.600006 317.200012 C 487.5 316.900024 488.100006 316.200012 488.5 315.300018 C 489 315.900024 488.700012 316.5 488.600006 317.200012 C 488.399994 319.100006 488.399994 320.900024 488.600006 322.800018 C 488.700012 323.600006 488.899994 324.300018 489.5 324.800018 C 488.899994 325.800018 489.700012 326.800018 489.5 327.800018 C 489.399994 327.700012 489.200012 327.600006 489.100006 327.600006 C 488.600006 327.100006 487.899994 326.900024 487.200012 326.900024 C 483.100006 326.700012 479.100006 326.800018 475.5 329.200012 C 475.600006 328.700012 475.700012 328.300018 475.899994 327.800018 Z"/>
        <path id="path33" fill="#e5d5c2" stroke="none" d="M 448.299988 338.400024 C 448.600006 339.5 449.399994 340.299988 449.899994 341.299988 C 449.200012 341.799988 448.399994 342.099976 447.700012 342.400024 C 447.200012 342.599976 446.700012 342.799988 446.899994 343.5 C 445.700012 343.099976 445.399994 342 445 341.099976 C 444.399994 339.700012 444 338.200012 443.600006 336.700012 C 442.799988 332.900024 440.799988 329.600006 438.299988 326.700012 C 437.799988 326.200012 437.5 325.5 436.799988 325.300018 C 436.799988 324.200012 436.299988 323.300018 436.299988 322.200012 C 436.299988 322.100006 436.299988 322 436.299988 321.900024 C 436.399994 321.400024 436.399994 320.900024 436.600006 320.5 C 438.200012 320.100006 439.100006 321.300018 439.899994 322.300018 C 440.399994 322.900024 440.899994 323.5 441.600006 323.800018 C 442.799988 324.400024 443.299988 325.300018 443.600006 326.5 C 444.5 330.5 446.200012 334.200012 448 337.900024 C 448 338.100006 448.100006 338.200012 448.299988 338.400024 Z"/>
        <path id="path34" fill="#cd7057" stroke="none" d="M 489.5 324.800018 C 488.600006 324.900024 488.399994 324.400024 488.299988 323.600006 C 487.899994 320.800018 488 318 488.5 315.300018 C 488.799988 314.100006 489 313 489.5 311.900024 C 489.700012 311.600006 489.399994 311.100006 489.899994 310.900024 C 491.5 313.5 493.399994 315.800018 495.200012 318.300018 C 495.5 319.800018 495.799988 321.300018 496.600006 322.700012 C 497.299988 324 498.100006 325 499.299988 326 C 496 325.800018 492.799988 324.5 489.5 324.800018 Z"/>
        <path id="path35" fill="#bbbbbb" stroke="none" d="M 349.299988 224.700012 C 348.700012 224.600006 348.200012 224.700012 347.700012 225.100006 C 347.700012 224.600006 347.5 224.100006 347.299988 223.700012 C 342.100006 209.200012 337 194.800018 331.799988 180.300018 C 331.700012 179.899994 331.600006 179.5 331.5 179.100006 C 331.799988 178.399994 332.399994 178.300018 333.100006 178.399994 C 337.600006 191.200012 342 203.899994 346.5 216.700012 C 347.399994 219.300018 348.5 221.899994 349.299988 224.700012 Z"/>
        <path id="path36" fill="#bbbaba" stroke="none" d="M 436.5 322 C 436.799988 322.900024 436.700012 323.800018 437.100006 324.600006 C 437.299988 324.900024 437.200012 325.200012 436.700012 325.200012 C 436.5 324.600006 435.899994 324.400024 435.5 323.900024 C 435.100006 323.400024 434.600006 323.800018 434.299988 324.300018 C 433.799988 325 433.899994 325.800018 434.100006 326.600006 C 434.5 327.900024 435.200012 329.100006 435.299988 330.5 C 435.399994 331.100006 434.899994 331.300018 434.600006 331.5 C 433.899994 331.900024 433.200012 332.300018 432.399994 332.300018 C 430.899994 332.100006 429.700012 331.200012 428.5 330.5 C 427.200012 329.800018 426.100006 328.700012 424.899994 327.900024 C 424.600006 327.700012 424.299988 327.400024 424.299988 327 C 424.600006 326.700012 424.899994 326.400024 425.299988 326.100006 C 425.5 326 425.600006 325.900024 425.799988 325.900024 C 426.5 324.900024 427.700012 324.600006 428.5 323.900024 C 429 324.100006 429.700012 324.400024 429.700012 323.400024 C 430.399994 322.700012 431.200012 322 432.200012 321.800018 C 432.799988 321.400024 433.299988 321.100006 433.899994 320.700012 C 434.700012 320.100006 435.600006 319.900024 436.600006 320.400024 C 437 320.900024 436.600006 321.300018 436.600006 321.800018 C 436.200012 321.900024 435.700012 321.200012 435.299988 321.800018 C 435 322.300018 435.5 322.600006 436 322.200012 C 436.100006 322.200012 436.200012 322 436.5 322 Z"/>
        <path id="path37" fill="#cd7057" stroke="none" d="M 460 291.700012 C 459.899994 292.200012 459.899994 292.700012 459.799988 293.200012 C 459.200012 292.800018 459 292.300018 458.799988 291.700012 C 458.200012 290.300018 457.600006 288.900024 456.799988 287.600006 C 454.899994 284 454.200012 280.300018 454.600006 276.300018 C 455 275.800018 454.700012 275.300018 454.899994 274.700012 C 455.299988 275.100006 455.5 275.600006 455.700012 276.100006 C 456.899994 279 458.5 281.800018 460.299988 284.300018 C 460.5 284.5 460.799988 284.800018 460.5 285.100006 C 460.799988 286.700012 460.299988 288.300018 460.200012 289.900024 C 460.399994 290.400024 460.5 291.100006 460 291.700012 Z"/>
        <path id="path38" fill="#c56b53" stroke="none" d="M 356.200012 421.5 C 356.299988 419.599976 356.299988 419.599976 358.100006 419.599976 C 363.100006 419.599976 368.200012 419.200012 373.200012 419.400024 C 373.200012 419.599976 373.200012 419.799988 373.200012 420 C 373.100006 421.900024 373.100006 421.900024 371.200012 422 C 367.100006 422.200012 363 422.5 358.799988 422.400024 C 358.200012 422.400024 357.5 422.299988 356.899994 422.200012 C 356.5 422.200012 356.200012 422 356.200012 421.5 Z"/>
        <path id="path39" fill="#81b29a" stroke="none" d="M 333.100006 178.399994 C 332.600006 178.600006 332 178.899994 331.5 179.100006 C 329.600006 179.200012 328.200012 178.5 327.5 176.700012 C 326.899994 175.100006 327.5 173.200012 328.899994 172.399994 C 330.399994 171.5 332.600006 171.800018 333.600006 173.100006 C 334.799988 174.600006 334.799988 176.5 333.600006 177.800018 C 333.5 178 333.299988 178.200012 333.100006 178.399994 Z"/>
        <path id="path40" fill="#3e415b" stroke="none" d="M 458.899994 291.700012 C 459.399994 292.100006 459.700012 292.600006 459.899994 293.200012 C 459.700012 294.200012 459 294.900024 458.700012 295.800018 C 457 299 455 302.100006 454.5 305.700012 C 454.299988 306.800018 454.600006 307.700012 454.899994 308.700012 C 455 309 455.100006 309.200012 455.5 309.100006 C 455.200012 309.800018 454.600006 310.300018 454 310.700012 C 453.899994 310.100006 453.399994 310 453.100006 309.600006 C 452.200012 308.200012 452.100006 306.800018 452.5 305.300018 C 453.899994 300.600006 456.200012 296.200012 458.600006 292 C 458.600006 291.900024 458.700012 291.800018 458.899994 291.700012 Z"/>
        <path id="path41" fill="#28293b" stroke="none" d="M 453.799988 310.800018 C 454 310 454.600006 309.5 455.299988 309.200012 C 456.799988 308.400024 458.5 308.700012 459.5 310 C 460.5 311.300018 460.5 313.200012 459.399994 314.400024 C 458.299988 315.700012 456.399994 315.900024 455 315.100006 C 453.700012 314.200012 453.200012 312.5 453.799988 310.800018 Z"/>
        <path id="path42" fill="#81b29a" stroke="none" d="M 371.399994 178.200012 C 370.700012 178 370.100006 177.700012 369.600006 177.300018 C 368.200012 175.300018 368.399994 173.300018 370 172.100006 C 371.200012 171.200012 372.799988 171.200012 374 172 C 375.200012 172.800018 375.700012 174.399994 375.299988 175.800018 C 374.899994 177.200012 373.700012 178.200012 372.200012 178.200012 C 371.899994 178.200012 371.600006 178.200012 371.399994 178.200012 Z"/>
        <path id="path43" fill="#5d7f6e" stroke="none" d="M 439.299988 349.5 C 440.299988 350.099976 441.299988 350.700012 441.399994 352 C 440.799988 352.599976 440.100006 353.099976 439.299988 353.400024 C 438.299988 351.599976 438.299988 350.5 439.299988 349.5 Z"/>
        <path id="path44" fill="#e6d5c3" stroke="none" d="M 432.200012 321.900024 C 431.399994 322.5 430.600006 323.100006 429.700012 323.5 C 429.5 323.200012 429.399994 322.900024 429.200012 322.600006 C 429.5 322.300018 429.399994 322 429.399994 321.600006 C 429.399994 321.200012 429.399994 320.700012 429.899994 320.5 C 430.399994 320.300018 430.899994 320.5 431.299988 320.900024 C 431.600006 321.200012 431.700012 321.600006 432.200012 321.900024 Z"/>
        <path id="path45" fill="#fcebd7" stroke="none" d="M 428.5 323.900024 C 428 325.100006 426.700012 325.300018 425.799988 325.900024 C 425.600006 325.100006 426.100006 324.200012 425.600006 323.300018 C 426.600006 322.900024 427.5 323.400024 428.5 323.900024 Z"/>
        <path id="path46" fill="#80b19a" stroke="none" d="M 439.299988 353.299988 C 439.700012 352.400024 440.700012 352.299988 441.399994 351.900024 C 441.5 351.900024 441.5 351.900024 441.600006 351.900024 C 440.600006 352.700012 441 353.900024 440.899994 354.900024 C 440.200012 354.599976 439.799988 354 439.299988 353.299988 Z"/>
        <path id="path47" fill="#f0ca90" stroke="none" d="M 493.600006 246.5 C 493.600006 246.600006 493.600006 246.600006 493.5 246.700012 C 493.299988 247.100006 493.600006 247.800018 493 247.800018 C 492.5 247.800018 492.600006 247.200012 492.600006 246.800018 C 492.600006 246.300018 492.200012 246.300018 492 246.100006 C 492.100006 246.100006 492.299988 246.100006 492.299988 246 C 493.299988 244.600006 493.399994 245.899994 493.600006 246.5 Z"/>
        <path id="path48" fill="#e5c18c" stroke="none" d="M 485.200012 246.300018 C 485.100006 246.700012 485.5 247.5 484.899994 247.5 C 484.200012 247.5 484.5 246.700012 484.299988 246.200012 C 484.5 245.800018 484.799988 245.5 485.200012 246.300018 Z"/>
        <path id="path49" fill="#6f9985" stroke="none" d="M 472.5 390.400024 C 472.399994 390.200012 472.299988 389.900024 472.299988 389.700012 C 474.799988 386.5 478.200012 384.5 481.700012 382.5 C 483.299988 381.599976 485 381.299988 486.799988 381.200012 C 487.600006 381.200012 488.299988 380.900024 488.799988 380.200012 C 491.600006 376.299988 494.299988 372.299988 496.299988 367.900024 C 496.899994 366.5 498 365.299988 499.200012 364.299988 C 500.5 363.299988 501.600006 362.099976 502.799988 360.900024 C 503 363.400024 502.299988 365.299988 500.299988 367 C 496.600006 370 495.299988 374.299988 494.399994 378.799988 C 494 380.900024 493.100006 382.799988 491.100006 384 C 490.399994 384.400024 489.700012 384.700012 488.899994 384.599976 C 486 384.299988 483.799988 385.5 481.799988 387.400024 C 480.799988 388.400024 479.600006 389 478.299988 389.200012 C 476.299988 389.700012 474.5 390.400024 472.5 390.400024 Z"/>
        <path id="path50" fill="#3d405b" stroke="none" d="M 352 367.200012 C 354.899994 367.200012 357.799988 367.200012 360.799988 367.200012 C 361 371.599976 361 376.099976 361 380.5 C 361 381.400024 360.5 381.299988 359.899994 381.299988 C 357 381.400024 354 381.200012 351.100006 381.5 C 347.600006 381.5 344 381.5 340.5 381.599976 C 339.5 381.599976 339.299988 381.299988 339.299988 380.400024 C 339.399994 376.5 339.399994 372.700012 339.299988 368.799988 C 339.299988 367.700012 339.600006 367.5 340.600006 367.5 C 344 367.5 347.399994 367.5 350.799988 367.5 C 351.299988 367.400024 351.700012 367.5 352 367.200012 Z"/>
        <path id="path51" fill="#28293b" stroke="none" d="M 480 276.200012 C 480.5 276 481 275.800018 481.600006 275.5 C 483 275.400024 484.200012 274.800018 485.600006 274.800018 C 488.899994 274.800018 491.899994 275.700012 494.5 277.800018 C 498.299988 281.200012 499.899994 285.5 498.799988 290.5 C 497.700012 295.5 494.600006 298.800018 489.700012 300.400024 C 489.600006 300.400024 489.5 300.5 489.399994 300.600006 C 488 300.800018 486.700012 300.900024 485.299988 301.100006 C 483.399994 301.400024 481.700012 300.900024 480.200012 299.700012 C 475.600006 297.200012 473 293.400024 472.899994 288.200012 C 472.799988 283.400024 474.899994 279.600006 478.899994 276.900024 C 479.299988 276.700012 479.700012 276.400024 480 276.200012 Z"/>
        <path id="path52" fill="#e6d6c3" stroke="none" d="M 460 291.700012 C 460 289.5 460.100006 287.200012 460.700012 285.100006 C 462.5 287.600006 464.399994 289.900024 467.100006 291.5 C 467.600006 291.800018 467.799988 292.300018 468 292.800018 C 470.299988 297.300018 473.399994 301.100006 477.899994 303.5 C 478.799988 304 479.700012 304.400024 480.600006 304.800018 C 478.100006 304.5 475.799988 303.600006 473.600006 302.400024 C 471.700012 301.400024 470.200012 299.700012 468.399994 298.700012 C 465.200012 296.700012 462.700012 294.100006 460 291.700012 Z"/>
        <path id="path53" fill="#e6d6c3" stroke="none" d="M 480.200012 299.700012 C 481.799988 300.400024 483.600006 300.700012 485.299988 301.100006 C 486.799988 304.400024 488.399994 307.700012 489.899994 311 C 489.799988 311.300018 489.600006 311.700012 489.5 312 C 489.5 311.600006 489.200012 311.400024 489 311.100006 C 486.899994 309 484.799988 306.900024 482.600006 304.700012 C 482.5 304.600006 482.299988 304.300018 482.100006 304.5 C 481.299988 303 480.799988 301.400024 480.200012 299.700012 Z"/>
        <path id="path54" fill="#f2cc8f" stroke="none" d="M 432.600006 414.299988 C 432.799988 411.599976 434.5 410.400024 437.200012 410.299988 C 439 410.200012 440.600006 412.299988 440.600006 414.400024 C 440.600006 416.599976 438.799988 418.400024 436.600006 418.400024 C 434.399994 418.400024 432.600006 416.599976 432.600006 414.299988 Z"/>
        <path id="path55" fill="#e7c48c" stroke="none" d="M 492.899994 266.400024 C 492.899994 266.100006 492.899994 265.900024 492.899994 265.600006 C 493 265.200012 492.799988 264.600006 493.399994 264.600006 C 493.799988 264.600006 493.799988 265.200012 493.799988 265.5 C 493.799988 266.200012 493.899994 266.900024 493.700012 267.5 C 493.600006 267.700012 493.600006 268 493.299988 268 C 492.899994 268 492.899994 267.700012 492.899994 267.400024 C 492.899994 267.200012 492.899994 266.800018 492.899994 266.400024 C 492.899994 266.400024 492.899994 266.400024 492.899994 266.400024 Z"/>
        <path id="path56" fill="#eac68d" stroke="none" d="M 484.600006 254.5 C 485.200012 255.600006 485.200012 256.600006 485.100006 257.600006 C 485.100006 257.900024 485 258.200012 484.700012 258.200012 C 484.399994 258.200012 484.299988 257.900024 484.200012 257.600006 C 484.100006 256.600006 484 255.600006 484.600006 254.5 Z"/>
        <path id="path57" fill="#e9c58c" stroke="none" d="M 493.100006 254.5 C 493.799988 255.5 493.700012 256.5 493.600006 257.5 C 493.600006 257.700012 493.5 257.900024 493.200012 257.900024 C 492.899994 257.900024 492.799988 257.700012 492.799988 257.5 C 492.600006 256.5 492.5 255.5 493.100006 254.5 Z"/>
        <path id="path58" fill="#e3c08b" stroke="none" d="M 493.399994 259.600006 C 494 260.600006 494 261.5 493.799988 262.300018 C 493.700012 262.5 493.700012 262.800018 493.399994 262.800018 C 493.100006 262.800018 493 262.5 493 262.300018 C 492.799988 261.400024 492.799988 260.600006 493.399994 259.600006 Z"/>
        <path id="path59" fill="#debc89" stroke="none" d="M 492.700012 251.399994 C 492.799988 250.899994 492.5 250.100006 493.100006 250.100006 C 493.899994 250.100006 493.600006 251 493.600006 251.5 C 493.600006 252 493.700012 252.899994 493.100006 252.899994 C 492.5 252.800018 492.799988 251.899994 492.700012 251.399994 Z"/>
        <path id="path60" fill="#e4c18b" stroke="none" d="M 484.5 271.200012 C 485 272 485 272.700012 484.799988 273.5 C 484.700012 273.700012 484.600006 274 484.399994 273.900024 C 484.100006 273.900024 484 273.700012 484 273.400024 C 483.799988 272.700012 483.799988 271.900024 484.5 271.200012 Z"/>
        <path id="path61" fill="#ddbc89" stroke="none" d="M 485.200012 250.600006 C 485.100006 251.100006 485.299988 251.800018 484.700012 251.800018 C 484.200012 251.800018 484.200012 251 484.200012 250.600006 C 484.200012 250.100006 484.200012 249.200012 484.600006 249.200012 C 485.399994 249.300018 485 250.100006 485.200012 250.600006 Z"/>
        <path id="path62" fill="#d4b687" stroke="none" d="M 484.600006 260.400024 C 485 261.400024 485.100006 262.100006 485 262.900024 C 485 263.100006 484.899994 263.5 484.600006 263.5 C 484.299988 263.5 484.200012 263.200012 484.200012 262.900024 C 484.100006 262.200012 484.299988 261.400024 484.600006 260.400024 Z"/>
        <path id="path63" fill="#e7c48c" stroke="none" d="M 484.5 266.100006 C 485.100006 267.100006 484.899994 267.900024 484.799988 268.800018 C 484.799988 269 484.700012 269.300018 484.399994 269.300018 C 484.200012 269.300018 484.100006 269.100006 484.100006 268.900024 C 484.100006 267.900024 484 267.100006 484.5 266.100006 Z"/>
        <path id="path64" fill="#ddbb89" stroke="none" d="M 493.200012 270.300018 C 493.700012 270.900024 493.600006 271.400024 493.600006 272 C 493.600006 272.300018 493.5 272.600006 493.200012 272.600006 C 492.799988 272.600006 492.700012 272.300018 492.700012 272 C 492.700012 271.400024 492.799988 270.900024 493.200012 270.300018 Z"/>
        <path id="path65" fill="#ffffff" stroke="none" d="M 374.399994 304.800018 C 373.600006 303.300018 373.899994 301.900024 373.799988 300.5 C 373.5 297.200012 373.399994 293.900024 373.299988 290.5 C 373.100006 284.600006 373 278.600006 373 272.700012 C 373 271.600006 372.700012 270.600006 372.799988 269.5 C 372.799988 269.200012 372.899994 268.800018 372.899994 268.5 C 373 267.900024 373.299988 267.200012 374 267.200012 C 374.700012 267.200012 375.100006 267.700012 375.299988 268.400024 C 375.899994 270 375.899994 271.700012 376.100006 273.400024 C 376.299988 275.900024 376.399994 278.400024 376.399994 280.900024 C 376.399994 282.100006 376.600006 283.300018 376.600006 284.600006 C 376.399994 290.900024 375.899994 297.200012 374.700012 303.5 C 374.700012 303.900024 374.600006 304.200012 374.399994 304.800018 Z"/>
        <path id="path66" fill="#9f9e9e" stroke="none" d="M 424.299988 327.100006 C 426.600006 328.700012 428.700012 330.400024 431.100006 331.700012 C 431.5 331.900024 431.899994 332 432.299988 332.200012 C 432.899994 333.300018 432.299988 334 431.600006 334.700012 C 429.700012 334.900024 428.5 333.600006 427.100006 332.800018 C 426.299988 332.300018 425.5 331.600006 424.700012 331 C 423.799988 330.200012 423.399994 328.5 423.799988 327.400024 C 424 327.200012 424.200012 327.200012 424.299988 327.100006 Z"/>
        <path id="path67" fill="#8c8c8b" stroke="none" d="M 431.700012 334.700012 C 431.899994 333.900024 432.600006 333.200012 432.399994 332.200012 C 433.399994 331.700012 434.600006 331.5 435.399994 330.600006 C 436 331 436.100006 331.600006 436.299988 332.100006 C 436.399994 332.300018 436.5 332.600006 436.100006 332.800018 C 434.700012 333.400024 433.399994 334.5 431.700012 334.700012 Z"/>
        <path id="path68" fill="#4e4c4c" stroke="none" d="M 436.5 322 C 436.299988 322.300018 436.299988 322.900024 435.799988 322.900024 C 435.399994 323 435 322.800018 434.799988 322.5 C 434.5 322.100006 434.700012 321.700012 435 321.400024 C 435.299988 321.100006 435.700012 321 436 321.200012 C 436.200012 321.300018 436.299988 321.600006 436.5 321.800018 C 436.5 321.900024 436.5 322 436.5 322 Z"/>
        <path id="path69" fill="#4c4b4b" stroke="none" d="M 432.899994 327.100006 C 432.899994 327.200012 432.899994 327.300018 432.899994 327.300018 C 431.600006 328.100006 432.5 328.700012 433 329.300018 C 433.200012 329.5 433.5 329.900024 433 330.100006 C 432.600006 330.300018 432.200012 331 431.600006 330.5 C 431.299988 330.300018 431.100006 330 430.799988 329.700012 C 430.600006 329.5 430.299988 329.300018 430 329.600006 C 429.200012 330.400024 428.799988 329.800018 428.399994 329.300018 C 428.100006 329 427.899994 328.700012 428.399994 328.400024 C 429 328.100006 428.899994 327.800018 428.399994 327.400024 C 428.100006 327.100006 427.5 326.700012 428.200012 326.200012 C 428.700012 325.800018 429.299988 325.300018 429.899994 326.100006 C 430.299988 326.700012 430.700012 326.900024 431.399994 326.300018 C 432 325.800018 432.899994 326.400024 432.899994 327.100006 Z"/>
        <path id="path70" fill="#555353" stroke="none" d="M 431.299988 324.5 C 431.100006 324.5 430.899994 324.400024 430.899994 324.200012 C 430.799988 323.900024 432 322.800018 432.5 322.800018 C 432.700012 322.800018 432.899994 322.900024 432.899994 323.100006 C 433 323.300018 431.700012 324.5 431.299988 324.5 Z"/>
        <path id="path71" fill="#f2cc8f" stroke="none" d="M 495.100006 288 C 495.100006 293.200012 491.299988 297.200012 486.399994 297.200012 C 481.399994 297.200012 477.100006 292.900024 477.100006 287.700012 C 477.100006 282.600006 481 278.600006 485.899994 278.600006 C 491 278.600006 495.100006 282.800018 495.100006 288 Z"/>
        <path id="path72" fill="#43435c" stroke="none" d="M 486.399994 293.100006 C 486.899994 293.100006 487.5 293.100006 488 293.100006 C 488.399994 293.100006 488.700012 293.400024 488.700012 293.800018 C 488.700012 294.300018 488.399994 294.600006 487.899994 294.600006 C 486.799988 294.700012 485.600006 294.700012 484.5 294.600006 C 484.100006 294.5 483.799988 294.300018 483.799988 293.800018 C 483.799988 293.400024 484.100006 293.200012 484.5 293.100006 C 485.100006 293.100006 485.799988 293.100006 486.399994 293.100006 C 486.399994 293.100006 486.399994 293.100006 486.399994 293.100006 Z"/>
    </g>
</svg>
