<?xml version="1.0" encoding="UTF-8"?>
<!-- Generated by Pixelmator Pro 3.3.5 -->
<svg width="1000" height="1000" viewBox="0 0 1000 1000" xmlns="http://www.w3.org/2000/svg">
    <g id="compass-151722">
        <g id="Agrupar">
            <linearGradient id="linearGradient1" x1="541.01081" y1="119.993291" x2="480.364272" y2="61.934744" gradientUnits="userSpaceOnUse">
                <stop offset="1e-05" stop-color="#000000" stop-opacity="0.43299"/>
                <stop offset="1" stop-color="#ffffff" stop-opacity="1"/>
            </linearGradient>
            <path id="path6" fill="none" stroke="url(#linearGradient1)" stroke-width="3.591194" d="M 494.122803 61.207275 C 472.876465 69.254211 466.266876 89.174988 479.470123 105.548462 C 492.597992 121.82843 520.198059 128.227234 541.010803 119.993286 C 561.634216 111.834167 567.973328 92.293091 555.274353 76.198425 C 542.503601 60.012817 515.173889 53.234253 494.122803 61.207275 Z"/>
            <linearGradient id="linearGradient2" x1="531.300247" y1="136.4035" x2="574.852341" y2="86.588243" gradientUnits="userSpaceOnUse">
                <stop offset="1e-05" stop-color="#45818e" stop-opacity="1"/>
                <stop offset="1" stop-color="#a2c4c9" stop-opacity="1"/>
            </linearGradient>
            <path id="path7" fill="none" stroke="url(#linearGradient2)" stroke-width="3.429618" d="M 539.712952 66.61853 C 559.187378 77.685913 565.175537 97.656677 553.181152 111.375977 C 541.122742 125.168335 515.330139 127.589783 495.474731 116.631714 C 475.445679 105.57782 469.216766 85.219971 481.660034 71.3172 C 494.036285 57.489502 520.069641 55.4552 539.712952 66.61853 Z"/>
            <linearGradient id="linearGradient3" x1="547.881528" y1="150.596127" x2="493.187045" y2="147.371516" gradientUnits="userSpaceOnUse">
                <stop offset="1e-05" stop-color="#76a5af" stop-opacity="1"/>
                <stop offset="1" stop-color="#a2c4c9" stop-opacity="1"/>
            </linearGradient>
            <path id="path8" fill="url(#linearGradient3)" fill-rule="evenodd" stroke="#797b7a" stroke-width="1.056656" d="M 517.694031 114.910828 C 511.429382 114.446167 506.328278 119.246826 506.328278 125.630981 C 506.328278 127.007141 506.581421 128.318298 507.016205 129.573364 C 494.816559 131.818237 485.796326 142.026489 485.815857 155.154297 L 485.815857 163.184082 C 485.817963 164.563782 486.037933 165.901367 486.232361 167.239807 L 548.725586 171.393921 C 548.910828 170.098877 549.13269 168.805786 549.130737 167.445007 L 549.103699 159.494934 C 549.084351 146.564087 540.273621 135.207947 528.265991 131.165222 C 528.716492 129.954102 529.001831 128.656677 529.001831 127.254761 C 529.001831 120.902222 523.940369 115.373474 517.692444 114.910034 Z"/>
        </g>
        <radialGradient id="radialGradient1" cx="518.690484" cy="505.716914" r="231.378107" fx="518.690484" fy="505.716914" gradientUnits="userSpaceOnUse">
            <stop offset="1e-05" stop-color="#d0e0e3" stop-opacity="1"/>
            <stop offset="1" stop-color="#76a5af" stop-opacity="1"/>
        </radialGradient>
        <path id="path9" fill="url(#radialGradient1)" fill-rule="evenodd" stroke="#000000" stroke-width="1.033403" d="M 750.051453 503.040405 C 750.507568 414.4151 708.351196 331.129822 637.772278 283.542603 C 564.874695 234.392029 471.550781 229.869202 393.04184 274.197754 C 311.809052 320.06427 260.616547 410.044739 261.181702 508.695831 C 260.616547 607.360107 311.809052 696.156128 393.04184 740.143188 C 471.550781 782.655273 564.874695 775.973267 637.772278 725.136108 C 708.351196 675.915833 750.507568 591.655273 750.051453 503.040405 Z"/>
        <path id="path10" fill="#a2c4c9" fill-rule="evenodd" stroke="#000000" stroke-width="1.099584" stroke-opacity="0.46522" d="M 520.059998 163.788696 C 337.427399 152.194275 178.084625 306.800049 178.084625 509.75528 C 178.084625 712.71051 337.417938 863.584778 520.059998 847.7677 C 689.144409 833.124634 817.418274 678.807739 817.418274 502.346405 C 817.418274 325.885132 689.144409 174.522949 520.059998 163.788696 Z M 520.059998 246.223022 C 649.548828 252.100464 749.347717 367.068481 749.347717 503.129822 C 749.347717 639.191284 649.540649 756.44519 520.059998 765.322083 C 382.775604 774.734009 265.137817 660.030151 265.137817 508.740448 C 265.137817 357.450867 382.775604 239.991699 520.059998 246.223022 Z"/>
        <path id="path11" fill="#d0e0e3" fill-rule="evenodd" stroke="none" d="M 520.086304 187.543457 C 349.244568 177.588379 200.873795 322.052063 200.873795 510.709686 C 200.873795 699.36731 349.244568 840.317993 520.086304 826.317993 C 679.008362 813.294739 800.062561 669.0849 800.062561 503.616241 C 800.062561 338.147644 679.008362 196.81311 520.086304 187.543457 Z M 521.289673 191.347534 C 663.24408 199.50293 772.102661 339.084656 772.102661 503.359436 C 772.102661 667.634155 663.24408 809.76355 521.289673 821.24115 C 369.897797 833.481873 239.432388 694.200317 239.432388 509.592651 C 239.432388 324.984863 369.897797 182.649963 521.289673 191.347534 Z"/>
        <linearGradient id="linearGradient4" x1="215.68821" y1="533.354203" x2="749.995108" y2="513.661043" gradientUnits="userSpaceOnUse">
            <stop offset="1e-05" stop-color="#000000" stop-opacity="0"/>
            <stop offset="1" stop-color="#ffffff" stop-opacity="0.6701"/>
        </linearGradient>
        <path id="path12" fill="none" stroke="url(#linearGradient4)" stroke-width="12.343534" d="M 757.047363 504.074738 C 757.047363 364.049438 653.864624 245.699097 519.583496 239.403809 C 376.891174 232.714172 254.485611 353.698181 254.485611 510.018341 C 254.485611 666.338501 376.891174 784.427307 519.583496 774.362549 C 653.864624 764.891052 757.047363 644.099976 757.047363 504.074738 Z"/>
        <g id="g1">
            <path id="path13" fill="#ffffff" fill-rule="evenodd" stroke="#ffffff" stroke-width="1.056656" d="M 661.661377 656.280029 L 684.311951 679.988892"/>
            <path id="SE" fill="#ffffff" fill-rule="evenodd" stroke="none" d="M 637.746094 682.5625 L 636.333984 681.015625 L 640.71875 676.138672 L 639.027344 674.28125 L 635 678.757813 L 633.613281 677.238281 L 637.644531 672.761719 L 635.59375 670.509766 L 630.994141 675.611328 L 629.556641 674.037109 L 635.853516 667.054688 L 643.816406 675.806641 L 637.746094 682.5625 Z M 645.167969 672.744141 C 644.335876 672.736816 643.564392 672.368774 642.853516 671.640625 L 644.513672 669.794922 C 645.021545 670.28772 645.578918 670.420593 646.183594 670.193359 C 646.585388 670.040527 646.985291 669.743164 647.384766 669.298828 C 647.828979 668.80481 648.096741 668.314575 648.189453 667.830078 C 648.282227 667.345581 648.175842 666.933899 647.867188 666.59375 C 647.583679 666.28125 647.241272 666.191956 646.839844 666.328125 C 646.578491 666.412048 646.110474 666.690308 645.435547 667.162109 L 643.681641 668.382813 C 642.913208 668.918457 642.248596 669.230225 641.689453 669.318359 C 640.820923 669.455444 640.03186 669.133789 639.322266 668.353516 C 638.594421 667.553162 638.280884 666.568115 638.378906 665.396484 C 638.476929 664.224915 639.052856 663.052246 640.109375 661.880859 C 641.187805 660.685181 642.27301 660.006836 643.363281 659.84375 C 644.453003 659.680786 645.410095 660.053589 646.236328 660.964844 L 644.589844 662.794922 C 644.1745 662.452881 643.799927 662.268188 643.466797 662.240234 C 642.859009 662.190857 642.214355 662.543213 641.533203 663.298828 C 641.125183 663.751526 640.836182 664.167358 640.667969 664.544922 C 640.350464 665.263245 640.417175 665.869995 640.867188 666.365234 C 641.130005 666.654419 641.452393 666.744263 641.835938 666.636719 C 642.215759 666.525269 642.717529 666.245117 643.337891 665.794922 L 644.400391 665.03125 C 645.446899 664.282532 646.245239 663.846252 646.792969 663.722656 C 647.715393 663.508423 648.565369 663.830933 649.34375 664.689453 C 650.053711 665.472534 650.373901 666.422058 650.306641 667.537109 C 650.23938 668.652222 649.685242 669.789063 648.644531 670.947266 C 647.774963 671.914978 646.811829 672.49585 645.753906 672.691406 C 645.55542 672.728088 645.359985 672.74585 645.167969 672.744141 Z"/>
        </g>
        <g id="g2">
            <path id="path14" fill="#45818e" fill-rule="evenodd" stroke="#ffffff" stroke-width="1.335017" stroke-opacity="0.72157" d="M 547.936218 731.695313 C 547.936218 715.971558 536.120789 703.878052 521.460449 704.688232 C 506.705231 705.503662 494.67334 719.065063 494.67334 734.973816 C 494.67334 750.882446 506.705231 762.962769 521.460449 761.961731 C 536.120789 760.967163 547.936218 747.418945 547.936218 731.695313 Z"/>
            <path id="S" fill="#ffffff" fill-rule="evenodd" stroke="#ffffff" stroke-width="3.827793" stroke-opacity="0.72157" d="M 517.467224 745.42749 C 518.424011 745.36615 519.2005 745.203186 519.796997 744.938599 C 520.928101 744.432556 521.493469 743.590515 521.493469 742.412415 C 521.493469 741.724365 521.213013 741.209656 520.651978 740.868042 C 520.09082 740.535889 519.20929 740.266113 518.00708 740.05896 L 515.952209 739.692993 C 513.930664 739.329224 512.532104 738.883423 511.75769 738.355774 C 510.445862 737.474121 509.789703 736.007874 509.789703 733.957397 C 509.789703 732.086426 510.423859 730.49353 511.691681 729.179077 C 512.958801 727.865479 514.818604 727.135132 517.269653 726.987854 C 519.314575 726.864929 521.057434 727.342224 522.498962 728.419128 C 523.939575 729.495361 524.694519 731.137695 524.764526 733.34668 L 520.875488 733.586304 C 520.805359 732.336914 520.296875 731.477173 519.34967 731.00708 C 518.717957 730.696655 517.932434 730.570068 516.993042 730.627258 C 515.947815 730.690918 515.113037 730.968262 514.488953 731.459351 C 513.864685 731.950684 513.552551 732.602295 513.552551 733.414307 C 513.552551 734.160156 513.860291 734.698181 514.475769 735.02832 C 514.871338 735.249268 515.714966 735.484863 517.006226 735.735107 L 520.349487 736.390381 C 521.813354 736.67627 522.917175 737.111572 523.66156 737.696289 C 524.817017 738.603516 525.394531 739.984497 525.394531 741.8396 C 525.394531 743.741821 524.718567 745.364929 523.366028 746.709534 C 522.012695 748.054993 520.099548 748.808228 517.625183 748.968872 C 515.095459 749.133179 513.103943 748.641602 511.652069 747.493652 C 510.199249 746.344971 509.472534 744.683594 509.472534 742.510132 L 513.354614 742.263977 C 513.477783 743.209778 513.719604 743.907227 514.080139 744.356201 C 514.739502 745.173035 515.868713 745.530029 517.467224 745.42749 Z"/>
        </g>
        <g id="g3">
            <path id="path15" fill="#ffffff" fill-rule="evenodd" stroke="#ffffff" stroke-width="1.056656" d="M 343.460022 697.925171 L 368.483643 669.080811"/>
            <path id="SW" fill="#ffffff" fill-rule="evenodd" stroke="none" d="M 369.986328 705.320313 C 368.848755 705.327698 367.702332 704.762451 366.544922 703.625 C 365.577911 702.674683 365.008179 701.583008 364.835938 700.351563 C 364.663696 699.120056 365.045837 697.954834 365.984375 696.857422 L 367.826172 698.671875 C 367.309875 699.307068 367.160339 699.971558 367.376953 700.666016 C 367.522705 701.127441 367.818024 701.575439 368.261719 702.011719 C 368.755096 702.496948 369.247864 702.775818 369.740234 702.847656 C 370.232513 702.919556 370.654968 702.760742 371.009766 702.371094 C 371.335632 702.013306 371.435638 701.602539 371.306641 701.140625 C 371.227539 700.839478 370.954681 700.310547 370.490234 699.552734 L 369.289063 697.583984 C 368.762024 696.721313 368.460449 695.964844 368.384766 695.314453 C 368.266937 694.304688 368.614349 693.354004 369.427734 692.462891 C 370.261475 691.549438 371.274689 691.107117 372.464844 691.134766 C 373.654419 691.162415 374.832306 691.751831 375.998047 692.902344 C 377.187958 694.076782 377.851715 695.296082 377.992188 696.5625 C 378.132629 697.828857 377.731476 698.983521 376.785156 700.023438 L 374.960938 698.226563 C 375.319 697.712769 375.516357 697.258423 375.552734 696.865234 C 375.617401 696.148193 375.273987 695.419922 374.521484 694.677734 C 374.070679 694.233154 373.655609 693.924805 373.275391 693.755859 C 372.551941 693.437317 371.931549 693.561768 371.416016 694.126953 C 371.114899 694.457153 371.015198 694.843018 371.115234 695.285156 C 371.219391 695.722778 371.492035 696.287842 371.935547 696.982422 L 372.689453 698.175781 C 373.426819 699.348633 373.85022 700.252136 373.962891 700.886719 C 374.158966 701.955322 373.810333 702.980225 372.916016 703.962891 C 372.099731 704.859863 371.123322 705.312988 369.986328 705.320313 Z M 362.541016 699.136719 L 360.501953 697.130859 L 364.527344 690.199219 L 365.722656 688.345703 L 364.029297 689.644531 L 357.716797 694.394531 L 355.685547 692.398438 L 359.84375 685.585938 L 361.023438 683.714844 L 359.337891 684.970703 L 352.794922 689.556641 L 350.833984 687.630859 L 362.605469 680.173828 L 364.4375 681.982422 L 360.193359 688.925781 L 358.746094 691.181641 L 360.841797 689.564453 L 367.300781 684.808594 L 369.080078 686.564453 L 362.541016 699.136719 Z"/>
        </g>
        <path id="path16" fill="#45818e" fill-opacity="0.08696" fill-rule="evenodd" stroke="#45818e" stroke-width="2.199169" stroke-opacity="0.46087" d="M 520.821533 322.441589 L 496.849823 445.079712 L 434.325745 414.889038 L 462.716949 481.768921 L 342.590393 508.184265 L 462.663055 532.722656 L 434.328491 600.089111 L 497.046112 568.365967 L 520.113464 690.539795 L 543.815918 567.281067 L 603.443848 594.735229 L 576.76355 530.581604 L 685.458191 504.928528 L 576.840332 480.888062 L 603.44043 416.283081 L 543.649597 445.254211 L 520.820618 322.450989 Z M 520.02832 456.083618 C 545.199646 456.066589 565.420349 477.911255 565.420349 504.851959 C 565.420349 531.792969 545.199646 554.102356 520.02832 554.664063 C 494.575745 555.232056 473.685669 533.395508 473.685669 505.906586 C 473.685669 478.417908 494.575745 456.10083 520.02832 456.083618 Z"/>
        <g id="g4">
            <path id="path17" fill="#45818e" fill-rule="evenodd" stroke="#ffffff" stroke-width="1.335017" stroke-opacity="0.72157" d="M 746.051147 503.978821 C 746.051147 488.943176 735.24823 476.813538 721.847778 476.887085 C 708.364319 476.96106 697.372437 489.34729 697.372437 504.551971 C 697.372437 519.756714 708.364319 531.884033 721.847778 531.640503 C 735.24823 531.398438 746.051147 519.014526 746.051147 503.978821 Z"/>
            <path id="E" fill="#ffffff" fill-rule="evenodd" stroke="#ffffff" stroke-width="3.827793" stroke-opacity="0.72157" d="M 726.127319 508.655212 L 717.524597 508.765289 L 717.524597 513.8927 L 727.326111 513.755798 L 727.326111 517.332886 L 713.897888 517.531555 L 713.897888 497.573364 L 726.894653 497.440552 L 726.894653 500.963989 L 717.524597 501.067322 L 717.524597 505.30188 L 726.127319 505.198639 Z"/>
        </g>
        <g id="g5">
            <path id="path18" fill="#45818e" fill-rule="evenodd" stroke="#ffffff" stroke-width="1.335017" stroke-opacity="0.72157" d="M 326.932068 507.797272 C 326.932068 491.306061 313.93338 478.005615 297.800323 478.090332 C 281.557587 478.175598 268.308929 491.778961 268.308929 508.473755 C 268.308929 525.168579 281.557587 538.466125 297.800323 538.176514 C 313.93338 537.888916 326.932068 524.288452 326.932068 507.797272 Z"/>
            <path id="W" fill="#ffffff" fill-rule="evenodd" stroke="#ffffff" stroke-width="2.577482" stroke-opacity="0.72157" d="M 303.119141 496.799866 L 308.197388 496.753265 L 301.461884 521.391113 L 296.678711 521.459717 L 293.778107 507.105927 L 292.930084 502.355225 L 292.081757 507.125122 L 289.175568 521.567139 L 284.498688 521.634155 L 277.646759 497.03363 L 283.008667 496.984406 L 286.200439 511.072174 L 286.887329 514.993958 L 287.590363 511.138916 L 290.302551 496.91748 L 295.603638 496.868835 L 298.453186 510.923615 L 299.185364 514.834717 L 299.917358 511.055969 Z"/>
        </g>
        <path id="path19" fill="#ffffff" fill-rule="evenodd" stroke="#ffffff" stroke-width="1.056656" d="M 344.477631 316.288452 L 370.490875 343.560974"/>
        <path id="NW" fill="#ffffff" fill-rule="evenodd" stroke="none" d="M 362.728516 386.285156 L 352.818359 377.40625 L 354.664063 375.179688 L 364.921875 377.341797 L 358.015625 371.138672 L 359.652344 369.164063 L 369.533203 378.046875 L 367.785156 380.164063 L 357.332031 378.003906 L 364.363281 384.308594 L 362.728516 386.285156 Z M 372.667969 374.253906 L 360.417969 368.240234 L 362.28125 365.992188 L 369.044922 369.746094 L 370.855469 370.873047 L 369.560547 369.193359 L 364.818359 362.931641 L 366.666016 360.703125 L 373.304688 364.597656 L 375.128906 365.705078 L 373.875 364.035156 L 369.291016 357.537109 L 371.066406 355.394531 L 378.554688 367.125 L 376.892578 369.138672 L 370.126953 365.164063 L 367.923828 363.802734 L 369.537109 365.878906 L 374.289063 372.291016 L 372.667969 374.253906 Z"/>
        <path id="path20" fill="#ffffff" fill-rule="evenodd" stroke="#ffffff" stroke-width="1.056656" d="M 661.482117 351.741394 L 683.85553 327.187988"/>
        <path id="NE" fill="#ffffff" fill-rule="evenodd" stroke="none" d="M 632.070313 386.902344 L 625.863281 380.013672 L 633.998047 371.136719 L 639.984375 377.804688 L 638.548828 379.373047 L 634.230469 374.564453 L 632.505859 376.447266 L 636.472656 380.863281 L 635.064453 382.404297 L 631.09375 377.990234 L 629.001953 380.273438 L 633.53125 385.304688 L 632.070313 386.902344 Z M 624.363281 378.347656 L 622.648438 376.443359 L 625.089844 366.408203 L 619.291016 372.716797 L 617.689453 370.939453 L 625.853516 362.0625 L 627.650391 364.064453 L 625.228516 373.890625 L 630.912109 367.697266 L 632.503906 369.470703 L 624.363281 378.347656 Z"/>
        <g id="g6">
            <path id="path21" fill="#45818e" fill-rule="evenodd" stroke="#ffffff" stroke-width="1.335017" stroke-opacity="0.72174" d="M 547.936218 279.647888 C 547.936218 263.924255 536.120789 250.65094 521.460449 249.997498 C 506.705231 249.339783 494.67334 261.700012 494.67334 277.608643 C 494.67334 293.517395 506.705231 306.798889 521.460449 307.271057 C 536.120789 307.740173 547.936218 295.371704 547.936218 279.647888 Z"/>
            <path id="N" fill="#ffffff" fill-rule="evenodd" stroke="#ffffff" stroke-width="3.537554" stroke-opacity="0.72174" d="M 524.117249 293.737122 L 520.069275 293.595459 L 512.136597 278.485596 L 512.136597 293.317932 L 508.34494 293.185242 L 508.34494 272.286438 L 512.611755 272.455261 L 520.34552 287.312378 L 520.34552 272.761292 L 524.117249 272.910522 Z"/>
        </g>
        <g id="g7">
            <path id="path22" fill="#45818e" fill-rule="evenodd" stroke="#000000" stroke-width="0.439836" stroke-opacity="0.45652" d="M 615.290771 312.901367 L 519.253357 504.885742 L 532.845154 512.631348 L 615.290771 312.901367"/>
            <path id="path23" fill="#76a5af" fill-rule="evenodd" stroke="#000000" stroke-width="0.439836" stroke-opacity="0.45652" d="M 615.290771 312.901367 L 519.253357 504.885742 L 505.579956 497.093628 L 615.290771 312.901367"/>
        </g>
        <path id="path24" fill="#a2c4c9" fill-rule="evenodd" stroke="#000000" stroke-width="0.435024" stroke-opacity="0.4549" d="M 418.989563 705.323242 L 519.253601 504.889526 L 532.845398 512.635132 L 418.989563 705.323242"/>
        <path id="path25" fill="#6e6e6e" fill-rule="evenodd" stroke="#a2c4c9" stroke-width="0.174008" stroke-opacity="0.4549" d="M 418.989563 705.323242 L 519.253601 504.889526 L 505.580261 497.097443 L 418.989563 705.323242"/>
        <linearGradient id="linearGradient5" x1="512.905545" y1="484.522151" x2="538.918868" y2="499.442021" gradientUnits="userSpaceOnUse">
            <stop offset="1e-05" stop-color="#45818e" stop-opacity="1"/>
            <stop offset="1" stop-color="#a2c4c9" stop-opacity="1"/>
        </linearGradient>
        <linearGradient id="linearGradient6" x1="505.922299" y1="498.789052" x2="531.914517" y2="513.496384" gradientUnits="userSpaceOnUse">
            <stop offset="1e-05" stop-color="#000000" stop-opacity="1"/>
            <stop offset="1" stop-color="#ffffff" stop-opacity="1"/>
        </linearGradient>
        <path id="path26" fill="url(#linearGradient5)" fill-rule="evenodd" stroke="url(#linearGradient6)" stroke-width="1.342641" d="M 531.91449 513.496338 C 535.785583 505.729004 533.12146 496.116943 525.949402 492.003357 C 518.754761 487.876892 509.736237 490.834839 505.820587 498.634033 C 501.898193 506.446625 504.599152 516.118652 511.838562 520.213257 C 519.055115 524.294922 528.036865 521.276978 531.91449 513.496338 Z"/>
        <path id="path27" fill="#ffffff" fill-rule="evenodd" stroke="none" d="M 521.947205 507.808228 C 522.857544 505.986755 522.230896 503.7323 520.546692 502.771423 C 518.861267 501.809845 516.754272 502.507294 515.841492 504.330597 C 514.928284 506.154633 515.557007 508.412476 517.244873 509.372284 C 518.931519 510.331329 521.036499 509.630585 521.947205 507.808228 Z"/>
        <path id="path28" fill="#ffffff" fill-rule="evenodd" stroke="#ffffff" stroke-width="0.582781" d="M 355.277924 327.541992 L 338.7164 322.291016 L 351.023651 310.1875 L 355.27774 327.542175 Z"/>
        <path id="path29" fill="#ffffff" fill-rule="evenodd" stroke="#ffffff" stroke-width="0.582776" d="M 689.034668 333.572388 L 674.669983 337.379578 L 678.605225 321.509094 L 689.034668 333.572632 Z"/>
        <path id="path30" fill="#ffffff" fill-rule="evenodd" stroke="#ffffff" stroke-width="0.582784" d="M 689.387817 673.68158 L 678.974854 686.000732 L 675.019958 670.22937 L 689.387878 673.681824 Z"/>
        <path id="path31" fill="#ffffff" fill-rule="evenodd" stroke="#ffffff" stroke-width="0.582782" d="M 349.506134 703.281982 L 337.233215 691.407593 L 353.821075 685.837769 L 349.50592 703.282104 Z"/>
    </g>
</svg>
