<?xml version="1.0" encoding="UTF-8"?>
<!-- Generated by Pixelmator Pro 3.3.5 -->
<svg width="500" height="500" viewBox="0 0 500 500" xmlns="http://www.w3.org/2000/svg">
    <g id="Agrupar">
        <path id="Traado" fill="#596273" stroke="none" d="M 406.700012 259.799988 C 406.700012 261.299988 406.700012 262.799988 406.600006 264.299988 C 406.399994 270.5 405.899994 276.600006 405 282.600006 C 404.100006 288.799988 402.799988 295 401.200012 300.899994 C 383.100006 367.299988 322.399994 416.200012 250.199997 416.200012 C 163.800003 416.200012 93.699997 346.100006 93.699997 259.700012 C 93.699997 173.299988 163.699997 103.200012 250.199997 103.200012 C 336.700012 103.200012 406.700012 173.399994 406.700012 259.799988 Z"/>
        <path id="path1" fill="#dce4e7" fill-rule="evenodd" stroke="none" d="M 193.199997 156.5 C 192.800003 155.700012 192.100006 155.600006 191.300003 155.899994 L 187.800003 157.5 C 186.899994 157.899994 187.899994 159.399994 188.899994 161.399994 C 189.199997 162 189.800003 162.100006 190.5 161.799988 C 193.399994 160.299988 196.199997 165 192.699997 166.799988 C 190.399994 167.899994 189 166.399994 187.899994 164.100006 C 185.699997 159.600006 184.800003 159.200012 183.800003 159.600006 L 181.199997 160.899994 C 180.300003 161.399994 180.699997 162.399994 181.600006 164.200012 C 182.100006 165.200012 182.399994 165.799988 183 165.5 C 186.5 163.799988 188.699997 168.600006 185.300003 170.299988 C 183.199997 171.299988 181.5 169.299988 181.100006 167.299988 C 180.899994 166.700012 181.199997 166.399994 180.899994 165.700012 C 179.800003 163.399994 178.699997 162.100006 177.5 162.700012 L 173.300003 164.600006 L 175 168 C 175.199997 168.600006 175.699997 168.799988 176.300003 168.5 C 179.199997 167 181.899994 171.799988 177.800003 173.799988 C 176.399994 174.399994 174.600006 174.200012 173.600006 172.399994 C 172.399994 170 173.5 169.399994 172.899994 167.600006 C 172 165.899994 171 165.899994 170.199997 166.200012 L 166.699997 167.799988 C 165.800003 168.200012 166.800003 169.700012 167.800003 171.700012 C 168.100006 172.299988 168.699997 172.399994 169.399994 172.100006 C 172.300003 170.600006 175.100006 175.299988 171.600006 177.100006 C 169.300003 178.200012 167.899994 176.700012 166.800003 174.399994 C 164.600006 169.899994 163.699997 169.5 162.699997 169.899994 L 160.100006 171.200012 C 159.199997 171.700012 159.600006 172.700012 160.5 174.5 C 161 175.5 161.300003 176.100006 161.899994 175.799988 C 165.399994 174.100006 167.600006 178.899994 164.199997 180.600006 C 162.100006 181.600006 160.399994 179.600006 160 177.600006 C 159.800003 177 160.100006 176.700012 159.800003 176 C 158.699997 173.700012 157.600006 172.399994 156.399994 173 L 152.199997 174.899994 L 153.899994 178.299988 C 154.100006 178.899994 154.600006 179.100006 155.199997 178.799988 C 158.100006 177.299988 160.699997 182.200012 157.300003 183.799988 C 154.699997 185.100006 153.300003 182.700012 152.100006 180.200012 L 150.300003 176.600006 C 150 176.299988 149.600006 176.200012 149.300003 176.399994 L 145.800003 178 C 144.899994 178.399994 145.899994 179.899994 146.899994 181.899994 C 147.300003 182.5 147.800003 182.600006 148.5 182.299988 C 151.399994 180.799988 154.199997 185.5 150.699997 187.299988 C 148.399994 188.399994 147 186.899994 145.899994 184.600006 C 143.699997 180.100006 142.800003 179.700012 141.800003 180.100006 L 139.199997 181.399994 C 138.300003 181.899994 138.699997 182.899994 139.600006 184.700012 C 140.100006 185.700012 140.399994 186.299988 141 186 C 144.5 184.299988 146.699997 189.100006 143.300003 190.799988 C 141.199997 191.799988 139.5 189.799988 139.100006 187.799988 C 138.899994 187.200012 139.199997 186.899994 138.899994 186.200012 C 137.800003 183.899994 136.699997 182.600006 135.5 183.200012 L 131.300003 185.100006 L 133 188.5 C 133.199997 189.100006 133.699997 189.299988 134.300003 189 C 137.199997 187.5 139.899994 192.299988 135.800003 194.299988 C 134.399994 194.899994 132.600006 194.700012 131.600006 192.899994 C 130.399994 190.5 131.5 189.899994 130.899994 188.100006 C 130 186.399994 129 186.399994 128.199997 186.700012 L 124.699997 188.299988 C 123.800003 188.700012 124.800003 190.200012 125.800003 192.200012 C 126.099998 192.799988 126.699997 192.899994 127.400002 192.600006 C 130.300003 191.100006 133.100006 195.799988 129.600006 197.600006 C 127.300003 198.700012 125.900002 197.200012 124.800003 194.899994 C 122.599998 190.399994 121.699997 190 120.699997 190.399994 L 118.099998 191.700012 C 117.199997 192.200012 117.599998 193.200012 118.5 195 C 119 196 119.300003 196.600006 119.900002 196.299988 C 123.400002 194.600006 125.599998 199.399994 122.199997 201.100006 C 120.099998 202.100006 118.400002 200.100006 118 198.100006 C 117.800003 197.5 118.099998 197.200012 117.800003 196.5 C 116.699997 194.200012 115.599998 192.899994 114.400002 193.5 L 110.199997 195.399994 L 111.900002 198.799988 C 112.099998 199.399994 112.599998 199.600006 113.199997 199.299988 C 116.099998 197.799988 118.800003 202.600006 114.699997 204.600006 C 112.400002 205.700012 111 203.100006 111 200.399994 C 110.800003 199.200012 110.400002 198.299988 109.699997 197.700012 C 108.699997 197 108 196.700012 106.900002 197.200012 L 103.400002 198.799988 C 102.5 199.200012 103.5 200.700012 104.5 202.700012 C 104.900002 203.299988 105.400002 203.399994 106.099998 203.100006 C 109 201.600006 111.800003 206.299988 108.300003 208.100006 C 106 209.200012 104.599998 207.700012 103.5 205.399994 C 101.300003 200.899994 100.400002 200.5 99.400002 200.899994 L 96.800003 202.200012 C 95.900002 202.700012 96.300003 203.700012 97.199997 205.5 C 97.699997 206.5 98 207.100006 98.599998 206.799988 C 102.099998 205.100006 104.300003 209.899994 100.900002 211.600006 C 98.800003 212.600006 97.099998 210.600006 96.699997 208.600006 C 96.5 208 96.800003 207.700012 96.5 207 C 95.400002 204.700012 94.300003 203.399994 93.099998 204 L 88.900002 205.899994 L 90.599998 209.299988 C 90.800003 209.899994 91.300003 210.100006 91.900002 209.799988 C 94.800003 208.299988 97.5 213.100006 93.400002 215.100006 C 92 215.700012 90.199997 215.5 89.199997 213.700012 C 88 211.299988 89.099998 210.700012 88.5 208.899994 C 87.599998 207.200012 86.599998 207.200012 85.800003 207.5 L 82.300003 209.100006 C 81.400002 209.5 82.400002 211 83.400002 213 C 83.699997 213.600006 84.300003 213.700012 85 213.399994 C 87.900002 211.899994 90.699997 216.600006 87.199997 218.399994 C 84.900002 219.5 83.5 218 82.400002 215.700012 C 80.199997 211.200012 79.300003 210.799988 78.300003 211.200012 L 75.699997 212.5 C 74.800003 213 75.199997 214 76.099998 215.799988 C 76.599998 216.799988 76.900002 217.399994 77.5 217.100006 C 81 215.399994 83.199997 220.200012 79.800003 221.899994 C 77.699997 222.899994 76 220.899994 75.599998 218.899994 C 75.400002 218.299988 75.699997 218 75.400002 217.299988 C 74.300003 215 73.199997 213.700012 72 214.299988 L 67.800003 216.200012 L 69.5 219.600006 C 69.699997 220.200012 70.199997 220.399994 70.800003 220.100006 C 73.699997 218.600006 76.400002 223.399994 72.300003 225.399994 C 71.599998 225.799988 71 226.600006 71.099998 227.200012 C 71.199997 227.5 71.300003 227.799988 71.199997 228.200012 L 151.199997 390.299988 L 278 328.600006 L 198 166.5 L 198 166.5 C 196.399994 163.100006 194.800003 159.700012 193.199997 156.5 Z"/>
        <path id="path2" fill="#afafaf" stroke="none" d="M 113.835152 264.682373 L 121.548492 260.878601 L 121.946564 261.685791 L 114.233223 265.489563 Z"/>
        <path id="path3" fill="#afafaf" stroke="none" d="M 125.55677 258.963196 L 133.270111 255.159439 L 133.668167 255.966644 L 125.954842 259.770416 Z"/>
        <path id="path4" fill="#afafaf" stroke="none" d="M 137.436707 253.057343 L 145.150055 249.253555 L 145.548126 250.06076 L 137.834778 253.864548 Z"/>
        <path id="path5" fill="#afafaf" stroke="none" d="M 149.360184 247.242142 L 157.073517 243.438354 L 157.471588 244.245575 L 149.758255 248.049347 Z"/>
        <path id="path6" fill="#afafaf" stroke="none" d="M 161.206024 241.296448 L 168.739975 237.581146 L 169.138046 238.388367 L 161.604095 242.103668 Z"/>
        <path id="path7" fill="#afafaf" stroke="none" d="M 124.771835 269.384827 L 159.392181 252.312027 L 159.790268 253.119263 L 125.169914 270.192047 Z"/>
        <path id="path8" fill="#afafaf" stroke="none" d="M 166.69696 248.772812 L 201.317307 231.700012 L 201.715378 232.507233 L 167.095032 249.580032 Z"/>
        <path id="path9" fill="#afafaf" stroke="none" d="M 121.896713 280.967041 L 137.323395 273.359497 L 137.721451 274.166687 L 122.294777 281.774231 Z"/>
        <path id="path10" fill="#afafaf" stroke="none" d="M 139.199005 272.413879 L 154.805054 264.717896 L 155.203125 265.525085 L 139.597061 273.2211 Z"/>
        <path id="path11" fill="#afafaf" stroke="none" d="M 166.888123 258.723358 L 182.494186 251.027344 L 182.892258 251.834549 L 167.286179 259.530579 Z"/>
        <path id="path12" fill="#afafaf" stroke="none" d="M 184.572342 249.984528 L 199.999023 242.376953 L 200.397095 243.184174 L 184.970398 250.791733 Z"/>
        <path id="path13" fill="#afafaf" stroke="none" d="M 146.347061 279.045593 L 151.997528 276.259094 L 152.395599 277.066284 L 146.745132 279.852783 Z"/>
        <path id="path14" fill="#afafaf" stroke="none" d="M 155.543457 274.480103 L 161.373306 271.605133 L 161.771378 272.412354 L 155.941528 275.287292 Z"/>
        <path id="path15" fill="#afafaf" stroke="none" d="M 164.917542 269.828918 L 170.568008 267.042419 L 170.96608 267.849609 L 165.315613 270.636108 Z"/>
        <path id="path16" fill="#afafaf" stroke="none" d="M 174.237732 265.258972 L 179.888184 262.472473 L 180.28627 263.279724 L 174.635818 266.066223 Z"/>
        <path id="path17" fill="#afafaf" stroke="none" d="M 183.635376 260.598541 L 189.465225 257.723602 L 189.863297 258.530823 L 184.033447 261.405762 Z"/>
        <path id="path18" fill="#afafaf" stroke="none" d="M 193.044357 255.985977 L 198.874207 253.111038 L 199.272278 253.918243 L 193.442429 256.793182 Z"/>
        <path id="path19" fill="#afafaf" stroke="none" d="M 202.420242 251.331512 L 208.070709 248.545029 L 208.468781 249.352234 L 202.818314 252.138733 Z"/>
        <path id="path20" fill="#afafaf" stroke="none" d="M 211.829224 246.718964 L 217.479691 243.932465 L 217.877762 244.73967 L 212.22728 247.526169 Z"/>
        <path id="path21" fill="#afafaf" stroke="none" d="M 129.915833 297.18634 L 156.374374 284.138519 L 156.772446 284.94574 L 130.313889 297.993561 Z"/>
        <path id="path22" fill="#afafaf" stroke="none" d="M 158.704971 282.968933 L 185.163528 269.921082 L 185.561584 270.728271 L 159.103043 283.776123 Z"/>
        <path id="path23" fill="#afafaf" stroke="none" d="M 187.606201 268.699524 L 214.064758 255.651657 L 214.46283 256.458862 L 188.004272 269.506714 Z"/>
        <path id="path24" fill="#afafaf" stroke="none" d="M 133.743973 304.860718 L 143.520187 300.039673 L 143.918259 300.846863 L 134.142044 305.667938 Z"/>
        <path id="path25" fill="#afafaf" stroke="none" d="M 147.083191 298.367981 L 156.859406 293.546936 L 157.257477 294.354126 L 147.481262 299.175201 Z"/>
        <path id="path26" fill="#afafaf" stroke="none" d="M 160.578949 291.690918 L 170.355164 286.869873 L 170.753235 287.677063 L 160.977005 292.498138 Z"/>
        <path id="path27" fill="#afafaf" stroke="none" d="M 173.962234 285.066345 L 183.738434 280.2453 L 184.136505 281.05249 L 174.360291 285.873566 Z"/>
        <path id="path28" fill="#afafaf" stroke="none" d="M 194.36438 275.026123 L 203.961212 270.293518 L 204.359283 271.100739 L 194.762451 275.833344 Z"/>
        <path id="path29" fill="#afafaf" stroke="none" d="M 207.950211 268.304504 L 217.547043 263.571899 L 217.945114 264.37912 L 208.348282 269.111725 Z"/>
        <path id="path30" fill="#afafaf" stroke="none" d="M 137.83551 313.228149 L 155.952896 304.293701 L 156.350967 305.100891 L 138.233582 314.035339 Z"/>
        <path id="path31" fill="#afafaf" stroke="none" d="M 172.855713 295.976746 L 191.152466 286.953857 L 191.550537 287.761047 L 173.253784 296.783966 Z"/>
        <path id="path32" fill="#afafaf" stroke="none" d="M 207.674286 278.82135 L 226.240112 269.665741 L 226.638184 270.472961 L 208.072357 279.62854 Z"/>
        <path id="path33" fill="#afafaf" stroke="none" d="M 162.96846 310.664398 L 192.117722 296.289673 L 192.515778 297.096863 L 163.366531 311.471619 Z"/>
        <path id="path34" fill="#afafaf" stroke="none" d="M 198.191025 293.315887 L 227.609344 278.808472 L 228.007416 279.615662 L 198.589096 294.123108 Z"/>
        <path id="path35" fill="#afafaf" stroke="none" d="M 162.076431 321.490875 L 217.325455 294.245178 L 217.723541 295.052429 L 162.474518 322.298096 Z"/>
        <path id="path36" fill="#afafaf" stroke="none" d="M 170.266693 327.555969 L 183.630508 320.965698 L 184.02858 321.772919 L 170.664764 328.36319 Z"/>
        <path id="path37" fill="#afafaf" stroke="none" d="M 186.569962 319.533569 L 199.933777 312.943329 L 200.331833 313.750549 L 186.968033 320.34079 Z"/>
        <path id="path38" fill="#afafaf" stroke="none" d="M 202.783249 311.555847 L 216.147064 304.965576 L 216.545135 305.772766 L 203.181305 312.363037 Z"/>
        <path id="path39" fill="#afafaf" stroke="none" d="M 219.086319 303.533844 L 232.450119 296.943573 L 232.84819 297.750793 L 219.48439 304.341064 Z"/>
        <path id="path40" fill="#afafaf" stroke="none" d="M 156.999146 344.208221 L 202.202896 321.916321 L 202.600967 322.723511 L 157.397217 345.015442 Z"/>
        <path id="path41" fill="#afafaf" stroke="none" d="M 204.298737 320.871674 L 228.694412 308.841125 L 229.092484 309.648346 L 204.696808 321.678894 Z"/>
        <path id="path42" fill="#afafaf" stroke="none" d="M 167.23317 349.238342 L 185.350555 340.303864 L 185.748627 341.111084 L 167.631241 350.045532 Z"/>
        <path id="path43" fill="#afafaf" stroke="none" d="M 187.939987 339.087189 L 195.473953 335.371857 L 195.872025 336.179077 L 188.338058 339.894409 Z"/>
        <path id="path44" fill="#afafaf" stroke="none" d="M 196.452271 334.902954 L 203.986252 331.187622 L 204.384308 331.994812 L 196.850342 335.710144 Z"/>
        <path id="path45" fill="#afafaf" stroke="none" d="M 205.186218 330.501221 L 212.271713 327.00708 L 212.669785 327.81427 L 205.58429 331.308441 Z"/>
        <path id="path46" fill="#afafaf" stroke="none" d="M 213.518921 326.40564 L 221.052872 322.690338 L 221.450943 323.497559 L 213.916992 327.21286 Z"/>
        <path id="path47" fill="#afafaf" stroke="none" d="M 222.039337 322.274811 L 229.304214 318.6922 L 229.702286 319.49939 L 222.437408 323.082031 Z"/>
        <path id="path48" fill="#afafaf" stroke="none" d="M 230.809082 317.910217 L 237.894577 314.416046 L 238.292648 315.223267 L 231.207138 318.717407 Z"/>
        <path id="path49" fill="#afafaf" stroke="none" d="M 239.140366 313.816956 L 246.674347 310.101624 L 247.072403 310.908813 L 239.538437 314.624146 Z"/>
        <path id="path50" fill="#afafaf" stroke="none" d="M 190.154984 347.858276 L 206.388885 339.852661 L 206.786972 340.659912 L 190.55307 348.665527 Z"/>
        <path id="path51" fill="#afafaf" stroke="none" d="M 209.534592 338.254456 L 225.768463 330.24884 L 226.166534 331.05603 L 209.932663 339.061646 Z"/>
        <path id="path52" fill="#afafaf" stroke="none" d="M 228.421066 328.886597 L 244.654953 320.880981 L 245.05304 321.688202 L 228.819138 329.693848 Z"/>
        <path id="path53" fill="#afafaf" stroke="none" d="M 182.392059 361.503479 L 213.424789 346.19989 L 213.822876 347.007141 L 182.790131 362.310699 Z"/>
        <path id="path54" fill="#afafaf" stroke="none" d="M 243.45845 331.367645 L 254.938766 325.706207 L 255.336838 326.513428 L 243.856522 332.174866 Z"/>
        <g id="g1">
            <g id="g2">
                <path id="path55" fill="#e2e2e2" fill-rule="evenodd" stroke="none" d="M 270.600006 103.299988 C 270.5 102.399994 269.899994 102.100006 269.100006 102.100006 L 265.399994 102.399994 C 264.5 102.5 264.899994 104.200012 265.100006 106.299988 C 265.200012 107 265.600006 107.299988 266.399994 107.200012 C 269.5 106.899994 270.399994 112 266.700012 112.399994 C 264.299988 112.600006 263.5 110.799988 263.299988 108.299988 C 262.799988 103.5 262.200012 102.799988 261.100006 102.899994 L 258.399994 103.200012 C 257.399994 103.299988 257.399994 104.399994 257.600006 106.299988 C 257.700012 107.399994 257.799988 108 258.399994 107.899994 C 262.100006 107.5 262.399994 112.600006 258.899994 113 C 256.700012 113.200012 255.899994 110.799988 256.200012 108.899994 C 256.200012 108.299988 256.600006 108.100006 256.600006 107.399994 C 256.399994 105 255.800003 103.399994 254.600006 103.600006 L 250.199997 103.899994 L 250.600006 107.5 C 250.600006 108.100006 250.899994 108.5 251.600006 108.399994 C 254.699997 108.100006 255.600006 113.200012 251.100006 113.700012 C 249.699997 113.799988 248.100006 113 247.800003 111 C 247.5 108.399994 248.800003 108.299988 248.800003 106.5 C 248.600006 104.600006 247.699997 104.299988 246.800003 104.399994 L 243.100006 104.700012 C 242.199997 104.799988 242.600006 106.5 242.800003 108.600006 C 242.899994 109.299988 243.300003 109.600006 244.100006 109.5 C 247.199997 109.200012 248.100006 114.299988 244.399994 114.700012 C 242 114.899994 241.199997 113.100006 241 110.600006 C 240.5 105.799988 239.899994 105.100006 238.800003 105.200012 L 236.100006 105.5 C 235.100006 105.600006 235.100006 106.700012 235.300003 108.600006 C 235.399994 109.700012 235.5 110.299988 236.100006 110.200012 C 239.800003 109.799988 240.100006 114.899994 236.600006 115.299988 C 234.399994 115.5 233.600006 113.100006 233.899994 111.200012 C 233.899994 110.600006 234.300003 110.399994 234.300003 109.700012 C 234.100006 107.299988 233.5 105.700012 232.300003 105.899994 L 227.899994 106.200012 L 228.300003 109.799988 C 228.300003 110.399994 228.600006 110.799988 229.300003 110.700012 C 232.399994 110.399994 233.100006 115.600006 229.5 115.899994 C 226.800003 116.200012 226.300003 113.5 226 110.899994 L 225.600006 107.100006 C 225.399994 106.700012 225.100006 106.5 224.800003 106.600006 L 221.100006 106.899994 C 220.199997 107 220.600006 108.700012 220.800003 110.799988 C 220.899994 111.5 221.300003 111.799988 222.100006 111.700012 C 225.199997 111.399994 226.100006 116.5 222.399994 116.899994 C 220 117.100006 219.199997 115.299988 219 112.799988 C 218.5 108 217.899994 107.299988 216.800003 107.399994 L 214.100006 107.700012 C 213.100006 107.799988 213.100006 108.899994 213.300003 110.799988 C 213.399994 111.899994 213.5 112.5 214.100006 112.399994 C 217.800003 112 218.100006 117.100006 214.600006 117.5 C 212.399994 117.700012 211.600006 115.299988 211.899994 113.399994 C 211.899994 112.799988 212.300003 112.600006 212.300003 111.899994 C 212.100006 109.5 211.5 107.899994 210.300003 108.100006 L 205.899994 108.399994 L 206.300003 112 C 206.300003 112.600006 206.600006 113 207.300003 112.899994 C 210.399994 112.600006 211.300003 117.700012 206.800003 118.200012 C 205.399994 118.299988 203.800003 117.5 203.5 115.5 C 203.199997 112.899994 204.5 112.799988 204.5 111 C 204.300003 109.100006 203.399994 108.799988 202.5 108.899994 L 198.800003 109.200012 C 197.899994 109.299988 198.300003 111 198.5 113.100006 C 198.600006 113.799988 199 114.100006 199.800003 114 C 202.899994 113.700012 203.800003 118.799988 200.100006 119.200012 C 197.699997 119.399994 196.899994 117.600006 196.699997 115.100006 C 196.199997 110.299988 195.600006 109.600006 194.5 109.700012 L 191.800003 110 C 190.800003 110.100006 190.800003 111.200012 191 113.100006 C 191.100006 114.200012 191.199997 114.799988 191.800003 114.700012 C 195.5 114.299988 195.800003 119.399994 192.300003 119.799988 C 190.100006 120 189.300003 117.600006 189.600006 115.700012 C 189.600006 115.100006 190 114.899994 190 114.200012 C 189.800003 111.799988 189.199997 110.200012 188 110.399994 L 183.600006 110.700012 L 184 114.299988 C 184 114.899994 184.300003 115.299988 185 115.200012 C 188.100006 114.899994 189 120 184.5 120.5 C 182.100006 120.700012 181.699997 117.899994 182.600006 115.5 C 182.899994 114.299988 182.800003 113.399994 182.399994 112.700012 C 181.699997 111.700012 181.199997 111.299988 180 111.299988 L 176.300003 111.600006 C 175.399994 111.700012 175.800003 113.399994 176 115.5 C 176.100006 116.200012 176.5 116.5 177.300003 116.399994 C 180.399994 116.100006 181.300003 121.200012 177.600006 121.600006 C 175.199997 121.799988 174.399994 120 174.199997 117.5 C 173.699997 112.700012 173.100006 112 172 112.100006 L 169.300003 112.399994 C 168.300003 112.5 168.300003 113.600006 168.5 115.5 C 168.600006 116.600006 168.699997 117.200012 169.300003 117.100006 C 173 116.700012 173.300003 121.799988 169.800003 122.200012 C 167.600006 122.399994 166.800003 120 167.100006 118.100006 C 167.100006 117.5 167.5 117.299988 167.5 116.600006 C 167.300003 114.200012 166.699997 112.600006 165.5 112.799988 L 161.100006 113.100006 L 161.5 116.700012 C 161.5 117.299988 161.800003 117.700012 162.5 117.600006 C 165.600006 117.299988 166.5 122.399994 162 122.899994 C 160.600006 123 159 122.200012 158.699997 120.200012 C 158.399994 117.600006 159.699997 117.5 159.699997 115.700012 C 159.5 113.799988 158.600006 113.5 157.699997 113.600006 L 154 113.899994 C 153.100006 114 153.5 115.700012 153.699997 117.799988 C 153.800003 118.5 154.199997 118.799988 155 118.700012 C 158.100006 118.399994 159 123.5 155.300003 123.899994 C 152.899994 124.100006 152.100006 122.299988 151.899994 119.799988 C 151.399994 115 150.800003 114.299988 149.699997 114.399994 L 147 114.700012 C 146 114.799988 146 115.899994 146.199997 117.799988 C 146.300003 118.899994 146.399994 119.5 147 119.399994 C 150.699997 119 151 124.100006 147.5 124.5 C 145.300003 124.700012 144.5 122.299988 144.800003 120.399994 C 144.800003 119.799988 145.199997 119.600006 145.199997 118.899994 C 145 116.5 144.399994 114.899994 143.199997 115.100006 L 138.800003 115.399994 L 139.199997 119 C 139.199997 119.600006 139.5 120 140.199997 119.899994 C 143.300003 119.600006 144.199997 124.700012 139.699997 125.200012 C 139 125.299988 138.100006 125.799988 138 126.399994 C 138 126.700012 137.899994 127 137.800003 127.299988 L 154.699997 299.700012 L 289.5 286.5 L 272.600006 114.100006 L 272.600006 114.100006 C 271.299988 110.299988 270.899994 106.700012 270.600006 103.299988 Z"/>
                <path id="path56" fill="#afafaf" stroke="none" d="M 162.888901 173.513123 L 171.050385 172.715057 L 171.13797 173.610809 L 162.976501 174.408905 Z"/>
                <path id="path57" fill="#afafaf" stroke="none" d="M 175.281281 172.214783 L 183.442749 171.416656 L 183.530334 172.312439 L 175.368881 173.110565 Z"/>
                <path id="path58" fill="#afafaf" stroke="none" d="M 187.984924 171.008087 L 196.146378 170.209991 L 196.233978 171.105774 L 188.072525 171.903839 Z"/>
                <path id="path59" fill="#afafaf" stroke="none" d="M 200.589264 169.811279 L 208.750717 169.013153 L 208.838318 169.908936 L 200.676865 170.707062 Z"/>
                <path id="path60" fill="#afafaf" stroke="none" d="M 213.182007 168.503937 L 221.144394 167.725311 L 221.231995 168.621063 L 213.269592 169.399689 Z"/>
                <path id="path61" fill="#afafaf" stroke="none" d="M 171.054413 181.410889 L 207.880508 177.809753 L 207.968109 178.705505 L 171.142014 182.306671 Z"/>
                <path id="path62" fill="#afafaf" stroke="none" d="M 215.652161 177.006134 L 252.478256 173.404999 L 252.565857 174.300781 L 215.739746 177.901917 Z"/>
                <path id="path63" fill="#afafaf" stroke="none" d="M 164.599869 190.712555 L 181.022308 189.106659 L 181.109909 190.002441 L 164.687454 191.608337 Z"/>
                <path id="path64" fill="#afafaf" stroke="none" d="M 183.002289 188.922913 L 199.623795 187.297546 L 199.711395 188.193298 L 183.08989 189.818695 Z"/>
                <path id="path65" fill="#afafaf" stroke="none" d="M 212.501877 186.020844 L 229.123383 184.395447 L 229.210983 185.291229 L 212.589478 186.916626 Z"/>
                <path id="path66" fill="#afafaf" stroke="none" d="M 231.305557 184.213776 L 247.728012 182.607849 L 247.815613 183.503632 L 231.393158 185.109558 Z"/>
                <path id="path67" fill="#afafaf" stroke="none" d="M 187.182999 197.302368 L 193.1548 196.718414 L 193.242386 197.614166 L 187.270584 198.198151 Z"/>
                <path id="path68" fill="#afafaf" stroke="none" d="M 196.880692 196.31839 L 203.051575 195.714935 L 203.13916 196.610718 L 196.968292 197.214142 Z"/>
                <path id="path69" fill="#afafaf" stroke="none" d="M 206.877121 195.305267 L 212.848923 194.721283 L 212.936508 195.617065 L 206.964706 196.201019 Z"/>
                <path id="path70" fill="#afafaf" stroke="none" d="M 216.884903 194.402466 L 222.856705 193.818451 L 222.944305 194.714233 L 216.972504 195.298218 Z"/>
                <path id="path71" fill="#afafaf" stroke="none" d="M 226.884323 193.410553 L 233.055191 192.807129 L 233.142792 193.702881 L 226.971909 194.306305 Z"/>
                <path id="path72" fill="#afafaf" stroke="none" d="M 236.782776 192.417908 L 242.953629 191.814484 L 243.041229 192.710236 L 236.870361 193.31366 Z"/>
                <path id="path73" fill="#afafaf" stroke="none" d="M 246.779144 191.404694 L 252.750946 190.820709 L 252.838547 191.716492 L 246.866745 192.300446 Z"/>
                <path id="path74" fill="#afafaf" stroke="none" d="M 256.786804 190.501801 L 262.758606 189.917847 L 262.846191 190.813629 L 256.87439 191.397583 Z"/>
                <path id="path75" fill="#afafaf" stroke="none" d="M 166.336212 208.083771 L 194.503204 205.329346 L 194.590805 206.225128 L 166.423813 208.979523 Z"/>
                <path id="path76" fill="#afafaf" stroke="none" d="M 196.837219 205.092194 L 225.004211 202.337799 L 225.091797 203.233582 L 196.924805 205.987976 Z"/>
                <path id="path77" fill="#afafaf" stroke="none" d="M 227.729767 201.983551 L 255.896759 199.229218 L 255.984344 200.124969 L 227.817352 202.879333 Z"/>
                <path id="path78" fill="#afafaf" stroke="none" d="M 167.087524 216.221771 L 177.538177 215.199799 L 177.625778 216.095581 L 167.175125 217.117554 Z"/>
                <path id="path79" fill="#afafaf" stroke="none" d="M 181.28685 214.820313 L 191.737503 213.79837 L 191.825104 214.694153 L 181.374451 215.716064 Z"/>
                <path id="path80" fill="#afafaf" stroke="none" d="M 195.688461 213.42099 L 206.139114 212.399017 L 206.226715 213.2948 L 195.776062 214.316772 Z"/>
                <path id="path81" fill="#afafaf" stroke="none" d="M 209.887863 212.019592 L 220.338516 210.99762 L 220.426117 211.893372 L 209.975464 212.915344 Z"/>
                <path id="path82" fill="#afafaf" stroke="none" d="M 231.589691 209.910645 L 241.74176 208.917908 L 241.829346 209.81369 L 231.677292 210.806427 Z"/>
                <path id="path83" fill="#afafaf" stroke="none" d="M 245.991333 208.51123 L 256.143402 207.518494 L 256.230988 208.414246 L 246.078934 209.406982 Z"/>
                <path id="path84" fill="#afafaf" stroke="none" d="M 167.915527 225.159851 L 187.224365 223.271698 L 187.311951 224.16748 L 168.003128 226.055634 Z"/>
                <path id="path85" fill="#afafaf" stroke="none" d="M 205.21283 221.464478 L 224.720718 219.556854 L 224.808319 220.452637 L 205.30043 222.36026 Z"/>
                <path id="path86" fill="#afafaf" stroke="none" d="M 242.218231 217.876495 L 261.925171 215.949402 L 262.012756 216.845184 L 242.305817 218.772278 Z"/>
                <path id="path87" fill="#afafaf" stroke="none" d="M 191.340973 231.335083 L 222.394333 228.298462 L 222.481918 229.194214 L 191.428574 232.230865 Z"/>
                <path id="path88" fill="#afafaf" stroke="none" d="M 228.840561 227.641724 L 260.092987 224.585632 L 260.180573 225.481415 L 228.928162 228.537506 Z"/>
                <path id="path89" fill="#afafaf" stroke="none" d="M 186.903687 240.688507 L 245.626389 234.946167 L 245.713974 235.841949 L 186.991272 241.58429 Z"/>
                <path id="path90" fill="#afafaf" stroke="none" d="M 192.198761 248.909134 L 206.431549 247.517319 L 206.51915 248.413086 L 192.286362 249.804916 Z"/>
                <path id="path91" fill="#afafaf" stroke="none" d="M 209.498596 247.207916 L 223.731384 245.816101 L 223.818985 246.711853 L 209.586197 248.103683 Z"/>
                <path id="path92" fill="#afafaf" stroke="none" d="M 226.798462 245.50676 L 241.03125 244.114944 L 241.118851 245.010712 L 226.886047 246.402527 Z"/>
                <path id="path93" fill="#afafaf" stroke="none" d="M 244.098236 243.805603 L 258.331024 242.413818 L 258.41861 243.309601 L 244.185837 244.70137 Z"/>
                <path id="path94" fill="#afafaf" stroke="none" d="M 174.680023 259.36438 L 222.753006 254.663452 L 222.840591 255.559219 L 174.767624 260.260162 Z"/>
                <path id="path95" fill="#afafaf" stroke="none" d="M 224.933456 254.486832 L 250.910797 251.946579 L 250.998398 252.842361 L 225.021057 255.382599 Z"/>
                <path id="path96" fill="#afafaf" stroke="none" d="M 182.111649 267.362152 L 201.420471 265.473999 L 201.508057 266.369751 L 182.199249 268.257935 Z"/>
                <path id="path97" fill="#afafaf" stroke="none" d="M 204.084946 265.20639 L 212.047348 264.427795 L 212.134933 265.323578 L 204.172531 266.102173 Z"/>
                <path id="path98" fill="#afafaf" stroke="none" d="M 213.184265 264.305237 L 221.146667 263.526642 L 221.234268 264.422394 L 213.271866 265.201019 Z"/>
                <path id="path99" fill="#afafaf" stroke="none" d="M 222.48259 263.384674 L 230.046875 262.644958 L 230.13446 263.540741 L 222.570175 264.280457 Z"/>
                <path id="path100" fill="#afafaf" stroke="none" d="M 231.382736 262.502869 L 239.345139 261.724243 L 239.432724 262.619995 L 231.470337 263.398621 Z"/>
                <path id="path101" fill="#afafaf" stroke="none" d="M 240.490189 261.69043 L 248.25354 260.931274 L 248.341125 261.827087 L 240.577789 262.586243 Z"/>
                <path id="path102" fill="#afafaf" stroke="none" d="M 249.790115 260.78064 L 257.354401 260.040924 L 257.441986 260.936707 L 249.877716 261.676392 Z"/>
                <path id="path103" fill="#afafaf" stroke="none" d="M 258.590759 259.908569 L 266.553162 259.129944 L 266.640747 260.025696 L 258.678345 260.804321 Z"/>
                <path id="path104" fill="#afafaf" stroke="none" d="M 203.103317 273.764984 L 220.421539 272.071472 L 220.509125 272.967224 L 203.190918 274.660767 Z"/>
                <path id="path105" fill="#afafaf" stroke="none" d="M 223.805405 271.756348 L 241.123627 270.062836 L 241.211212 270.958618 L 223.893005 272.6521 Z"/>
                <path id="path106" fill="#afafaf" stroke="none" d="M 243.913773 269.862732 L 261.231995 268.16922 L 261.31958 269.065002 L 244.001373 270.758484 Z"/>
                <path id="path107" fill="#afafaf" stroke="none" d="M 191.543365 283.43222 L 224.587326 280.200928 L 224.674927 281.096741 L 191.630966 284.328003 Z"/>
                <path id="path108" fill="#afafaf" stroke="none" d="M 256.499939 277.112366 L 268.642609 275.924927 L 268.730194 276.820709 L 256.587524 278.008148 Z"/>
            </g>
            <path id="path109" fill="#f3f4f4" fill-rule="evenodd" stroke="none" d="M 268 84.299988 C 267.799988 83.399994 267.100006 83.200012 266.399994 83.299988 L 262.799988 84 C 261.899994 84.200012 262.5 85.799988 263 87.899994 C 263.200012 88.5 263.600006 88.799988 264.399994 88.600006 C 267.5 87.899994 269 92.899994 265.299988 93.700012 C 262.899994 94.200012 262 92.5 261.399994 90.100006 C 260.299988 85.399994 259.600006 84.799988 258.600006 85 L 255.899994 85.600006 C 254.899994 85.799988 255.100006 86.899994 255.5 88.700012 C 255.699997 89.799988 255.899994 90.299988 256.5 90.200012 C 260.100006 89.399994 261.100006 94.399994 257.600006 95.200012 C 255.399994 95.700012 254.300003 93.399994 254.399994 91.5 C 254.300003 90.899994 254.699997 90.700012 254.600006 90 C 254.100006 87.600006 253.399994 86.200012 252.100006 86.5 L 247.699997 87.399994 L 248.5 90.899994 C 248.600006 91.5 249 91.799988 249.600006 91.700012 C 252.699997 91 254.100006 96 249.800003 97 C 248.399994 97.299988 246.800003 96.600006 246.199997 94.799988 C 245.600006 92.299988 246.800003 92 246.600006 90.200012 C 246.100006 88.399994 245.199997 88.200012 244.399994 88.299988 L 240.800003 89 C 239.899994 89.200012 240.5 90.799988 241 92.899994 C 241.199997 93.5 241.600006 93.799988 242.399994 93.600006 C 245.5 92.899994 247 97.899994 243.300003 98.700012 C 240.899994 99.200012 240 97.5 239.399994 95.100006 C 238.300003 90.399994 237.600006 89.799988 236.600006 90 L 233.899994 90.600006 C 232.899994 90.799988 233.100006 91.899994 233.5 93.700012 C 233.699997 94.799988 233.899994 95.299988 234.5 95.200012 C 238.100006 94.399994 239.100006 99.399994 235.600006 100.200012 C 233.399994 100.700012 232.300003 98.399994 232.399994 96.5 C 232.300003 95.899994 232.699997 95.700012 232.600006 95 C 232.100006 92.600006 231.399994 91.200012 230.100006 91.5 L 225.699997 92.399994 L 226.5 95.899994 C 226.600006 96.5 227 96.799988 227.600006 96.700012 C 230.699997 96 231.899994 101.100006 228.399994 101.899994 C 225.699997 102.5 224.899994 100 224.300003 97.399994 L 223.399994 93.700012 C 223.100006 93.299988 222.899994 93.200012 222.5 93.299988 L 218.899994 94 C 218 94.200012 218.600006 95.799988 219.100006 97.899994 C 219.300003 98.5 219.699997 98.799988 220.5 98.600006 C 223.600006 97.899994 225.100006 102.899994 221.399994 103.700012 C 219 104.200012 218.100006 102.5 217.5 100.100006 C 216.399994 95.399994 215.699997 94.799988 214.699997 95 L 212 95.600006 C 211 95.799988 211.199997 96.899994 211.600006 98.700012 C 211.800003 99.799988 212 100.299988 212.600006 100.200012 C 216.199997 99.399994 217.199997 104.399994 213.699997 105.200012 C 211.5 105.700012 210.399994 103.399994 210.5 101.5 C 210.399994 100.899994 210.800003 100.700012 210.699997 100 C 210.199997 97.600006 209.5 96.200012 208.199997 96.5 L 203.800003 97.399994 L 204.600006 100.899994 C 204.699997 101.5 205.100006 101.799988 205.699997 101.700012 C 208.800003 101 210.199997 106 205.899994 107 C 204.5 107.299988 202.899994 106.600006 202.300003 104.799988 C 201.699997 102.299988 202.899994 102 202.699997 100.200012 C 202.199997 98.399994 201.300003 98.200012 200.5 98.299988 L 196.899994 99 C 196 99.200012 196.600006 100.799988 197.100006 102.899994 C 197.300003 103.5 197.699997 103.799988 198.5 103.600006 C 201.600006 102.899994 203.100006 107.899994 199.399994 108.700012 C 197 109.200012 196.100006 107.5 195.5 105.100006 C 194.399994 100.399994 193.699997 99.799988 192.699997 100 L 190 100.600006 C 189 100.799988 189.199997 101.899994 189.600006 103.700012 C 189.800003 104.799988 190 105.299988 190.600006 105.200012 C 194.199997 104.399994 195.199997 109.399994 191.699997 110.200012 C 189.5 110.700012 188.399994 108.399994 188.5 106.5 C 188.399994 105.899994 188.800003 105.700012 188.699997 105 C 188.199997 102.600006 187.5 101.200012 186.199997 101.5 L 181.800003 102.399994 L 182.600006 105.899994 C 182.699997 106.5 183.100006 106.799988 183.699997 106.700012 C 186.800003 106 188.199997 111 183.899994 112 C 181.5 112.5 180.800003 109.799988 181.399994 107.200012 C 181.5 106 181.300003 105.100006 180.800003 104.399994 C 180 103.5 179.399994 103.100006 178.300003 103.299988 L 174.699997 104 C 173.800003 104.200012 174.399994 105.799988 174.899994 107.899994 C 175.100006 108.5 175.5 108.799988 176.300003 108.600006 C 179.399994 107.899994 180.899994 112.899994 177.199997 113.700012 C 174.800003 114.200012 173.899994 112.5 173.300003 110.100006 C 172.199997 105.399994 171.5 104.799988 170.5 105 L 167.800003 105.600006 C 166.800003 105.799988 167 106.899994 167.399994 108.700012 C 167.600006 109.799988 167.800003 110.299988 168.399994 110.200012 C 172 109.399994 173 114.399994 169.5 115.200012 C 167.300003 115.700012 166.199997 113.399994 166.300003 111.5 C 166.199997 110.899994 166.600006 110.700012 166.5 110 C 166 107.600006 165.300003 106.200012 164 106.5 L 159.600006 107.399994 L 160.399994 110.899994 C 160.5 111.5 160.899994 111.799988 161.5 111.700012 C 164.600006 111 166 116 161.699997 117 C 160.300003 117.299988 158.699997 116.600006 158.100006 114.799988 C 157.5 112.299988 158.699997 112 158.5 110.200012 C 158 108.399994 157.100006 108.200012 156.300003 108.299988 L 152.699997 109 C 151.800003 109.200012 152.399994 110.799988 152.899994 112.899994 C 153.100006 113.5 153.5 113.799988 154.300003 113.600006 C 157.399994 112.899994 158.899994 117.899994 155.199997 118.700012 C 152.800003 119.200012 151.899994 117.5 151.300003 115.100006 C 150.199997 110.399994 149.5 109.799988 148.5 110 L 145.800003 110.600006 C 144.800003 110.799988 145 111.899994 145.399994 113.700012 C 145.600006 114.799988 145.800003 115.299988 146.399994 115.200012 C 150 114.399994 151 119.399994 147.5 120.200012 C 145.300003 120.700012 144.199997 118.399994 144.300003 116.5 C 144.199997 115.899994 144.600006 115.700012 144.5 115 C 144 112.600006 143.300003 111.200012 142 111.5 L 137.600006 112.399994 L 138.399994 115.899994 C 138.5 116.5 138.899994 116.799988 139.5 116.700012 C 142.600006 116 144 121 139.699997 122 C 139 122.200012 138.199997 122.799988 138.199997 123.399994 C 138.199997 123.700012 138.199997 124 138.100006 124.399994 L 176.5 293.399994 L 308.600006 263.399994 L 270.200012 94.399994 L 270.200012 94.399994 C 269.600006 91.200012 268.799988 87.700012 268 84.299988 Z"/>
            <path id="path110" fill="#afafaf" stroke="none" d="M 169.90097 167.417145 L 177.897629 165.601654 L 178.096878 166.47934 L 170.100235 168.29483 Z"/>
            <path id="path111" fill="#afafaf" stroke="none" d="M 182.019623 164.739471 L 190.211288 162.8797 L 190.410553 163.757385 L 182.218872 165.617126 Z"/>
            <path id="path112" fill="#afafaf" stroke="none" d="M 194.519699 161.91391 L 202.516342 160.098419 L 202.715591 160.976105 L 194.718964 162.791565 Z"/>
            <path id="path113" fill="#afafaf" stroke="none" d="M 206.817841 159.114014 L 214.814484 157.298523 L 215.013748 158.176239 L 207.017105 159.991699 Z"/>
            <path id="path114" fill="#afafaf" stroke="none" d="M 219.317719 156.288757 L 227.119324 154.517548 L 227.318588 155.395233 L 219.516983 157.166443 Z"/>
            <path id="path115" fill="#afafaf" stroke="none" d="M 178.972641 174.415436 L 215.152557 166.201477 L 215.351822 167.079163 L 179.171906 175.293091 Z"/>
            <path id="path116" fill="#afafaf" stroke="none" d="M 222.675125 164.50766 L 258.855042 156.293701 L 259.054291 157.171417 L 222.87439 165.385345 Z"/>
            <path id="path117" fill="#afafaf" stroke="none" d="M 173.703506 184.45163 L 189.794312 180.800201 L 189.993469 181.677856 L 173.902679 185.329315 Z"/>
            <path id="path118" fill="#afafaf" stroke="none" d="M 191.709885 180.276337 L 208.093231 176.556824 L 208.292496 177.434509 L 191.909149 181.154022 Z"/>
            <path id="path119" fill="#afafaf" stroke="none" d="M 220.621262 173.769775 L 237.004623 170.050262 L 237.203888 170.927948 L 220.820526 174.647461 Z"/>
            <path id="path120" fill="#afafaf" stroke="none" d="M 239.208298 169.516785 L 255.299103 165.863708 L 255.498367 166.741394 L 239.407562 170.39447 Z"/>
            <path id="path121" fill="#afafaf" stroke="none" d="M 197.07959 188.074036 L 202.930786 186.745636 L 203.130051 187.623322 L 197.278839 188.951721 Z"/>
            <path id="path122" fill="#afafaf" stroke="none" d="M 206.594849 185.980316 L 212.641083 184.607635 L 212.840347 185.485321 L 206.794098 186.858002 Z"/>
            <path id="path123" fill="#afafaf" stroke="none" d="M 216.393616 183.761475 L 222.244812 182.433075 L 222.444077 183.31073 L 216.59288 184.63913 Z"/>
            <path id="path124" fill="#afafaf" stroke="none" d="M 226.17746 181.463593 L 232.028656 180.135193 L 232.227921 181.012848 L 226.376709 182.341248 Z"/>
            <path id="path125" fill="#afafaf" stroke="none" d="M 235.989944 179.282837 L 242.036179 177.910156 L 242.235443 178.787811 L 236.189194 180.160492 Z"/>
            <path id="path126" fill="#afafaf" stroke="none" d="M 245.594086 177.107422 L 251.835358 175.69046 L 252.034622 176.568176 L 245.79335 177.985107 Z"/>
            <path id="path127" fill="#afafaf" stroke="none" d="M 255.386154 174.869873 L 261.237366 173.541473 L 261.436615 174.419159 L 255.585419 175.747559 Z"/>
            <path id="path128" fill="#afafaf" stroke="none" d="M 265.192047 172.669403 L 271.043243 171.341003 L 271.242523 172.218689 L 265.391296 173.547089 Z"/>
            <path id="path129" fill="#afafaf" stroke="none" d="M 177.564743 201.349915 L 205.162903 195.08429 L 205.362167 195.961975 L 177.764008 202.2276 Z"/>
            <path id="path130" fill="#afafaf" stroke="none" d="M 207.562927 194.537445 L 235.161087 188.27182 L 235.360352 189.149536 L 207.762177 195.415131 Z"/>
            <path id="path131" fill="#afafaf" stroke="none" d="M 237.851624 187.618744 L 265.352234 181.375275 L 265.551514 182.25296 L 238.050888 188.496429 Z"/>
            <path id="path132" fill="#afafaf" stroke="none" d="M 179.440659 209.35437 L 189.582748 207.051819 L 189.781998 207.929504 L 179.639908 210.232056 Z"/>
            <path id="path133" fill="#afafaf" stroke="none" d="M 193.33107 206.155975 L 203.473145 203.853424 L 203.672394 204.73111 L 193.530319 207.033661 Z"/>
            <path id="path134" fill="#afafaf" stroke="none" d="M 207.436691 202.970703 L 217.773819 200.623871 L 217.973083 201.501526 L 207.635956 203.848389 Z"/>
            <path id="path135" fill="#afafaf" stroke="none" d="M 221.349136 199.869812 L 231.686249 197.52298 L 231.885513 198.400665 L 221.548401 200.747498 Z"/>
            <path id="path136" fill="#afafaf" stroke="none" d="M 242.725464 194.930389 L 252.672501 192.672119 L 252.87175 193.549774 L 242.924713 195.808044 Z"/>
            <path id="path137" fill="#afafaf" stroke="none" d="M 256.846527 191.823334 L 266.793579 189.565033 L 266.992828 190.442719 L 257.045776 192.701019 Z"/>
            <path id="path138" fill="#afafaf" stroke="none" d="M 181.441528 218.040741 L 200.360397 213.745605 L 200.559662 214.623291 L 181.640778 218.918457 Z"/>
            <path id="path139" fill="#afafaf" stroke="none" d="M 217.947906 209.769012 L 237.061813 205.429565 L 237.261078 206.307251 L 218.147156 210.646667 Z"/>
            <path id="path140" fill="#afafaf" stroke="none" d="M 254.164566 201.602173 L 273.571045 197.19632 L 273.770294 198.074005 L 254.363815 202.479858 Z"/>
            <path id="path141" fill="#afafaf" stroke="none" d="M 205.396744 221.258423 L 235.920502 214.328613 L 236.119751 215.206268 L 205.596008 222.136108 Z"/>
            <path id="path142" fill="#afafaf" stroke="none" d="M 242.089615 212.882843 L 272.710907 205.930878 L 272.910187 206.808594 L 242.288879 213.760529 Z"/>
            <path id="path143" fill="#afafaf" stroke="none" d="M 202.135941 231.149811 L 259.672729 218.087219 L 259.872009 218.964905 L 202.335205 232.027496 Z"/>
            <path id="path144" fill="#afafaf" stroke="none" d="M 208.59874 238.675934 L 222.544098 235.509918 L 222.699081 236.192535 L 208.753723 239.358551 Z"/>
            <path id="path145" fill="#afafaf" stroke="none" d="M 225.509293 234.882019 L 239.454651 231.715973 L 239.609634 232.398621 L 225.664276 235.564636 Z"/>
            <path id="path146" fill="#afafaf" stroke="none" d="M 242.51738 231.065826 L 256.462738 227.899811 L 256.617737 228.582458 L 242.672348 231.748474 Z"/>
            <path id="path147" fill="#afafaf" stroke="none" d="M 259.405884 227.174408 L 273.351257 224.008392 L 273.506256 224.69101 L 259.560883 227.857056 Z"/>
            <path id="path148" fill="#afafaf" stroke="none" d="M 192.320618 251.263748 L 239.520294 240.548004 L 239.719559 241.42569 L 192.519882 252.141449 Z"/>
            <path id="path149" fill="#afafaf" stroke="none" d="M 241.729645 239.985413 L 267.182373 234.206879 L 267.381622 235.084564 L 241.928894 240.863098 Z"/>
            <path id="path150" fill="#afafaf" stroke="none" d="M 200.862885 258.241455 L 219.781769 253.946289 L 219.936737 254.628906 L 201.017853 258.924072 Z"/>
            <path id="path151" fill="#afafaf" stroke="none" d="M 222.431778 253.387436 L 230.233368 251.616241 L 230.388351 252.298874 L 222.586746 254.070084 Z"/>
            <path id="path152" fill="#afafaf" stroke="none" d="M 231.330063 251.370987 L 239.034134 249.621918 L 239.189117 250.30455 L 231.485046 252.053619 Z"/>
            <path id="path153" fill="#afafaf" stroke="none" d="M 240.430573 249.328842 L 247.744568 247.668335 L 247.899551 248.350983 L 240.585556 250.011475 Z"/>
            <path id="path154" fill="#afafaf" stroke="none" d="M 248.939774 247.399338 L 256.741364 245.628143 L 256.896362 246.310776 L 249.094757 248.081985 Z"/>
            <path id="path155" fill="#afafaf" stroke="none" d="M 257.93576 245.360443 L 265.639862 243.611389 L 265.79483 244.294022 L 258.090759 246.043076 Z"/>
            <path id="path156" fill="#afafaf" stroke="none" d="M 267.124573 243.237823 L 274.438599 241.577332 L 274.593567 242.259979 L 267.279572 243.920471 Z"/>
            <path id="path157" fill="#afafaf" stroke="none" d="M 275.731323 241.286194 L 283.532898 239.514984 L 283.687897 240.197632 L 275.886292 241.968842 Z"/>
            <path id="path158" fill="#afafaf" stroke="none" d="M 222.533508 262.017273 L 239.501999 258.164917 L 239.701263 259.042572 L 222.732773 262.894958 Z"/>
            <path id="path159" fill="#afafaf" stroke="none" d="M 242.628601 257.426697 L 259.597076 253.574341 L 259.796326 254.452011 L 242.827866 258.304382 Z"/>
            <path id="path160" fill="#afafaf" stroke="none" d="M 262.426361 252.923386 L 279.394867 249.071014 L 279.594116 249.948685 L 262.62561 253.801056 Z"/>
            <path id="path161" fill="#afafaf" stroke="none" d="M 212.227493 272.967468 L 244.506622 265.63916 L 244.705887 266.516846 L 212.426758 273.845215 Z"/>
            <path id="path162" fill="#afafaf" stroke="none" d="M 275.854797 258.461212 L 287.752228 255.760132 L 287.951508 256.637817 L 276.054047 259.338867 Z"/>
            <path id="path163" fill="#596273" fill-rule="evenodd" stroke="none" d="M 136.300003 136.600006 C 135.800003 136.600006 135.899994 137.299988 136.300003 137.299988 L 155.600006 136.799988 C 160.300003 136.600006 159.699997 130.299988 155.300003 130.5 L 132 131.100006 C 127.5 131.299988 126.900002 138.700012 132.300003 138.5 L 138 138.299988 L 137.899994 137.600006 L 132.600006 137.799988 C 127.900002 138 128.199997 131.899994 132.399994 131.799988 L 154.699997 131.200012 C 159 131 159.5 136 154.899994 136.200012 L 136.300003 136.600006 Z"/>
        </g>
        <path id="path164" fill="#ffffff" fill-rule="evenodd" stroke="none" d="M 394.700012 194.600006 C 395 193.600006 394.5 193 393.700012 192.700012 L 389.799988 191.399994 C 388.799988 191.100006 388.5 193 387.799988 195.200012 C 387.600006 195.899994 387.899994 196.399994 388.700012 196.700012 C 392 197.700012 390.799988 203.399994 386.700012 202.100006 C 384.100006 201.299988 384.100006 199.100006 385 196.399994 C 386.600006 191.299988 386.200012 190.299988 385.100006 189.899994 L 382.100006 189 C 381.100006 188.700012 380.600006 189.799988 380 191.799988 C 379.600006 193 379.5 193.600006 380.100006 193.799988 C 384.100006 195 382.200012 200.399994 378.399994 199.200012 C 376 198.5 376.200012 195.600006 377.299988 193.799988 C 377.5 193.200012 378.100006 193.200012 378.299988 192.399994 C 379.100006 189.799988 379.200012 188 377.899994 187.600006 L 373.200012 186 L 372 189.899994 C 371.700012 190.600006 371.899994 191 372.600006 191.299988 C 375.899994 192.299988 374.600006 198 369.799988 196.5 C 368.299988 196 367.100006 194.5 367.600006 192.299988 C 368.399994 189.5 369.799988 189.899994 370.600006 188.100006 C 371.200012 186.100006 370.399994 185.399994 369.5 185.100006 L 365.600006 183.799988 C 364.600006 183.5 364.299988 185.399994 363.600006 187.600006 C 363.399994 188.299988 363.700012 188.799988 364.5 189.100006 C 367.799988 190.100006 366.600006 195.799988 362.5 194.5 C 359.899994 193.700012 359.899994 191.5 360.799988 188.799988 C 362.399994 183.700012 362 182.700012 360.899994 182.299988 L 357.899994 181.399994 C 356.899994 181.100006 356.399994 182.200012 355.799988 184.200012 C 355.399994 185.399994 355.299988 186 355.899994 186.200012 C 359.899994 187.399994 358 192.799988 354.200012 191.600006 C 351.799988 190.899994 352 188 353.100006 186.200012 C 353.299988 185.600006 353.899994 185.600006 354.100006 184.799988 C 354.899994 182.200012 355 180.399994 353.700012 180 L 349 178.399994 L 347.799988 182.299988 C 347.5 183 347.700012 183.399994 348.399994 183.700012 C 351.700012 184.700012 350.200012 190.299988 346.299988 189.200012 C 343.399994 188.299988 344 185.399994 344.899994 182.600006 L 346.200012 178.5 C 346.200012 178 345.899994 177.700012 345.600006 177.600006 L 341.700012 176.299988 C 340.700012 176 340.399994 177.899994 339.700012 180.100006 C 339.5 180.799988 339.799988 181.299988 340.600006 181.600006 C 343.899994 182.600006 342.700012 188.299988 338.600006 187 C 336 186.200012 336 184 336.899994 181.299988 C 338.5 176.200012 338.100006 175.200012 337 174.799988 L 334.100006 173.899994 C 333.100006 173.600006 332.600006 174.700012 332 176.700012 C 331.600006 177.899994 331.5 178.5 332.100006 178.700012 C 336.100006 179.899994 334.200012 185.299988 330.399994 184.100006 C 328 183.399994 328.200012 180.5 329.299988 178.700012 C 329.5 178.100006 330.100006 178.100006 330.299988 177.299988 C 331.100006 174.700012 331.200012 172.899994 329.899994 172.5 L 325.200012 170.899994 L 324 174.799988 C 323.700012 175.5 323.899994 175.899994 324.600006 176.200012 C 327.899994 177.200012 326.600006 182.899994 321.799988 181.399994 C 320.299988 180.899994 319.100006 179.399994 319.600006 177.200012 C 320.399994 174.399994 321.799988 174.799988 322.600006 173 C 323.200012 171 322.399994 170.299988 321.5 170 L 317.600006 168.700012 C 316.600006 168.399994 316.299988 170.299988 315.600006 172.5 C 315.399994 173.200012 315.700012 173.700012 316.5 174 C 319.799988 175 318.600006 180.700012 314.5 179.399994 C 311.899994 178.600006 311.899994 176.399994 312.799988 173.700012 C 314.399994 168.600006 314 167.600006 312.899994 167.200012 L 310 166.299988 C 309 166 308.5 167.100006 307.899994 169.100006 C 307.5 170.299988 307.399994 170.899994 308 171.100006 C 312 172.299988 310.100006 177.700012 306.299988 176.5 C 303.899994 175.799988 304.100006 172.899994 305.200012 171.100006 C 305.399994 170.5 306 170.5 306.200012 169.700012 C 307 167.100006 307.100006 165.299988 305.799988 164.899994 L 301.100006 163.299988 L 299.899994 167.200012 C 299.600006 167.899994 299.799988 168.299988 300.5 168.600006 C 303.799988 169.600006 302.5 175.299988 297.700012 173.799988 C 295.100006 173 295.899994 170 297.899994 167.799988 C 298.700012 166.700012 299 165.700012 298.899994 164.799988 C 298.700012 163.5 298.299988 162.799988 297.100006 162.299988 L 293.200012 161 C 292.200012 160.700012 291.899994 162.600006 291.200012 164.799988 C 291 165.5 291.299988 166 292.100006 166.299988 C 295.399994 167.299988 294.200012 173 290.100006 171.700012 C 287.5 170.899994 287.5 168.700012 288.399994 166 C 290 160.899994 289.600006 159.899994 288.5 159.5 L 285.600006 158.600006 C 284.600006 158.299988 284.100006 159.399994 283.5 161.399994 C 283.100006 162.600006 283 163.200012 283.600006 163.399994 C 287.600006 164.600006 285.700012 170 281.899994 168.799988 C 279.5 168.100006 279.700012 165.200012 280.799988 163.399994 C 281 162.799988 281.600006 162.799988 281.799988 162 C 282.600006 159.399994 282.700012 157.600006 281.399994 157.200012 L 276.700012 155.600006 L 275.5 159.5 C 275.200012 160.200012 275.399994 160.600006 276.100006 160.899994 C 279.399994 161.899994 278.100006 167.600006 273.299988 166.100006 C 271.799988 165.600006 270.600006 164.100006 271.100006 161.899994 C 271.899994 159.100006 273.299988 159.5 274.100006 157.700012 C 274.700012 155.700012 273.899994 155 273 154.700012 L 269.100006 153.399994 C 268.100006 153.100006 267.799988 155 267.100006 157.200012 C 266.899994 157.899994 267.200012 158.399994 268 158.700012 C 271.299988 159.700012 270.100006 165.399994 266 164.100006 C 263.399994 163.299988 263.399994 161.100006 264.299988 158.399994 C 265.899994 153.299988 265.5 152.299988 264.399994 151.899994 L 261.5 151 C 260.5 150.700012 260 151.799988 259.399994 153.799988 C 259 155 258.899994 155.600006 259.5 155.799988 C 263.5 157 261.600006 162.399994 257.799988 161.200012 C 255.399994 160.5 255.600006 157.600006 256.700012 155.799988 C 256.899994 155.200012 257.5 155.200012 257.700012 154.399994 C 258.5 151.799988 258.600006 150 257.299988 149.600006 L 252.600006 148 L 251.399994 151.899994 C 251.100006 152.600006 251.300003 153 252 153.299988 C 255.300003 154.299988 254 160 249.199997 158.5 C 248.399994 158.299988 247.300003 158.399994 247 159 C 246.800003 159.299988 246.699997 159.600006 246.399994 159.899994 L 189.199997 344.799988 L 333.700012 389.5 L 391.100006 206 L 391.100006 206 C 392.399994 202.100006 393.600006 198.299988 394.700012 194.600006 Z"/>
        <path id="path165" fill="#afafaf" stroke="none" d="M 253.041763 221.22876 L 253.307983 220.36908 L 262.191345 223.120026 L 261.92514 223.979675 Z"/>
        <path id="path166" fill="#afafaf" stroke="none" d="M 266.402039 225.324463 L 266.668243 224.464783 L 275.551605 227.215729 L 275.2854 228.075409 Z"/>
        <path id="path167" fill="#afafaf" stroke="none" d="M 280.052338 229.531555 L 280.318542 228.671906 L 289.201904 231.422821 L 288.935699 232.282501 Z"/>
        <path id="path168" fill="#afafaf" stroke="none" d="M 293.527802 233.778259 L 293.794037 232.918579 L 302.677368 235.669525 L 302.411163 236.529205 Z"/>
        <path id="path169" fill="#afafaf" stroke="none" d="M 306.960358 237.901428 L 307.226593 237.041779 L 315.823395 239.703979 L 315.557159 240.563629 Z"/>
        <path id="path170" fill="#afafaf" stroke="none" d="M 258.016968 232.901825 L 258.283203 232.042145 L 297.828461 244.288269 L 297.562256 245.147934 Z"/>
        <path id="path171" fill="#afafaf" stroke="none" d="M 305.801086 247.67601 L 306.067291 246.816315 L 345.612579 259.062439 L 345.346375 259.922119 Z"/>
        <path id="path172" fill="#afafaf" stroke="none" d="M 247.346481 239.745361 L 247.612701 238.885681 L 265.283905 244.357986 L 265.01767 245.217667 Z"/>
        <path id="path173" fill="#afafaf" stroke="none" d="M 267.180725 245.876968 L 267.44693 245.017273 L 285.309204 250.548737 L 285.042969 251.408432 Z"/>
        <path id="path174" fill="#afafaf" stroke="none" d="M 298.684143 255.6026 L 298.950348 254.742935 L 316.812592 260.274384 L 316.546356 261.134064 Z"/>
        <path id="path175" fill="#afafaf" stroke="none" d="M 318.950195 261.878998 L 319.216431 261.019348 L 336.887604 266.491638 L 336.621399 267.351318 Z"/>
        <path id="path176" fill="#afafaf" stroke="none" d="M 267.84967 256.254028 L 268.115875 255.394379 L 274.420197 257.346649 L 274.153992 258.206329 Z"/>
        <path id="path177" fill="#afafaf" stroke="none" d="M 278.382782 259.547913 L 278.649017 258.688232 L 285.144379 260.699646 L 284.878143 261.559357 Z"/>
        <path id="path178" fill="#afafaf" stroke="none" d="M 288.870605 262.714355 L 289.13681 261.854675 L 295.632202 263.866119 L 295.365967 264.725769 Z"/>
        <path id="path179" fill="#afafaf" stroke="none" d="M 299.666138 266.093201 L 299.932343 265.233521 L 306.427734 267.244995 L 306.161499 268.104675 Z"/>
        <path id="path180" fill="#afafaf" stroke="none" d="M 310.344513 269.443024 L 310.610748 268.583374 L 317.39267 270.683533 L 317.126434 271.543213 Z"/>
        <path id="path181" fill="#afafaf" stroke="none" d="M 321.097046 272.698395 L 321.363281 271.838715 L 327.858643 273.850159 L 327.592438 274.709839 Z"/>
        <path id="path182" fill="#afafaf" stroke="none" d="M 331.820526 276.049988 L 332.086731 275.190308 L 338.391052 277.142578 L 338.124847 278.002258 Z"/>
        <path id="path183" fill="#afafaf" stroke="none" d="M 342.352142 279.341248 L 342.618378 278.481567 L 349.113708 280.492981 L 348.847473 281.352692 Z"/>
        <path id="path184" fill="#afafaf" stroke="none" d="M 241.648636 258.254364 L 241.914856 257.394684 L 272.194702 266.771545 L 271.928467 267.631226 Z"/>
        <path id="path185" fill="#afafaf" stroke="none" d="M 274.427734 268.435486 L 274.69397 267.575806 L 304.782745 276.893494 L 304.516541 277.753174 Z"/>
        <path id="path186" fill="#afafaf" stroke="none" d="M 307.519928 278.729706 L 307.786133 277.870056 L 337.874939 287.187744 L 337.608704 288.047424 Z"/>
        <path id="path187" fill="#afafaf" stroke="none" d="M 238.914886 267.103394 L 239.240265 266.052673 L 250.416107 269.513519 L 250.090729 270.56424 Z"/>
        <path id="path188" fill="#afafaf" stroke="none" d="M 254.035568 271.848145 L 254.360947 270.797424 L 265.727814 274.317444 L 265.402435 275.368164 Z"/>
        <path id="path189" fill="#afafaf" stroke="none" d="M 269.617126 276.641449 L 269.942505 275.590729 L 281.118378 279.051575 L 280.792999 280.102295 Z"/>
        <path id="path190" fill="#afafaf" stroke="none" d="M 284.790466 281.292542 L 285.115845 280.241821 L 296.291656 283.702698 L 295.966278 284.753418 Z"/>
        <path id="path191" fill="#afafaf" stroke="none" d="M 308.121857 288.577454 L 308.447235 287.526733 L 319.432037 290.928467 L 319.106659 291.979126 Z"/>
        <path id="path192" fill="#afafaf" stroke="none" d="M 323.441132 293.28595 L 323.76651 292.235229 L 334.751312 295.636902 L 334.425934 296.687622 Z"/>
        <path id="path193" fill="#afafaf" stroke="none" d="M 236.001328 276.558594 L 236.267548 275.698914 L 256.899872 282.088196 L 256.633636 282.947876 Z"/>
        <path id="path194" fill="#afafaf" stroke="none" d="M 275.982971 288.935089 L 276.249176 288.075439 L 297.07254 294.523865 L 296.806335 295.383545 Z"/>
        <path id="path195" fill="#afafaf" stroke="none" d="M 315.526428 301.26416 L 315.792664 300.404449 L 337.093597 307.000793 L 336.827393 307.860474 Z"/>
        <path id="path196" fill="#afafaf" stroke="none" d="M 257.307526 293.114716 L 257.632904 292.063965 L 290.873901 302.357849 L 290.548492 303.408569 Z"/>
        <path id="path197" fill="#afafaf" stroke="none" d="M 297.529877 305.576782 L 297.855255 304.526062 L 331.287262 314.879059 L 330.961884 315.92981 Z"/>
        <path id="path198" fill="#afafaf" stroke="none" d="M 248.71257 300.831909 L 248.97879 299.972229 L 311.926453 319.465454 L 311.660248 320.325104 Z"/>
        <path id="path199" fill="#afafaf" stroke="none" d="M 250.71962 311.585083 L 250.98584 310.725403 L 266.173523 315.428619 L 265.907288 316.2883 Z"/>
        <path id="path200" fill="#afafaf" stroke="none" d="M 269.199158 317.330444 L 269.465363 316.470764 L 284.653076 321.174011 L 284.386841 322.033661 Z"/>
        <path id="path201" fill="#afafaf" stroke="none" d="M 287.773926 323.105103 L 288.040131 322.245422 L 303.227814 326.948608 L 302.961609 327.808289 Z"/>
        <path id="path202" fill="#afafaf" stroke="none" d="M 306.28302 328.755005 L 306.549255 327.895325 L 321.736938 332.598572 L 321.470734 333.458252 Z"/>
        <path id="path203" fill="#afafaf" stroke="none" d="M 228.040146 314.76593 L 228.306366 313.90625 L 279.887177 329.879456 L 279.620941 330.739136 Z"/>
        <path id="path204" fill="#afafaf" stroke="none" d="M 281.943146 331.453125 L 282.209351 330.593445 L 310.196686 339.260406 L 309.930481 340.120056 Z"/>
        <path id="path205" fill="#afafaf" stroke="none" d="M 232.37117 326.169891 L 232.63739 325.310181 L 253.269684 331.699463 L 253.003464 332.559143 Z"/>
        <path id="path206" fill="#afafaf" stroke="none" d="M 255.921936 333.534851 L 256.188171 332.675171 L 264.593903 335.278198 L 264.327698 336.137878 Z"/>
        <path id="path207" fill="#afafaf" stroke="none" d="M 265.586945 336.514404 L 265.85318 335.654724 L 274.449982 338.316925 L 274.183746 339.176575 Z"/>
        <path id="path208" fill="#afafaf" stroke="none" d="M 275.466766 339.556427 L 275.733002 338.696716 L 283.947723 341.240601 L 283.681488 342.100311 Z"/>
        <path id="path209" fill="#afafaf" stroke="none" d="M 285.130981 342.533997 L 285.397186 341.674316 L 293.802948 344.277344 L 293.536743 345.137024 Z"/>
        <path id="path210" fill="#afafaf" stroke="none" d="M 294.84198 345.516632 L 295.108215 344.656952 L 303.322937 347.200836 L 303.056702 348.060516 Z"/>
        <path id="path211" fill="#afafaf" stroke="none" d="M 304.771729 348.585815 L 305.037964 347.726166 L 313.252655 350.27002 L 312.98642 351.1297 Z"/>
        <path id="path212" fill="#afafaf" stroke="none" d="M 314.40625 351.658936 L 314.672485 350.799225 L 323.078247 353.402283 L 322.812012 354.261963 Z"/>
        <path id="path213" fill="#afafaf" stroke="none" d="M 251.200623 341.942993 L 251.466827 341.083344 L 269.997711 346.821838 L 269.731476 347.681519 Z"/>
        <path id="path214" fill="#afafaf" stroke="none" d="M 273.352173 348.802551 L 273.618378 347.94281 L 292.149261 353.681335 L 291.883026 354.541046 Z"/>
        <path id="path215" fill="#afafaf" stroke="none" d="M 294.75885 355.404114 L 295.025055 354.544434 L 313.746979 360.342102 L 313.480774 361.201782 Z"/>
        <path id="path216" fill="#afafaf" stroke="none" d="M 235.1819 346.958984 L 235.44812 346.099304 L 270.790527 357.043945 L 270.524292 357.903595 Z"/>
        <path id="path217" fill="#afafaf" stroke="none" d="M 304.601501 368.458313 L 304.867706 367.598633 L 317.953949 371.651062 L 317.687714 372.510773 Z"/>
        <g id="g3">
            <path id="path218" fill="#ffffff" stroke="none" d="M 350.5 396.299988 L 107.199997 396.299988 L 107.199997 303.600006 C 107.199997 296.899994 112.599998 291.5 119.300003 291.5 L 338.299988 291.5 C 345 291.5 350.399994 296.899994 350.399994 303.600006 L 350.399994 396.299988 Z"/>
            <g id="g4">
                <path id="path219" fill="#d2d5d9" stroke="none" d="M 125.199997 308.700012 L 111.400002 308.700012 L 111.400002 306.100006 C 111.400002 303.799988 113.300003 301.799988 115.699997 301.799988 L 121 301.799988 C 123.300003 301.799988 125.300003 303.700012 125.300003 306.100006 L 125.300003 308.700012 Z"/>
                <path id="path220" fill="#d2d5d9" stroke="none" d="M 142.100006 308.700012 L 128.300003 308.700012 L 128.300003 306.100006 C 128.300003 303.799988 130.199997 301.799988 132.600006 301.799988 L 137.899994 301.799988 C 140.199997 301.799988 142.199997 303.700012 142.199997 306.100006 L 142.199997 308.700012 Z"/>
                <path id="path221" fill="#d2d5d9" stroke="none" d="M 159.100006 308.700012 L 145.300003 308.700012 L 145.300003 306.100006 C 145.300003 303.799988 147.199997 301.799988 149.600006 301.799988 L 154.899994 301.799988 C 157.199997 301.799988 159.199997 303.700012 159.199997 306.100006 L 159.199997 308.700012 Z"/>
                <path id="path222" fill="#d2d5d9" stroke="none" d="M 176.100006 308.700012 L 162.300003 308.700012 L 162.300003 306.100006 C 162.300003 303.799988 164.199997 301.799988 166.600006 301.799988 L 171.899994 301.799988 C 174.199997 301.799988 176.199997 303.700012 176.199997 306.100006 L 176.199997 308.700012 Z"/>
                <path id="path223" fill="#d2d5d9" stroke="none" d="M 193.100006 308.700012 L 179.300003 308.700012 L 179.300003 306.100006 C 179.300003 303.799988 181.199997 301.799988 183.600006 301.799988 L 188.899994 301.799988 C 191.199997 301.799988 193.199997 303.700012 193.199997 306.100006 L 193.199997 308.700012 Z"/>
                <path id="path224" fill="#d2d5d9" stroke="none" d="M 210.100006 308.700012 L 196.300003 308.700012 L 196.300003 306.100006 C 196.300003 303.799988 198.199997 301.799988 200.600006 301.799988 L 205.899994 301.799988 C 208.199997 301.799988 210.199997 303.700012 210.199997 306.100006 L 210.199997 308.700012 Z"/>
                <path id="path225" fill="#d2d5d9" stroke="none" d="M 227.100006 308.700012 L 213.300003 308.700012 L 213.300003 306.100006 C 213.300003 303.799988 215.199997 301.799988 217.600006 301.799988 L 222.899994 301.799988 C 225.199997 301.799988 227.199997 303.700012 227.199997 306.100006 L 227.199997 308.700012 Z"/>
                <path id="path226" fill="#d2d5d9" stroke="none" d="M 244 308.700012 L 230.199997 308.700012 L 230.199997 306.100006 C 230.199997 303.799988 232.100006 301.799988 234.5 301.799988 L 239.800003 301.799988 C 242.100006 301.799988 244.100006 303.700012 244.100006 306.100006 L 244.100006 308.700012 Z"/>
                <path id="path227" fill="#d2d5d9" stroke="none" d="M 261 308.700012 L 247.199997 308.700012 L 247.199997 306.100006 C 247.199997 303.799988 249.100006 301.799988 251.5 301.799988 L 256.799988 301.799988 C 259.100006 301.799988 261.100006 303.700012 261.100006 306.100006 L 261.100006 308.700012 Z"/>
                <path id="path228" fill="#d2d5d9" stroke="none" d="M 278 308.700012 L 264.200012 308.700012 L 264.200012 306.100006 C 264.200012 303.799988 266.100006 301.799988 268.5 301.799988 L 273.799988 301.799988 C 276.100006 301.799988 278.100006 303.700012 278.100006 306.100006 L 278.100006 308.700012 Z"/>
                <path id="path229" fill="#d2d5d9" stroke="none" d="M 295 308.700012 L 281.200012 308.700012 L 281.200012 306.100006 C 281.200012 303.799988 283.100006 301.799988 285.5 301.799988 L 290.799988 301.799988 C 293.100006 301.799988 295.100006 303.700012 295.100006 306.100006 L 295.100006 308.700012 Z"/>
                <path id="path230" fill="#d2d5d9" stroke="none" d="M 312 308.700012 L 298.200012 308.700012 L 298.200012 306.100006 C 298.200012 303.799988 300.100006 301.799988 302.5 301.799988 L 307.799988 301.799988 C 310.100006 301.799988 312.100006 303.700012 312.100006 306.100006 L 312.100006 308.700012 Z"/>
                <path id="path231" fill="#d2d5d9" stroke="none" d="M 329 308.700012 L 315.200012 308.700012 L 315.200012 306.100006 C 315.200012 303.799988 317.100006 301.799988 319.5 301.799988 L 324.799988 301.799988 C 327.100006 301.799988 329.100006 303.700012 329.100006 306.100006 L 329.100006 308.700012 Z"/>
                <path id="path232" fill="#d2d5d9" stroke="none" d="M 345.899994 308.700012 L 332.100006 308.700012 L 332.100006 306.100006 C 332.100006 303.799988 334 301.799988 336.399994 301.799988 L 341.700012 301.799988 C 344 301.799988 346 303.700012 346 306.100006 L 346 308.700012 Z"/>
            </g>
            <g id="g5">
                <path id="path233" fill="#d2d5d9" stroke="none" d="M 111.800003 378.100006 L 125.599998 378.100006 L 125.599998 390.600006 L 111.800003 390.600006 Z"/>
                <path id="path234" fill="#d2d5d9" stroke="none" d="M 128.300003 378.100006 L 142.100006 378.100006 L 142.100006 390.600006 L 128.300003 390.600006 Z"/>
                <path id="path235" fill="#d2d5d9" stroke="none" d="M 145.300003 378.100006 L 159.100006 378.100006 L 159.100006 390.600006 L 145.300003 390.600006 Z"/>
                <path id="path236" fill="#d2d5d9" stroke="none" d="M 162.300003 378.100006 L 176.100006 378.100006 L 176.100006 390.600006 L 162.300003 390.600006 Z"/>
                <path id="path237" fill="#d2d5d9" stroke="none" d="M 179.899994 378.100006 L 261.600006 378.100006 L 261.600006 390.600006 L 179.899994 390.600006 Z"/>
                <path id="path238" fill="#d2d5d9" stroke="none" d="M 265.399994 378.100006 L 282.700012 378.100006 L 282.700012 390.600006 L 265.399994 390.600006 Z"/>
                <path id="path239" fill="#d2d5d9" stroke="none" d="M 286.100006 378.100006 L 299.899994 378.100006 L 299.899994 390.600006 L 286.100006 390.600006 Z"/>
                <path id="path240" fill="#d2d5d9" stroke="none" d="M 315.399994 390.600006 L 302.5 390.600006 L 302.5 386.5 C 302.5 385.100006 303.600006 384 305 384 L 312.899994 384 C 314.299988 384 315.399994 385.100006 315.399994 386.5 L 315.399994 390.600006 Z"/>
                <path id="path241" fill="#d2d5d9" stroke="none" d="M 331.100006 383.299988 L 317.299988 383.299988 L 317.299988 380.799988 C 317.299988 379.299988 318.5 378 320.100006 378 L 328.399994 378 C 329.899994 378 331.200012 379.200012 331.200012 380.799988 L 331.200012 383.299988 Z"/>
                <path id="path242" fill="#d2d5d9" stroke="none" d="M 317.299988 385.100006 L 331.100006 385.100006 L 331.100006 390.600006 L 317.299988 390.600006 Z"/>
                <path id="path243" fill="#d2d5d9" stroke="none" d="M 345.899994 390.600006 L 332.899994 390.600006 L 332.899994 387 C 332.899994 385.399994 334.200012 384 335.899994 384 L 342.899994 384 C 344.5 384 345.899994 385.299988 345.899994 387 L 345.899994 390.600006 Z"/>
            </g>
            <g id="g6">
                <path id="path244" fill="#d2d5d9" stroke="none" d="M 143.699997 361.299988 L 157.5 361.299988 L 157.5 373.799988 L 143.699997 373.799988 Z"/>
                <path id="path245" fill="#d2d5d9" stroke="none" d="M 160.300003 361.299988 L 174.100006 361.299988 L 174.100006 373.799988 L 160.300003 373.799988 Z"/>
                <path id="path246" fill="#d2d5d9" stroke="none" d="M 177 361.299988 L 190.800003 361.299988 L 190.800003 373.799988 L 177 373.799988 Z"/>
                <path id="path247" fill="#d2d5d9" stroke="none" d="M 193.600006 361.299988 L 207.399994 361.299988 L 207.399994 373.799988 L 193.600006 373.799988 Z"/>
                <path id="path248" fill="#d2d5d9" stroke="none" d="M 210.199997 361.299988 L 224 361.299988 L 224 373.799988 L 210.199997 373.799988 Z"/>
                <path id="path249" fill="#d2d5d9" stroke="none" d="M 226.800003 361.299988 L 240.600006 361.299988 L 240.600006 373.799988 L 226.800003 373.799988 Z"/>
                <path id="path250" fill="#d2d5d9" stroke="none" d="M 243.5 361.299988 L 257.299988 361.299988 L 257.299988 373.799988 L 243.5 373.799988 Z"/>
                <path id="path251" fill="#d2d5d9" stroke="none" d="M 260.100006 361.299988 L 273.899994 361.299988 L 273.899994 373.799988 L 260.100006 373.799988 Z"/>
                <path id="path252" fill="#d2d5d9" stroke="none" d="M 276.700012 361.299988 L 290.5 361.299988 L 290.5 373.799988 L 276.700012 373.799988 Z"/>
                <path id="path253" fill="#d2d5d9" stroke="none" d="M 293.399994 361.299988 L 307.200012 361.299988 L 307.200012 373.799988 L 293.399994 373.799988 Z"/>
                <path id="path254" fill="#d2d5d9" stroke="none" d="M 310 361.299988 L 346 361.299988 L 346 373.799988 L 310 373.799988 Z"/>
                <path id="path255" fill="#d2d5d9" stroke="none" d="M 111.699997 361.299988 L 140 361.299988 L 140 373.799988 L 111.699997 373.799988 Z"/>
            </g>
            <g id="g7">
                <path id="path256" fill="#d2d5d9" stroke="none" d="M 111.300003 313 L 125.099998 313 L 125.099998 325.5 L 111.300003 325.5 Z"/>
                <path id="path257" fill="#d2d5d9" stroke="none" d="M 128.300003 313 L 142.100006 313 L 142.100006 325.5 L 128.300003 325.5 Z"/>
                <path id="path258" fill="#d2d5d9" stroke="none" d="M 145.300003 313 L 159.100006 313 L 159.100006 325.5 L 145.300003 325.5 Z"/>
                <path id="path259" fill="#d2d5d9" stroke="none" d="M 162.300003 313 L 176.100006 313 L 176.100006 325.5 L 162.300003 325.5 Z"/>
                <path id="path260" fill="#d2d5d9" stroke="none" d="M 179.300003 313 L 193.100006 313 L 193.100006 325.5 L 179.300003 325.5 Z"/>
                <path id="path261" fill="#d2d5d9" stroke="none" d="M 196.199997 313 L 210 313 L 210 325.5 L 196.199997 325.5 Z"/>
                <path id="path262" fill="#d2d5d9" stroke="none" d="M 213.199997 313 L 227 313 L 227 325.5 L 213.199997 325.5 Z"/>
                <path id="path263" fill="#d2d5d9" stroke="none" d="M 230.199997 313 L 244 313 L 244 325.5 L 230.199997 325.5 Z"/>
                <path id="path264" fill="#d2d5d9" stroke="none" d="M 247.199997 313 L 261 313 L 261 325.5 L 247.199997 325.5 Z"/>
                <path id="path265" fill="#d2d5d9" stroke="none" d="M 264.200012 313 L 278 313 L 278 325.5 L 264.200012 325.5 Z"/>
                <path id="path266" fill="#d2d5d9" stroke="none" d="M 281.200012 313 L 295 313 L 295 325.5 L 281.200012 325.5 Z"/>
                <path id="path267" fill="#d2d5d9" stroke="none" d="M 298.100006 313 L 311.899994 313 L 311.899994 325.5 L 298.100006 325.5 Z"/>
                <path id="path268" fill="#d2d5d9" stroke="none" d="M 315.100006 313 L 345.899994 313 L 345.899994 325.5 L 315.100006 325.5 Z"/>
            </g>
            <g id="g8">
                <path id="path269" fill="#d2d5d9" stroke="none" d="M 136.800003 328.899994 L 150.600006 328.899994 L 150.600006 341.399994 L 136.800003 341.399994 Z"/>
                <path id="path270" fill="#d2d5d9" stroke="none" d="M 153.399994 328.899994 L 167.199997 328.899994 L 167.199997 341.399994 L 153.399994 341.399994 Z"/>
                <path id="path271" fill="#d2d5d9" stroke="none" d="M 170 328.899994 L 183.800003 328.899994 L 183.800003 341.399994 L 170 341.399994 Z"/>
                <path id="path272" fill="#d2d5d9" stroke="none" d="M 186.699997 328.899994 L 200.5 328.899994 L 200.5 341.399994 L 186.699997 341.399994 Z"/>
                <path id="path273" fill="#d2d5d9" stroke="none" d="M 203.300003 328.899994 L 217.100006 328.899994 L 217.100006 341.399994 L 203.300003 341.399994 Z"/>
                <path id="path274" fill="#d2d5d9" stroke="none" d="M 219.899994 328.899994 L 233.699997 328.899994 L 233.699997 341.399994 L 219.899994 341.399994 Z"/>
                <path id="path275" fill="#d2d5d9" stroke="none" d="M 236.600006 328.899994 L 250.399994 328.899994 L 250.399994 341.399994 L 236.600006 341.399994 Z"/>
                <path id="path276" fill="#d2d5d9" stroke="none" d="M 253.199997 328.899994 L 267 328.899994 L 267 341.399994 L 253.199997 341.399994 Z"/>
                <path id="path277" fill="#d2d5d9" stroke="none" d="M 269.799988 328.899994 L 283.600006 328.899994 L 283.600006 341.399994 L 269.799988 341.399994 Z"/>
                <path id="path278" fill="#d2d5d9" stroke="none" d="M 286.399994 328.899994 L 300.200012 328.899994 L 300.200012 341.399994 L 286.399994 341.399994 Z"/>
                <path id="path279" fill="#d2d5d9" stroke="none" d="M 303.100006 328.899994 L 316.899994 328.899994 L 316.899994 341.399994 L 303.100006 341.399994 Z"/>
                <path id="path280" fill="#d2d5d9" stroke="none" d="M 320.299988 328.899994 L 345.899994 328.899994 L 345.899994 341.399994 L 320.299988 341.399994 Z"/>
                <path id="path281" fill="#d2d5d9" stroke="none" d="M 111.300003 329 L 133.399994 329 L 133.399994 341.299988 L 111.300003 341.299988 Z"/>
            </g>
            <g id="g9">
                <path id="path282" fill="#d2d5d9" stroke="none" d="M 140.800003 344.799988 L 154.600006 344.799988 L 154.600006 357.299988 L 140.800003 357.299988 Z"/>
                <path id="path283" fill="#d2d5d9" stroke="none" d="M 157.600006 344.799988 L 171.399994 344.799988 L 171.399994 357.299988 L 157.600006 357.299988 Z"/>
                <path id="path284" fill="#d2d5d9" stroke="none" d="M 174.300003 344.799988 L 188.100006 344.799988 L 188.100006 357.299988 L 174.300003 357.299988 Z"/>
                <path id="path285" fill="#d2d5d9" stroke="none" d="M 191 344.799988 L 204.800003 344.799988 L 204.800003 357.299988 L 191 357.299988 Z"/>
                <path id="path286" fill="#d2d5d9" stroke="none" d="M 207.699997 344.799988 L 221.5 344.799988 L 221.5 357.299988 L 207.699997 357.299988 Z"/>
                <path id="path287" fill="#d2d5d9" stroke="none" d="M 224.399994 344.799988 L 238.199997 344.799988 L 238.199997 357.299988 L 224.399994 357.299988 Z"/>
                <path id="path288" fill="#d2d5d9" stroke="none" d="M 241.100006 344.799988 L 254.899994 344.799988 L 254.899994 357.299988 L 241.100006 357.299988 Z"/>
                <path id="path289" fill="#d2d5d9" stroke="none" d="M 257.899994 344.799988 L 271.700012 344.799988 L 271.700012 357.299988 L 257.899994 357.299988 Z"/>
                <path id="path290" fill="#d2d5d9" stroke="none" d="M 274.600006 344.799988 L 288.399994 344.799988 L 288.399994 357.299988 L 274.600006 357.299988 Z"/>
                <path id="path291" fill="#d2d5d9" stroke="none" d="M 291.299988 344.799988 L 305.100006 344.799988 L 305.100006 357.299988 L 291.299988 357.299988 Z"/>
                <path id="path292" fill="#d2d5d9" stroke="none" d="M 308 344.799988 L 321.799988 344.799988 L 321.799988 357.299988 L 308 357.299988 Z"/>
                <path id="path293" fill="#d2d5d9" stroke="none" d="M 324.600006 344.799988 L 346 344.799988 L 346 357.299988 L 324.600006 357.299988 Z"/>
                <path id="path294" fill="#d2d5d9" stroke="none" d="M 111.300003 344.799988 L 137.899994 344.799988 L 137.899994 357.200012 L 111.300003 357.200012 Z"/>
            </g>
            <g id="g10">
                <path id="path295" fill="#8e96a0" stroke="none" d="M 111.800003 389.799988 L 125.599998 389.799988 L 125.599998 390.5 L 111.800003 390.5 Z"/>
                <path id="path296" fill="#8e96a0" stroke="none" d="M 128.300003 389.799988 L 142.100006 389.799988 L 142.100006 390.5 L 128.300003 390.5 Z"/>
                <path id="path297" fill="#8e96a0" stroke="none" d="M 145.300003 389.799988 L 159.100006 389.799988 L 159.100006 390.5 L 145.300003 390.5 Z"/>
                <path id="path298" fill="#8e96a0" stroke="none" d="M 162.300003 389.799988 L 176.100006 389.799988 L 176.100006 390.5 L 162.300003 390.5 Z"/>
                <path id="path299" fill="#8e96a0" stroke="none" d="M 286.100006 389.799988 L 299.899994 389.799988 L 299.899994 390.5 L 286.100006 390.5 Z"/>
                <path id="path300" fill="#8e96a0" stroke="none" d="M 302.5 389.799988 L 315.399994 389.799988 L 315.399994 390.5 L 302.5 390.5 Z"/>
                <path id="path301" fill="#8e96a0" stroke="none" d="M 333 389.799988 L 345.899994 389.799988 L 345.899994 390.5 L 333 390.5 Z"/>
                <path id="path302" fill="#8e96a0" stroke="none" d="M 317.299988 389.799988 L 331.100006 389.799988 L 331.100006 390.5 L 317.299988 390.5 Z"/>
                <path id="path303" fill="#8e96a0" stroke="none" d="M 265.399994 389.799988 L 282.700012 389.799988 L 282.700012 390.5 L 265.399994 390.5 Z"/>
            </g>
            <g id="g11">
                <path id="path304" fill="#8e96a0" stroke="none" d="M 111.699997 373 L 140 373 L 140 373.799988 L 111.699997 373.799988 Z"/>
                <path id="path305" fill="#8e96a0" stroke="none" d="M 143.699997 373 L 157.5 373 L 157.5 373.700012 L 143.699997 373.700012 Z"/>
                <path id="path306" fill="#8e96a0" stroke="none" d="M 160.300003 373 L 174.100006 373 L 174.100006 373.700012 L 160.300003 373.700012 Z"/>
                <path id="path307" fill="#8e96a0" stroke="none" d="M 177 373 L 190.800003 373 L 190.800003 373.700012 L 177 373.700012 Z"/>
                <path id="path308" fill="#8e96a0" stroke="none" d="M 193.600006 373 L 207.399994 373 L 207.399994 373.700012 L 193.600006 373.700012 Z"/>
                <path id="path309" fill="#8e96a0" stroke="none" d="M 210.199997 373 L 224 373 L 224 373.700012 L 210.199997 373.700012 Z"/>
                <path id="path310" fill="#8e96a0" stroke="none" d="M 226.800003 373 L 240.600006 373 L 240.600006 373.700012 L 226.800003 373.700012 Z"/>
                <path id="path311" fill="#8e96a0" stroke="none" d="M 243.5 373 L 257.299988 373 L 257.299988 373.700012 L 243.5 373.700012 Z"/>
                <path id="path312" fill="#8e96a0" stroke="none" d="M 260.100006 373 L 273.899994 373 L 273.899994 373.700012 L 260.100006 373.700012 Z"/>
                <path id="path313" fill="#8e96a0" stroke="none" d="M 276.700012 373 L 290.5 373 L 290.5 373.700012 L 276.700012 373.700012 Z"/>
                <path id="path314" fill="#8e96a0" stroke="none" d="M 293.399994 373 L 307.200012 373 L 307.200012 373.700012 L 293.399994 373.700012 Z"/>
                <path id="path315" fill="#8e96a0" stroke="none" d="M 310 373 L 346 373 L 346 373.700012 L 310 373.700012 Z"/>
            </g>
            <g id="g12">
                <path id="path316" fill="#8e96a0" stroke="none" d="M 111.300003 356.399994 L 137.899994 356.399994 L 137.899994 357.200012 L 111.300003 357.200012 Z"/>
                <path id="path317" fill="#8e96a0" stroke="none" d="M 140.800003 356.5 L 154.600006 356.5 L 154.600006 357.200012 L 140.800003 357.200012 Z"/>
                <path id="path318" fill="#8e96a0" stroke="none" d="M 157.600006 356.5 L 171.399994 356.5 L 171.399994 357.200012 L 157.600006 357.200012 Z"/>
                <path id="path319" fill="#8e96a0" stroke="none" d="M 174.300003 356.5 L 188.100006 356.5 L 188.100006 357.200012 L 174.300003 357.200012 Z"/>
                <path id="path320" fill="#8e96a0" stroke="none" d="M 191 356.5 L 204.800003 356.5 L 204.800003 357.200012 L 191 357.200012 Z"/>
                <path id="path321" fill="#8e96a0" stroke="none" d="M 207.699997 356.5 L 221.5 356.5 L 221.5 357.200012 L 207.699997 357.200012 Z"/>
                <path id="path322" fill="#8e96a0" stroke="none" d="M 224.399994 356.5 L 238.199997 356.5 L 238.199997 357.200012 L 224.399994 357.200012 Z"/>
                <path id="path323" fill="#8e96a0" stroke="none" d="M 241.100006 356.5 L 254.899994 356.5 L 254.899994 357.200012 L 241.100006 357.200012 Z"/>
                <path id="path324" fill="#8e96a0" stroke="none" d="M 257.899994 356.5 L 271.700012 356.5 L 271.700012 357.200012 L 257.899994 357.200012 Z"/>
                <path id="path325" fill="#8e96a0" stroke="none" d="M 274.600006 356.5 L 288.399994 356.5 L 288.399994 357.200012 L 274.600006 357.200012 Z"/>
                <path id="path326" fill="#8e96a0" stroke="none" d="M 291.299988 356.5 L 305.100006 356.5 L 305.100006 357.200012 L 291.299988 357.200012 Z"/>
                <path id="path327" fill="#8e96a0" stroke="none" d="M 308 356.5 L 321.799988 356.5 L 321.799988 357.200012 L 308 357.200012 Z"/>
                <path id="path328" fill="#8e96a0" stroke="none" d="M 324.600006 356.5 L 346 356.5 L 346 357.200012 L 324.600006 357.200012 Z"/>
            </g>
            <g id="g13">
                <path id="path329" fill="#8e96a0" stroke="none" d="M 111.300003 340.600006 L 133.399994 340.600006 L 133.399994 341.399994 L 111.300003 341.399994 Z"/>
                <path id="path330" fill="#8e96a0" stroke="none" d="M 136.800003 340.600006 L 150.600006 340.600006 L 150.600006 341.299988 L 136.800003 341.299988 Z"/>
                <path id="path331" fill="#8e96a0" stroke="none" d="M 153.399994 340.600006 L 167.199997 340.600006 L 167.199997 341.299988 L 153.399994 341.299988 Z"/>
                <path id="path332" fill="#8e96a0" stroke="none" d="M 170 340.600006 L 183.800003 340.600006 L 183.800003 341.299988 L 170 341.299988 Z"/>
                <path id="path333" fill="#8e96a0" stroke="none" d="M 186.699997 340.600006 L 200.5 340.600006 L 200.5 341.299988 L 186.699997 341.299988 Z"/>
                <path id="path334" fill="#8e96a0" stroke="none" d="M 203.300003 340.600006 L 217.100006 340.600006 L 217.100006 341.299988 L 203.300003 341.299988 Z"/>
                <path id="path335" fill="#8e96a0" stroke="none" d="M 219.899994 340.600006 L 233.699997 340.600006 L 233.699997 341.299988 L 219.899994 341.299988 Z"/>
                <path id="path336" fill="#8e96a0" stroke="none" d="M 236.600006 340.600006 L 250.399994 340.600006 L 250.399994 341.299988 L 236.600006 341.299988 Z"/>
                <path id="path337" fill="#8e96a0" stroke="none" d="M 253.199997 340.600006 L 267 340.600006 L 267 341.299988 L 253.199997 341.299988 Z"/>
                <path id="path338" fill="#8e96a0" stroke="none" d="M 269.799988 340.600006 L 283.600006 340.600006 L 283.600006 341.299988 L 269.799988 341.299988 Z"/>
                <path id="path339" fill="#8e96a0" stroke="none" d="M 286.399994 340.600006 L 300.200012 340.600006 L 300.200012 341.299988 L 286.399994 341.299988 Z"/>
                <path id="path340" fill="#8e96a0" stroke="none" d="M 303.100006 340.600006 L 316.899994 340.600006 L 316.899994 341.299988 L 303.100006 341.299988 Z"/>
                <path id="path341" fill="#8e96a0" stroke="none" d="M 320.299988 340.600006 L 345.899994 340.600006 L 345.899994 341.299988 L 320.299988 341.299988 Z"/>
            </g>
            <g id="g14">
                <path id="path342" fill="#8e96a0" stroke="none" d="M 111.300003 324.700012 L 125.099998 324.700012 L 125.099998 325.399994 L 111.300003 325.399994 Z"/>
                <path id="path343" fill="#8e96a0" stroke="none" d="M 128.300003 324.700012 L 142.100006 324.700012 L 142.100006 325.399994 L 128.300003 325.399994 Z"/>
                <path id="path344" fill="#8e96a0" stroke="none" d="M 145.300003 324.700012 L 159.100006 324.700012 L 159.100006 325.399994 L 145.300003 325.399994 Z"/>
                <path id="path345" fill="#8e96a0" stroke="none" d="M 162.300003 324.700012 L 176.100006 324.700012 L 176.100006 325.399994 L 162.300003 325.399994 Z"/>
                <path id="path346" fill="#8e96a0" stroke="none" d="M 179.300003 324.700012 L 193.100006 324.700012 L 193.100006 325.399994 L 179.300003 325.399994 Z"/>
                <path id="path347" fill="#8e96a0" stroke="none" d="M 196.199997 324.700012 L 210 324.700012 L 210 325.399994 L 196.199997 325.399994 Z"/>
                <path id="path348" fill="#8e96a0" stroke="none" d="M 213.199997 324.700012 L 227 324.700012 L 227 325.399994 L 213.199997 325.399994 Z"/>
                <path id="path349" fill="#8e96a0" stroke="none" d="M 230.199997 324.700012 L 244 324.700012 L 244 325.399994 L 230.199997 325.399994 Z"/>
                <path id="path350" fill="#8e96a0" stroke="none" d="M 247.199997 324.700012 L 261 324.700012 L 261 325.399994 L 247.199997 325.399994 Z"/>
                <path id="path351" fill="#8e96a0" stroke="none" d="M 264.200012 324.700012 L 278 324.700012 L 278 325.399994 L 264.200012 325.399994 Z"/>
                <path id="path352" fill="#8e96a0" stroke="none" d="M 281.200012 324.700012 L 295 324.700012 L 295 325.399994 L 281.200012 325.399994 Z"/>
                <path id="path353" fill="#8e96a0" stroke="none" d="M 298.100006 324.700012 L 311.899994 324.700012 L 311.899994 325.399994 L 298.100006 325.399994 Z"/>
                <path id="path354" fill="#8e96a0" stroke="none" d="M 315.100006 324.700012 L 345.899994 324.700012 L 345.899994 325.399994 L 315.100006 325.399994 Z"/>
            </g>
            <g id="g15">
                <path id="path355" fill="#8e96a0" stroke="none" d="M 111.300003 308 L 125.099998 308 L 125.099998 308.700012 L 111.300003 308.700012 Z"/>
                <path id="path356" fill="#8e96a0" stroke="none" d="M 128.300003 308 L 142.100006 308 L 142.100006 308.700012 L 128.300003 308.700012 Z"/>
                <path id="path357" fill="#8e96a0" stroke="none" d="M 145.300003 308 L 159.100006 308 L 159.100006 308.700012 L 145.300003 308.700012 Z"/>
                <path id="path358" fill="#8e96a0" stroke="none" d="M 162.300003 308 L 176.100006 308 L 176.100006 308.700012 L 162.300003 308.700012 Z"/>
                <path id="path359" fill="#8e96a0" stroke="none" d="M 179.300003 308 L 193.100006 308 L 193.100006 308.700012 L 179.300003 308.700012 Z"/>
                <path id="path360" fill="#8e96a0" stroke="none" d="M 196.199997 308 L 210 308 L 210 308.700012 L 196.199997 308.700012 Z"/>
                <path id="path361" fill="#8e96a0" stroke="none" d="M 213.199997 308 L 227 308 L 227 308.700012 L 213.199997 308.700012 Z"/>
                <path id="path362" fill="#8e96a0" stroke="none" d="M 230.199997 308 L 244 308 L 244 308.700012 L 230.199997 308.700012 Z"/>
                <path id="path363" fill="#8e96a0" stroke="none" d="M 247.199997 308 L 261 308 L 261 308.700012 L 247.199997 308.700012 Z"/>
                <path id="path364" fill="#8e96a0" stroke="none" d="M 264.200012 308 L 278 308 L 278 308.700012 L 264.200012 308.700012 Z"/>
                <path id="path365" fill="#8e96a0" stroke="none" d="M 281.200012 308 L 295 308 L 295 308.700012 L 281.200012 308.700012 Z"/>
                <path id="path366" fill="#8e96a0" stroke="none" d="M 298.100006 308 L 311.899994 308 L 311.899994 308.700012 L 298.100006 308.700012 Z"/>
                <path id="path367" fill="#8e96a0" stroke="none" d="M 315.100006 308 L 328.899994 308 L 328.899994 308.700012 L 315.100006 308.700012 Z"/>
                <path id="path368" fill="#8e96a0" stroke="none" d="M 332.100006 308 L 345.899994 308 L 345.899994 308.700012 L 332.100006 308.700012 Z"/>
            </g>
            <path id="path369" fill="#8e96a0" stroke="none" d="M 107.199997 396.299988 L 350.5 396.299988 L 350.5 397.899994 L 107.199997 397.899994 Z"/>
        </g>
        <path id="path370" fill="#dce4e7" stroke="none" d="M 430.700012 322 C 430.600006 340.200012 415.700012 355.100006 397.5 355 L 389.200012 355 C 383.600006 355 378.200012 353.5 373.600006 351 C 370.299988 349.200012 367.399994 346.899994 364.899994 344.200012 C 359.5 338.299988 356.200012 330.399994 356.200012 321.799988 L 356.299988 286.100006 L 356.299988 286.100006 L 356.299988 284.100006 L 356.200012 284.100006 L 356.299988 259.799988 C 356.399994 242 371 227.600006 388.700012 227.600006 L 392.200012 227.600006 L 392.200012 227.600006 L 395 227.600006 L 397.100006 227.600006 L 397.799988 227.600006 L 398.600006 227.600006 C 404.600006 227.600006 410.100006 229.299988 414.899994 232.100006 C 414.899994 232.100006 414.899994 232.100006 414.899994 232.100006 C 416.399994 233 417.899994 234 419.200012 235.200012 C 426.200012 241.100006 430.600006 250 430.600006 259.799988 L 430.700012 322 Z"/>
        <path id="path371" fill="#566472" stroke="none" d="M 399.100006 245 L 399 266.899994 C 399 267.299988 398.899994 267.700012 398.799988 268.100006 C 398.799988 268.200012 398.700012 268.299988 398.700012 268.399994 C 398.700012 268.5 398.600006 268.600006 398.600006 268.700012 C 398.600006 268.700012 398.600006 268.799988 398.5 268.799988 C 398.5 268.899994 398.399994 269 398.399994 269 C 398.399994 269 398.399994 269.100006 398.299988 269.100006 C 398.299988 269.200012 398.200012 269.299988 398.200012 269.299988 C 398.100006 269.5 398 269.700012 397.899994 269.899994 C 397.799988 270 397.700012 270.200012 397.600006 270.299988 C 397.5 270.399994 397.5 270.399994 397.399994 270.5 C 396.700012 271.200012 395.899994 271.799988 394.899994 272.100006 C 394.399994 272.200012 393.899994 272.299988 393.399994 272.299988 C 393 272.299988 392.600006 272.299988 392.200012 272.200012 C 389.700012 271.700012 387.899994 269.5 387.899994 266.799988 L 388 245 C 388 242.399994 389.899994 240.200012 392.299988 239.700012 C 392.700012 239.600006 393.100006 239.600006 393.5 239.600006 C 394 239.600006 394.600006 239.700012 395 239.799988 C 396 240.100006 396.799988 240.600006 397.5 241.399994 C 397.600006 241.5 397.600006 241.5 397.700012 241.600006 C 397.799988 241.700012 397.899994 241.899994 398 242 C 398.100006 242.200012 398.200012 242.399994 398.299988 242.600006 C 398.299988 242.700012 398.399994 242.799988 398.399994 242.799988 C 398.399994 242.799988 398.399994 242.899994 398.5 242.899994 C 398.5 243 398.600006 243.100006 398.600006 243.100006 C 398.600006 243.100006 398.600006 243.200012 398.600006 243.200012 C 398.600006 243.299988 398.700012 243.399994 398.700012 243.5 C 398.700012 243.600006 398.799988 243.700012 398.799988 243.799988 C 399 244.199997 399.100006 244.600006 399.100006 245 Z"/>
        <path id="path372" fill="#d3dce0" stroke="none" d="M 430.700012 322 C 430.600006 340.200012 415.700012 355.100006 397.5 355 L 389.200012 355 C 383.600006 355 378.200012 353.5 373.600006 351 L 418.700012 237.399994 L 419.5 235.399994 C 426.5 241.299988 430.899994 250.199997 430.899994 260 L 430.700012 322 Z"/>
    </g>
</svg>
