<?xml version="1.0" encoding="UTF-8"?>
<!-- Generated by Pixelmator Pro 3.3.2 -->
<svg width="1000" height="1000" viewBox="0 0 1000 1000" xmlns="http://www.w3.org/2000/svg" xmlns:xlink="http://www.w3.org/1999/xlink">
    <g id="home">
        <g id="Sombra">
            <linearGradient id="linearGradient1" x1="850.132562" y1="753.1343" x2="850.132562" y2="915.166098" gradientUnits="userSpaceOnUse">
                <stop offset="1e-05" stop-color="#ffffff" stop-opacity="1"/>
                <stop offset="0.5" stop-color="#cee5f0" stop-opacity="1"/>
                <stop offset="1" stop-color="#e9f3f8" stop-opacity="1"/>
            </linearGradient>
            <path id="Traado" fill="url(#linearGradient1)" stroke="none" opacity="0.40206" d="M 237.118271 753.134277 L 763.760986 753.134277 L 763.760986 915.166077 L 237.118271 915.166077 Z"/>
            <radialGradient id="radialGradient1" cx="767.134772" cy="833.196525" r="127.76597" fx="767.134772" fy="833.196525" gradientUnits="userSpaceOnUse">
                <stop offset="1e-05" stop-color="#aed4e6" stop-opacity="1"/>
                <stop offset="1" stop-color="#add4e6" stop-opacity="0.634847"/>
            </radialGradient>
            <path id="path1" fill="url(#radialGradient1)" stroke="none" opacity="0.40206" d="M 763.792358 753.141052 L 763.792358 915.16272 C 819.959534 915.467712 899.580994 878.861694 899.580994 834.140015 C 899.580994 789.418335 836.899658 753.141052 763.792358 753.141052 Z"/>
            <radialGradient id="radialGradient2" cx="233.80739" cy="833.196525" r="127.76597" fx="233.80739" fy="833.196525" gradientUnits="userSpaceOnUse">
                <stop offset="1e-05" stop-color="#3494c1" stop-opacity="1"/>
                <stop offset="1" stop-color="#3494c1" stop-opacity="1"/>
            </radialGradient>
            <path id="path2" fill="url(#radialGradient2)" fill-opacity="0.5998" stroke="none" opacity="0.40206" d="M 237.118271 753.141052 L 237.118271 915.16272 C 180.951187 915.467712 101.329742 878.861694 101.329742 834.140015 C 101.329742 789.418335 164.011047 753.141052 237.118271 753.141052 Z"/>
        </g>
        <g id="Base-Casa">
            <path id="path3" fill="#3494c1" fill-rule="evenodd" stroke="#3494c1" stroke-width="24.215841" d="M 186 706 C 186.227325 753.510742 190.265274 751.617249 185.289642 846.49585 C 184.623047 859.20697 204.012375 855.953369 218 858 C 233.898453 860.326233 247.672195 858.801758 265 859 C 294.793182 859.340881 312.409546 861.339294 336 861 C 354.223999 860.737915 371.982758 860.014221 390 860 C 414.880951 859.980347 439.723816 861.499512 464.674255 859.829041 C 502.431671 857.301086 534.864685 856.903442 574.644104 856.885803 C 645.862427 856.854248 715.572449 857.991272 786.459717 853.684204 C 804.867188 852.565613 811.862488 854.773743 812.824341 833.581177 C 815.214478 780.919434 815.261047 748.286011 816 699 C 816.673828 654.055786 816.663269 605.580139 816.142883 561.828003 C 815.964539 546.832275 790.575012 520.177612 779 511 C 747.849854 486.301575 716.158813 458.533081 685.386719 429.956177 C 645.922668 393.307434 566 317 566 317 C 566 317 513 265 513 265 C 513 265 480.000854 293.345764 477 296 C 439.114502 329.509766 402.291168 358.629028 362 390 C 330.74762 414.333374 296.452209 447.723022 264 474 C 238.335052 494.78125 202.864914 529.525879 184 556 C 184 556 185.763947 656.66272 186 706 Z"/>
        </g>
        <g id="Telhado">
            <radialGradient id="radialGradient3" cx="494.797327" cy="310.618573" r="312.455362" fx="494.797327" fy="310.618573" gradientUnits="userSpaceOnUse">
                <stop offset="1e-05" stop-color="#575757" stop-opacity="1"/>
                <stop offset="1" stop-color="#575757" stop-opacity="0"/>
            </radialGradient>
            <path id="path4" fill="url(#radialGradient3)" fill-rule="evenodd" stroke="none" opacity="0.2" d="M 184.90155 536.713989 L 183.913162 583.987793 L 518.501709 343.921204 L 796.949036 547.100708 L 798.248047 541.422607 L 500.054718 251.717896 L 184.902451 536.704712 Z"/>
            <path id="path5" fill="#246121" fill-rule="evenodd" stroke="#246021" stroke-width="24.215841" d="M 135 582 C 135 582 241.654388 474.294556 344 388 C 424.414429 320.197083 507.201111 249.575745 511 248 C 514.943604 246.364197 544.517944 278.77771 550 284 C 591.021423 323.077881 625.024231 356.364075 665 392 C 720.230103 441.234192 773.139648 492.08905 827 540 C 837.055237 548.944519 866.663086 588.880676 872 584 C 875.79657 580.527954 886.385498 567.448853 890 564 C 896.42572 557.868774 901.964844 546.575317 902 542 C 902.144531 522.901489 887 468 887 468 C 887 468 882.630981 446.705017 874 418 L 510 85 C 510 85 452.129486 129.776672 380 193 C 326.97052 239.481689 255.48439 297.276184 195 345 C 164.584991 368.99823 133.164536 396.196899 110 416 C 104.788422 420.455322 104.344307 448.025269 103 464 C 100.610817 492.391357 98 549 98 549 L 117 566 L 135 582 Z"/>
            <path id="path6" fill="#87d564" stroke="none" opacity="0.40909" d="M 116.367546 421.191895 L 111.056534 541.842712 L 508.507965 209.294312 L 507.226837 101.942932 L 116.351334 421.193726 Z"/>
        </g>
        <g id="Porta">
            <path id="path7" fill="none" stroke="#4c903d" stroke-width="18.215841" opacity="0.13636" d="M 510.607513 205.115601 L 512.41925 98.715088 L 864.513245 420.261047 L 891.687622 538.678589 L 510.612244 205.110168 Z"/>
            <linearGradient id="linearGradient2" x1="361.518516" y1="516.582755" x2="362.828293" y2="645.39287" gradientUnits="userSpaceOnUse">
                <stop offset="1e-05" stop-color="#000000" stop-opacity="0.18557"/>
                <stop offset="1" stop-color="#ffffff" stop-opacity="1"/>
            </linearGradient>
            <path id="path8" fill="url(#linearGradient2)" fill-rule="evenodd" stroke="none" visibility="hidden" d="M 483.575195 573.96814 L 482.742004 848.863403 L 267.01181 848.863403 L 264.981293 573.96814 L 483.571381 573.96814 Z"/>
            <path id="path9" fill="#d0e0e3" fill-rule="evenodd" stroke="none" d="M 465.359375 592.18396 L 465.359375 848.863403 L 286.643768 848.863403 L 283.201508 592.18396 L 465.359924 592.18396 Z"/>
            <radialGradient id="radialGradient4" cx="421.221166" cy="729.005666" r="22.181194" fx="421.221166" fy="729.005666" gradientUnits="userSpaceOnUse">
                <stop offset="1e-05" stop-color="#000000" stop-opacity="1"/>
                <stop offset="1" stop-color="#000000" stop-opacity="0"/>
            </radialGradient>
            <path id="path10" fill="url(#radialGradient4)" fill-rule="evenodd" stroke="none" opacity="0.40909" d="M 421.222382 709.639771 C 433.477814 709.639771 443.383789 718.284973 443.383789 728.921204 C 443.383789 739.665039 433.477448 748.383057 421.222382 748.383057 C 408.967316 748.383057 399.022736 739.666016 399.022736 728.921204 C 399.032196 718.284973 408.976074 709.639771 421.222382 709.639771 Z"/>
            <radialGradient id="radialGradient5" cx="411.832952" cy="714.394093" r="22.181194" fx="411.832952" fy="714.394093" gradientUnits="userSpaceOnUse">
                <stop offset="1e-05" stop-color="#edd400" stop-opacity="1"/>
                <stop offset="1" stop-color="#998800" stop-opacity="1"/>
            </radialGradient>
            <path id="path11" fill="url(#radialGradient5)" fill-rule="evenodd" stroke="none" d="M 419.127563 700.240356 C 431.382996 700.240356 441.288971 708.885742 441.288971 719.521851 C 441.288971 730.265747 431.382629 738.983643 419.127563 738.983643 C 406.872498 738.983643 396.927917 730.266602 396.927917 719.521851 C 396.937378 708.88562 406.881226 700.240356 419.127563 700.240356 Z"/>
        </g>
        <g id="Janela">
            <path id="path12" fill="#d0e0e3" stroke="none" d="M 559.518982 570 L 717.480957 570 C 721.081299 570 724 572.964355 724 576.621033 L 724 736.378906 C 724 740.035645 721.081299 743 717.480957 743 L 559.518982 743 C 555.91864 743 553 740.035645 553 736.378906 L 553 576.621033 C 553 572.964355 555.91864 570 559.518982 570"/>
            <path id="path13" fill="none" stroke="#ffffff" stroke-width="18.215841" d="M 568.531555 565 L 708.467773 565 C 714.670654 565 724.077942 562.822388 728 567 C 731.620422 570.856323 730 580.834717 730 586.571045 L 729.87677 727.367432 C 729.87677 732.505981 730.894104 740.711121 728 744 C 724.163574 748.35968 715.516724 747 708.71759 747 L 568.532227 747 C 562.687195 747 553.872192 746.762024 550 743 C 545.969666 739.084412 547 731.523804 547 725.428955 L 547 586.571045 C 547 580.117981 544.048706 565.029785 550 565 C 555.520386 564.972412 563.755127 564.693848 568.532227 565 Z"/>
            <radialGradient id="radialGradient6" cx="614.904483" cy="594.396765" r="273.476741" fx="614.904483" fy="594.396765" gradientUnits="userSpaceOnUse">
                <stop offset="1e-05" stop-color="#ffffff" stop-opacity="1"/>
                <stop offset="1" stop-color="#ffffff" stop-opacity="0"/>
            </radialGradient>
            <path id="path14" fill="url(#radialGradient6)" stroke="none" opacity="0.39773" d="M 558.387695 672.479431 C 624.292603 678.512207 659.079407 646.144775 719.929382 644.195679 L 720.379883 574.073792 L 558.047546 573.963989 L 558.388733 672.480713 Z"/>
        </g>
    </g>
</svg>
