<?xml version="1.0" encoding="UTF-8"?>
<!-- Generated by Pixelmator Pro 3.3.5 -->
<svg width="5000" height="5000" viewBox="0 0 5000 5000" xmlns="http://www.w3.org/2000/svg">
    <g id="Agrupar">
        <path id="Traado" fill="#fefefe" fill-rule="evenodd" stroke="none" d="M 4506 2458 C 4506 1365.028564 3619.747559 479 2526.5 479 C 1433.252319 479 567 1368.028564 567 2461 C 567 2512.404785 569.402039 2619.84668 589 2745 C 602.065308 2828.435303 622.4776 2919.881836 648 3010 C 678.440857 3117.484863 722.857727 3235.085205 761 3322 C 794.138306 3397.512207 817.367554 3426.781738 842 3474 C 845.590576 3480.882813 838.534119 3492.611816 834 3502 C 821.095276 3528.719971 798.259766 3602.682129 791 3630 C 786.388367 3647.353027 778.597107 3666.950195 771 3685 C 765.935303 3697.033203 763.180786 3708.5 759 3719 C 742.046997 3761.576904 709 3862 709 3862 C 709 3862 624.193787 4104.293945 567 4247 C 504.32132 4403.391602 421.16153 4531.42334 495 4520 C 578.329956 4507.10791 648.362427 4477.654297 733 4454 C 890.18396 4410.070313 1070.244141 4353.137695 1300 4273 C 1393.960449 4240.227051 1491.355469 4205.990234 1594 4212 C 1654.015259 4215.513672 1673.321289 4229.303711 1695 4240 C 1715.828491 4250.276367 1735.457764 4263.479004 1800 4291 C 2009.74353 4380.43457 2399.15918 4429.087891 2526.5 4437 C 3617.643311 4504.79834 4506 3550.971436 4506 2458 Z"/>
        <path id="path1" fill="#2bb741" stroke="none" d="M 1014 4007.100098 C 1032.300049 3952.300049 1050.400024 3897.399902 1068.800049 3842.600098 C 1114.900024 3705.300049 1160.900024 3567.899902 1207.699951 3430.800049 C 1212.800049 3415.899902 1212.199951 3405.399902 1202.5 3392 C 1159 3331.899902 1121.099976 3268.399902 1086.599976 3202.699951 C 1046.599976 3126.5 1013.200012 3047.600098 985.900024 2966.199951 C 956.299988 2877.699951 934.099976 2787.300049 920.700012 2694.899902 C 913.299988 2643.899902 908.299988 2592.800049 905 2541.300049 C 901.400024 2485.899902 900.599976 2430.5 903.400024 2375.300049 C 910.400024 2237.800049 932.799988 2102.800049 973.5 1971.100098 C 1001.700012 1880 1037.099976 1791.899902 1080.5 1707 C 1139.900024 1590.600098 1212.5 1483.199951 1297.199951 1383.800049 C 1323.900024 1352.5 1351.599976 1322.199951 1380.699951 1293.300049 C 1446.099976 1228.399902 1516 1168.5 1591.199951 1115 C 1672.599976 1057.100098 1758.5 1007 1848.800049 964.699951 C 1947 918.699951 2048.800049 882.799805 2154.300049 857.5 C 2230.399902 839.200195 2307.399902 826.700195 2385.399902 819 C 2465.5 811.100098 2545.699951 809.299805 2625.800049 813.600098 C 2757 820.5 2885.800049 843 3011.800049 881.100098 C 3104.300049 909.100098 3193.699951 944.699951 3279.699951 988.800049 C 3409.399902 1055.199951 3528.300049 1137.199951 3636.600098 1235 C 3736 1324.699951 3822.899902 1425.100098 3897.800049 1535.800049 C 3975.199951 1650.199951 4036.800049 1772.600098 4083.199951 1902.800049 C 4119.200195 2003.800049 4144.600098 2107.300049 4160.299805 2213.199951 C 4166.799805 2257.300049 4171.100098 2301.800049 4173.799805 2346.5 C 4176.399902 2388.800049 4177.399902 2431 4177 2473.300049 C 4176 2574.100098 4164.799805 2673.899902 4145.100098 2772.699951 C 4119.600098 2900 4079.199951 3022.5 4024.100098 3140 C 3964.699951 3266.800049 3890.100098 3384.100098 3800.899902 3492.199951 C 3756.399902 3546.100098 3708.399902 3596.699951 3657.5 3644.300049 C 3552.600098 3742.600098 3436.600098 3825.699951 3309.699951 3893.600098 C 3225.100098 3938.899902 3137.199951 3976.600098 3046 4006.300049 C 2960.899902 4034.100098 2874 4055 2785.300049 4068 C 2734.300049 4075.399902 2683.199951 4080.199951 2631.699951 4083.699951 C 2577.600098 4087.300049 2523.5 4087.600098 2469.399902 4085.300049 C 2391.899902 4082 2314.899902 4073.199951 2238.600098 4058.699951 C 2115.399902 4035.199951 1996.400024 3998.600098 1881.599976 3948 C 1801.699951 3912.800049 1725.300049 3871.399902 1652.099976 3824 C 1642.099976 3817.5 1634 3816.600098 1622.800049 3820.199951 C 1460.800049 3872.600098 1298.599976 3924.5 1136.400024 3976.399902 C 1098.5 3988.5 1060.5 4000 1022.5 4011.800049 C 1017.5 4014 1013.799988 4014.199951 1014 4007.100098 Z"/>
        <path id="path2" fill="#fefefe" stroke="none" d="M 3070.899902 3436.199951 C 3016.199951 3436.5 2969.800049 3424.600098 2923.899902 3410.899902 C 2835.600098 3384.699951 2750 3351 2665.199951 3315.300049 C 2617.100098 3295.100098 2568.800049 3275.100098 2521.899902 3252.100098 C 2412.800049 3198.800049 2313.5 3130.699951 2220.199951 3053.399902 C 2159.699951 3003.199951 2103.199951 2948.699951 2049.5 2891.600098 C 1944 2779.399902 1850.199951 2657.800049 1768.5 2527.100098 C 1739.800049 2481.199951 1708.099976 2437.199951 1681.800049 2389.800049 C 1633 2301.899902 1592.699951 2210.600098 1571.099976 2111.899902 C 1562.699951 2073.600098 1557.599976 2035.100098 1556.300049 1995.699951 C 1554 1930.600098 1561.5 1867.100098 1579.5 1804.699951 C 1604.099976 1719.300049 1648.199951 1645.300049 1709.599976 1581.199951 C 1724.599976 1565.5 1739.800049 1550 1755.800049 1535.300049 C 1796 1498.300049 1843.300049 1481.699951 1897.599976 1485.600098 C 1934.699951 1488.199951 1971.599976 1493.899902 2009.099976 1493.100098 C 2029 1492.699951 2044.800049 1503.300049 2057.300049 1518 C 2075.800049 1539.600098 2085.899902 1565.800049 2095.699951 1592.100098 C 2140.5 1712.699951 2183.600098 1833.899902 2230.100098 1953.899902 C 2235 1966.600098 2240 1979.199951 2242.899902 1992.699951 C 2247.300049 2013.5 2241.699951 2031.699951 2233.100098 2050 C 2214 2091.100098 2186.199951 2126 2155.699951 2159.100098 C 2133.300049 2183.399902 2111.199951 2207.800049 2087.399902 2230.800049 C 2059.800049 2257.5 2057.399902 2283.600098 2075.199951 2316.600098 C 2105.600098 2373.100098 2139.5 2427.5 2176.5 2479.899902 C 2223.199951 2546.100098 2274.100098 2609 2332.100098 2665.699951 C 2423.899902 2755.300049 2525.300049 2832.100098 2639.600098 2891 C 2676.100098 2909.800049 2713 2927.800049 2749.800049 2946.100098 C 2753.699951 2948 2757.699951 2949.699951 2761.699951 2951.300049 C 2793.199951 2964.100098 2820.600098 2957.100098 2843 2932.600098 C 2888.300049 2883.100098 2934.199951 2834 2976.800049 2782.100098 C 2988.600098 2767.699951 3000.399902 2753.199951 3011.5 2738.199951 C 3034.100098 2707.600098 3059.699951 2697.100098 3101.699951 2710.300049 C 3139.899902 2722.300049 3174.699951 2742.100098 3210 2760.300049 C 3269.100098 2790.899902 3327.699951 2822.5 3386.300049 2853.899902 C 3432.899902 2878.899902 3479.100098 2904.600098 3525.699951 2929.5 C 3552.699951 2943.899902 3564.800049 2965.399902 3563.600098 2996.300049 C 3561.5 3052 3550.399902 3105.699951 3533.300049 3158.699951 C 3521.100098 3196.5 3505.199951 3231.800049 3477.899902 3261.199951 C 3456.600098 3284.100098 3433.199951 3304.5 3407.600098 3322.5 C 3345.5 3366.199951 3279 3400.800049 3204.699951 3418.300049 C 3180.699951 3423.899902 3155.5 3424.699951 3131.199951 3429.300049 C 3109.100098 3433.199951 3087.199951 3437.300049 3070.899902 3436.199951 Z"/>
    </g>
</svg>
