<?xml version="1.0" encoding="UTF-8"?>
<!-- Generated by Pixelmator Pro 3.3.2 -->
<svg width="1000" height="1000" viewBox="0 0 1000 1000" xmlns="http://www.w3.org/2000/svg" xmlns:xlink="http://www.w3.org/1999/xlink">
    <g id="book-1296045">
        <filter id="filter1" x="0" y="0" width="1000" height="1000" filterUnits="userSpaceOnUse" primitiveUnits="userSpaceOnUse" color-interpolation-filters="sRGB">
            <feGaussianBlur stdDeviation="7.515694"/>
        </filter>
        <path id="Traado" fill="#94d4b2" stroke="none" filter="url(#filter1)" d="M 821.111633 822.769958 L 316.47171 913.358521 C 293.340057 917.537842 268.61322 915.897217 266.020996 897.15741 L 141.722061 296.782654 C 135.939209 272.748535 191.308624 293.325867 215.370712 286.87085 L 662.049072 179.039978 C 697.145203 170.580566 709.4422 177.470398 716.753906 206.440857 L 859.066101 769.820557 C 867.241821 802.179932 857.869507 816.153748 821.111633 822.769958 Z"/>
        <path id="path1" fill="#6a9856" stroke="none" d="M 842.882751 756.292786 L 330.432831 894.143188 C 306.940338 900.488953 281.827484 901.164001 279.194611 882.734497 L 152.955368 294.000977 C 147.082245 270.440796 203.316162 285.83252 227.753876 277.124084 L 681.337219 127.527283 C 717.048767 115.713501 729.537537 121.519165 736.963379 149.80481 L 881.497131 699.78894 C 889.800598 731.382446 880.214417 746.301697 842.882751 756.292786 Z"/>
        <filter id="filter2" x="0" y="0" width="1000" height="1000" filterUnits="userSpaceOnUse" primitiveUnits="userSpaceOnUse" color-interpolation-filters="sRGB">
            <feGaussianBlur stdDeviation="4.627837"/>
            <feOffset dx="-0" dy="13.883512" result="offsetblur"/>
            <feFlood flood-color="#000000" flood-opacity="0.5"/>
            <feComposite in2="offsetblur" operator="in"/>
            <feMerge>
                <feMergeNode/>
                <feMergeNode in="SourceGraphic"/>
            </feMerge>
        </filter>
        <path id="path2" fill="#95c0c8" fill-rule="evenodd" stroke="none" filter="url(#filter2)" d="M 289.999847 839.356262 C 295.296661 859.105347 307.273438 877.973511 327.022522 872.676697 L 824.052246 740.320557 C 843.80127 735.023743 863.595032 724.898071 858.298218 705.149048 L 714.835266 123.892639 C 709.538452 104.143494 669.794739 111.191284 650.045532 116.488159 L 183.559616 242.365295 C 163.810547 247.662109 152.347 255.011047 157.643707 274.760132 Z"/>
        <path id="path3" fill="#6a9856" stroke="none" d="M 796.370178 719.825195 L 308.290344 851.194885 C 289.050659 855.920471 281.489838 864.763916 279.262177 883.801086 L 151.537766 289.599487 C 145.664642 266.039368 156.803345 249.36499 181.241058 240.656494 L 634.824402 90.992188 C 670.53595 79.245911 683.024902 84.984009 690.450745 113.269714 L 834.984314 663.321411 C 843.287781 694.914917 833.701843 709.766602 796.370178 719.825195 Z"/>
        <filter id="filter3" x="0" y="0" width="1000" height="1000" filterUnits="userSpaceOnUse" primitiveUnits="userSpaceOnUse" color-interpolation-filters="sRGB">
            <feGaussianBlur stdDeviation="3.202251"/>
        </filter>
        <path id="path4" fill="none" stroke="#507441" stroke-width="6.750757" filter="url(#filter3)" d="M 712.525696 124.071594 L 861.244812 689.58252 C 869.54834 721.176025 859.962158 736.02771 822.630493 746.086304 L 334.550903 877.456055 C 334.550903 877.456055 303.767456 889.809937 292.62854 857.743835"/>
        <linearGradient id="linearGradient1" x1="321.805315" y1="285.154374" x2="321.805315" y2="808.796268" gradientUnits="userSpaceOnUse" gradientTransform="matrix(0.973361 -0.229276 0.229276 0.973361 -117.643647 81.400452)">
            <stop offset="1e-05" stop-color="#ffffff" stop-opacity="1"/>
            <stop offset="0.5" stop-color="#cee5f0" stop-opacity="1"/>
            <stop offset="1" stop-color="#e9f3f8" stop-opacity="1"/>
        </linearGradient>
        <path id="Retngulo-arredondado" fill="url(#linearGradient1)" fill-rule="evenodd" stroke="none" visibility="hidden" d="M 324.050659 784.831543 C 326.941986 797.106323 339.236511 804.713074 351.511261 801.821777 C 363.786041 798.93042 371.392792 786.635864 368.501465 774.361084 L 258.913391 309.11908 C 256.022064 296.844299 243.727524 289.237549 231.452759 292.128906 C 219.178009 295.020203 211.571228 307.314758 214.46257 319.589539 Z"/>
        <g id="Arames">
            <g id="Furos">
                <path id="Elipse" fill="#f2f7f8" fill-rule="evenodd" stroke="none" d="M 265.90271 327.831421 C 265.90271 313.774048 254.921356 302.378296 241.375168 302.378296 C 227.828979 302.378296 216.847626 313.774048 216.847626 327.831421 C 216.847626 341.888794 227.828979 353.284485 241.375168 353.284485 C 254.921356 353.284485 265.90271 341.888794 265.90271 327.831421 Z"/>
                <path id="Elipse-copiar" fill="#f2f7f8" fill-rule="evenodd" stroke="none" d="M 311.957764 560.488647 C 311.957764 546.431274 300.97644 535.035522 287.430237 535.035522 C 273.884064 535.035522 262.90271 546.431274 262.90271 560.488647 C 262.90271 574.546021 273.884064 585.941711 287.430237 585.941711 C 300.97644 585.941711 311.957764 574.546021 311.957764 560.488647 Z"/>
                <path id="Elipse-copiar-2" fill="#f2f7f8" fill-rule="evenodd" stroke="none" d="M 365.491821 762.071411 C 365.491821 748.014038 354.510468 736.618286 340.964294 736.618286 C 327.418091 736.618286 316.436737 748.014038 316.436737 762.071411 C 316.436737 776.128784 327.418091 787.524536 340.964294 787.524536 C 354.510468 787.524536 365.491821 776.128784 365.491821 762.071411 Z"/>
            </g>
            <g id="Arame">
                <path id="path5" fill="#222424" fill-rule="evenodd" stroke="none" d="M 159.494827 324.740784 C 150.387924 326.054382 129.771179 337.485596 122.208122 348.55835 C 122.208122 348.55835 122.109612 360.962463 124.323265 364.540161 C 127.949692 370.401184 135.049942 374.067383 142.450317 373.302368 C 171.925858 370.255188 228.162094 349.715942 228.162094 349.715942 C 236.952942 346.998779 251.33046 333.778809 248.613297 324.987976 C 245.896149 316.197205 233.029892 312.366821 224.239075 315.083984 L 156.213074 333.203796 C 147.422241 335.921021 162.776764 324.267395 159.494827 324.740784 Z"/>
                <path id="Traado-copiar-2" fill="#222424" fill-rule="evenodd" stroke="none" d="M 252.977142 761.608643 C 243.870239 762.922241 223.253494 774.353394 215.69043 785.426147 C 215.69043 785.426147 215.591919 797.830322 217.805573 801.40802 C 221.432007 807.269043 228.532257 810.935181 235.932632 810.170166 C 265.408173 807.123047 321.644409 786.583801 321.644409 786.583801 C 330.435242 783.866577 344.812775 770.646606 342.095612 761.855835 C 339.378448 753.065063 326.512207 749.234619 317.721375 751.951782 L 249.695389 770.071655 C 240.904556 772.788879 256.259064 761.135193 252.977142 761.608643 Z"/>
                <path id="Traado-copiar" fill="#222424" fill-rule="evenodd" stroke="none" d="M 204.847626 556.249146 C 195.740723 557.562744 168.64502 571.77063 161.081955 582.843384 C 161.081955 582.843384 160.983444 595.247559 163.197098 598.825195 C 166.823532 604.686279 173.923782 608.352417 181.324142 607.587402 C 210.799683 604.540283 267.035919 584.000977 267.035919 584.000977 C 275.826782 581.283813 290.204285 568.063843 287.487122 559.273071 C 284.769989 550.482239 271.903717 546.651855 263.112885 549.369019 L 197.443085 566.43042 C 188.652252 569.147583 208.129562 555.775757 204.847626 556.249146 Z"/>
            </g>
        </g>
        <g id="silhouette-3135232">
            <g id="Agrupar">
                <path id="path6" fill="#000000" stroke="none" d="M 350.561768 235.050293 C 350.775879 235.176025 351.584198 235.086243 353.589325 234.695862 C 356.857605 234.046814 356.61618 234.058899 357.238617 234.439392 C 357.668762 234.707886 358.01178 234.732056 359.227844 234.52179 C 360.375244 234.343811 360.812286 234.367004 361.307343 234.585022 C 361.640411 234.742676 362.420746 234.884277 363.027161 234.910889 C 363.799805 234.921814 364.259064 235.053711 364.498169 235.305786 C 365.016479 235.819946 366.083038 236.165222 366.750427 236.028931 C 367.110718 235.955383 367.407227 236.0271 367.599457 236.231689 C 367.766144 236.404358 367.997742 236.526489 368.106445 236.504333 C 368.214386 236.4823 368.583252 236.726074 368.916595 237.07135 C 369.790222 237.945313 370.55069 238.447205 370.893494 238.377258 C 371.344269 238.285217 373.261353 239.209045 373.566528 239.691467 C 374.278534 240.786072 374.862366 242.358154 375.365356 244.453552 C 375.795074 246.37616 375.836639 246.762024 375.619995 246.806274 C 375.43985 246.843018 375.411865 247.074402 375.511353 247.561646 C 375.717438 248.571106 376.42215 249.629944 377.225769 250.161072 C 378.134613 250.745972 379.558319 252.014404 380.055084 252.702393 C 380.265778 252.997498 380.613861 253.414917 380.792328 253.641418 C 380.987518 253.864441 381.184448 254.181335 381.221222 254.36145 C 381.261719 254.559875 381.450653 254.934631 381.657776 255.212219 C 381.868469 255.507324 382.27182 256.195374 382.573486 256.753784 C 382.857635 257.315735 383.557892 258.356506 384.117432 259.068909 C 385.354187 260.620178 386.157776 261.977173 386.338257 262.861206 C 386.411987 263.222229 386.619171 263.593262 386.788574 263.690125 C 387.400604 264.015686 387.41217 265.084656 386.845886 266.270752 C 386.555878 266.874756 386.33078 267.428223 386.34552 267.500427 C 386.363983 267.590881 386.217133 267.883789 386.027222 268.148193 C 385.821899 268.434021 385.589355 268.950989 385.508392 269.287415 C 385.38028 269.858337 385.40976 270.002747 385.788177 270.657898 C 386.042114 271.075623 386.365448 271.460938 386.523834 271.503845 C 386.682861 271.545776 386.828491 271.704529 386.854248 271.830688 C 386.883728 271.975098 387.032166 272.151489 387.198639 272.229919 C 387.560211 272.437988 388.54538 274.040588 389.037231 275.255371 C 389.53717 276.505676 389.842316 276.988159 390.395294 277.307556 C 390.634949 277.465332 390.866608 277.680908 390.896088 277.825317 C 390.921875 277.951477 391.016266 278.045471 391.124207 278.023438 C 391.214661 278.004944 391.645996 278.46167 392.084839 279.048279 C 393.152191 280.502625 393.184082 281.209534 392.218719 282.740784 L 391.526947 283.859131 L 392.20871 287.477844 C 392.578033 289.469055 392.89267 291.564819 392.913452 292.124329 C 392.933167 294.43158 393.231812 296.906738 393.569977 297.457703 C 394.348175 298.783447 394.302429 300.859436 393.470123 302.21228 C 392.820526 303.265747 390.805023 304.710571 388.851105 305.541748 C 388.418823 305.724243 387.647522 306.088379 387.139374 306.360779 C 386.632111 306.633789 385.864532 307.016113 385.432098 307.197876 C 385.002625 307.397949 384.527405 307.645447 384.383942 307.768921 C 384.225067 307.913818 383.627167 308.111084 383.067719 308.225342 C 382.490784 308.343079 381.517303 308.636047 380.922333 308.851746 C 379.905731 309.208923 379.729553 309.358154 378.907104 310.484131 C 378.407745 311.16803 377.955231 311.805969 377.876556 311.878296 C 377.819092 311.96521 377.421112 312.591248 376.997711 313.278625 C 376.222992 314.545349 375.970215 315.517822 375.853333 317.795898 C 375.819611 318.460815 375.718079 319.25116 375.61438 319.573181 C 375.454285 320.169678 375.699524 321.002441 376.024078 320.936218 C 376.132782 320.914001 376.588531 321.121826 377.058868 321.401123 C 377.977905 321.946716 378.360992 321.980957 381.132751 321.847412 C 382.10022 321.800354 382.880341 321.847717 383.09726 321.991089 C 383.292969 322.119812 383.55658 322.216431 383.700989 322.186951 C 383.827179 322.161194 383.990082 322.222168 384.051544 322.341003 C 384.13205 322.456055 384.87915 322.434937 386.17395 322.24585 C 388.053711 321.974487 388.263275 321.988708 389.452515 322.384155 C 390.143372 322.638184 390.779114 322.808533 390.869568 322.790039 C 391.049744 322.753235 392.247925 323.560974 393.027069 324.247498 C 394.374756 325.419006 395.568054 326.753479 396.040344 327.596924 C 397.153259 329.642944 397.485016 330.344849 397.58075 330.813843 C 397.74649 331.625671 398.279816 332.399658 399.279633 333.247864 C 399.786896 333.708069 400.555023 334.340637 400.945923 334.692383 C 401.355225 335.041138 401.721588 335.454895 401.758362 335.63501 C 401.813599 335.90564 404.304016 337.52002 404.574615 337.464783 C 404.64682 337.450073 405.048828 337.763062 405.469147 338.165833 C 406.18689 338.826904 406.281372 339.014282 406.655548 340.47876 L 407.069275 342.047546 L 407.807495 342.347412 C 408.580811 342.640869 409.409973 343.203979 410.069427 343.858765 C 410.490479 344.261353 410.757996 345.296265 410.73291 346.371887 C 410.717224 346.938843 410.848419 347.212952 411.490662 348.05896 C 411.904572 348.61261 412.370178 349.419434 412.512604 349.841675 C 412.830353 350.847351 413.15863 350.799316 413.96283 349.677063 C 414.296844 349.195557 414.835724 348.615967 415.145325 348.383362 C 415.473328 348.147705 415.717194 347.872253 415.702454 347.800049 C 415.687714 347.727844 415.835419 347.528259 416.051208 347.390747 C 416.264069 347.234863 416.874908 346.546387 417.409851 345.854431 C 417.963013 345.158752 418.484406 344.582764 418.592346 344.56073 C 418.700287 344.538696 418.776001 344.447998 418.75769 344.358276 C 418.74295 344.286072 418.991058 343.93457 419.303558 343.626892 C 419.630585 343.297241 420.1875 342.619751 420.557983 342.130798 C 420.924011 341.623779 421.28653 341.192627 421.358734 341.177917 C 421.430969 341.163147 421.646545 340.931519 421.815216 340.652405 C 422.084473 340.222107 422.87793 339.233459 424.69931 337.019897 C 424.973114 336.701111 425.257172 336.436462 425.365112 336.414429 C 425.473053 336.392395 425.638397 336.190002 425.74231 335.962097 C 425.924683 335.56781 426.377441 335.024048 428.412079 332.842896 C 429.304047 331.871399 430.353088 330.567688 432.99231 327.116638 C 435.154083 324.27063 437.785919 319.581116 438.50177 317.293152 C 438.737549 316.512573 439.093781 315.5 439.298065 315.026733 C 439.483917 314.556458 439.62677 314.0578 439.59729 313.91333 C 439.56781 313.768921 439.678192 313.483521 439.839813 313.262878 C 440.001282 313.041443 440.137115 312.694641 440.1651 312.463257 C 440.196808 312.250122 440.403595 311.606934 440.632416 311.071655 C 440.875763 310.514465 441.035889 309.917969 441.021088 309.75238 C 440.987854 309.589661 441.111633 309.001465 441.301025 308.455261 C 441.686249 307.305298 441.735413 307.088562 442.079773 305.459229 C 442.206909 304.794312 442.287292 304.082703 442.243073 303.866028 C 442.136292 303.343079 442.634277 301.550903 443.11145 300.758301 C 443.487427 300.117798 443.542694 298.453186 443.353485 293.663452 C 443.329651 292.992065 443.300079 292.021057 443.291046 291.51532 C 443.186554 287.140564 443.154663 285.324402 443.134735 284.032288 C 443.119293 282.025024 443.00769 276.599426 442.916016 274.401123 C 442.886414 273.430054 442.856232 272.083801 442.867981 271.404419 C 442.861633 270.729553 442.852661 269.397949 442.805603 268.430481 C 442.776001 267.459473 442.801147 266.477234 442.868591 266.256775 C 443.046936 265.656616 443.057556 264.69635 442.909912 262.960815 C 442.830902 262.112305 442.834503 261.303894 442.921021 261.173035 C 442.992401 261.065002 443.023895 260.75769 442.976105 260.52356 C 442.887634 260.090332 442.919647 260.064758 443.901794 259.996521 C 444.45401 259.940002 445.110657 259.937378 445.345612 259.982849 C 445.598206 260.025513 446.472473 260.072632 447.302826 260.09082 C 448.133179 260.108948 448.89502 260.160034 449.021423 260.228455 C 449.126617 260.282227 449.465942 260.288147 449.790497 260.221924 C 450.29599 260.118713 451.032166 260.137085 453.007843 260.33551 C 453.332458 260.362671 453.798737 260.342712 454.069336 260.287476 C 454.321686 260.235901 454.772675 260.238098 455.083557 260.287048 C 455.376343 260.340515 455.932343 260.39563 456.29364 260.416138 C 456.651184 260.418335 457.46701 260.458435 458.095245 260.49884 C 458.723633 260.539978 459.611664 260.565369 460.080719 260.563049 C 461.73056 260.546082 462.810516 260.588501 463.150055 260.688599 C 463.352997 260.759644 463.709808 260.762024 463.962921 260.710327 C 464.413666 260.618286 466.435638 260.675049 467.175751 260.805847 C 467.642242 260.880066 470.65744 261.01593 471.725616 261.004456 C 472.137146 260.995667 472.689453 261.032593 472.960266 261.071533 C 473.665405 261.209473 474.676147 261.284973 475.445221 261.278442 C 475.799042 261.26239 476.312042 261.289124 476.582886 261.328064 C 476.849976 261.348755 477.741577 261.391602 478.568359 261.392212 C 479.394989 261.392151 480.232788 261.446777 480.41391 261.503967 C 480.612518 261.557678 480.988159 261.55542 481.24054 261.503906 C 481.511139 261.448669 482.204285 261.438599 482.796173 261.487183 C 483.388824 261.535645 484.204651 261.575745 484.623474 261.602661 C 486.389374 261.692688 487.263855 261.834045 487.795624 262.138794 C 488.323639 262.425354 488.338409 262.497559 488.276245 263.205444 C 488.231079 263.627991 488.243652 264.151184 488.28418 264.349548 C 488.3284 264.566162 488.327209 265.111206 488.285767 265.551941 C 488.229645 266.013977 488.182251 266.794067 488.177521 267.321594 C 488.168121 267.830261 488.143738 268.812317 488.131866 269.490906 C 488.120117 270.170349 488.081512 271.361938 488.069672 272.133972 C 488.058777 272.906616 487.982117 273.636475 487.931915 273.759155 C 487.860687 273.86792 487.854736 274.207275 487.921021 274.53186 C 487.983551 274.838135 488.010803 275.340149 487.96109 275.651184 C 487.894928 276.153198 487.821838 279.568909 487.836334 281.482117 C 487.845886 281.893494 487.794983 282.749573 487.753815 283.37793 C 487.69516 284.009888 487.662354 284.86145 487.671143 285.272949 C 487.661713 285.688232 487.643799 286.612732 487.625427 287.348877 C 487.602753 288.067749 487.588562 289.010498 487.579865 289.425598 C 487.588654 289.837097 487.569305 290.479248 487.531342 290.844116 C 487.510895 291.205383 487.48172 291.98175 487.483521 292.545166 C 487.485931 293.107666 487.447327 294.299255 487.422119 295.188049 C 487.350922 297.325439 487.31485 299.080322 487.361725 299.953613 C 487.366791 300.346863 487.310577 300.715454 487.24939 300.78418 C 487.169952 300.856628 487.160431 301.178406 487.222992 301.484741 C 487.271759 301.812927 487.32135 302.610413 487.310364 303.289673 C 487.298462 303.968262 487.268555 304.744812 487.269836 305.026428 C 487.267456 305.38324 487.337128 305.538452 487.463318 305.512695 C 487.950562 305.413208 489.534821 306.273499 490.14386 306.956848 C 490.774841 307.654663 490.815277 307.759583 491.027863 309.444702 C 491.701416 314.586182 491.713654 314.828308 491.346527 315.973816 L 491.007813 317.076233 L 491.566895 317.976379 C 492.068237 318.77594 492.138153 319.02533 492.138245 319.851929 C 492.115112 320.382385 492.14743 321.277649 492.203217 321.830078 C 492.242249 322.385864 492.183685 323.111206 492.047974 323.458801 C 491.811981 324.145203 491.775848 325.073425 491.883331 327.531372 C 491.984772 329.502075 491.865082 330.203491 491.33902 331.400391 C 490.816467 332.521423 489.963531 334.048706 489.579102 334.558716 C 489.011414 335.276428 487.248871 337.778076 487.10199 338.070923 C 487.02356 338.237366 486.65387 338.81958 486.26239 339.388062 C 485.885406 339.93457 485.59906 340.463379 485.621094 340.571289 C 485.643341 340.773438 484.629242 341.600403 484.249939 341.677856 C 484.105499 341.707336 483.940338 341.910522 483.872894 342.13092 C 483.80545 342.351379 483.406281 342.789185 482.98526 343.119812 C 482.564056 343.449646 481.901886 343.97998 481.498932 344.306091 C 481.092407 344.614746 480.764618 344.94458 480.739929 345.005798 C 480.690948 345.316711 479.638702 346.883911 479.228699 347.268494 C 478.995636 347.503723 478.830505 347.800354 478.859985 347.944763 C 478.889465 348.089172 478.824799 348.233826 478.735077 348.252136 C 478.392273 348.322144 475.447937 353.319336 475.529083 353.716858 C 475.543671 353.78833 475.400513 354.099426 475.218079 354.40033 C 475.020203 354.722595 474.794891 355.181946 474.720215 355.460022 C 474.292114 356.768433 474.07782 357.281677 473.879425 357.322205 C 473.608826 357.377441 472.985229 358.651306 472.525208 360.078613 C 472.31485 360.704285 472.057587 361.282593 471.938873 361.344849 C 471.690308 361.507996 470.805664 363.248474 468.875946 367.32428 C 468.249634 368.673889 467.608398 369.950562 467.4505 370.189453 C 467.310089 370.424805 467.045563 370.967346 466.870483 371.3974 C 466.694641 371.827637 466.376099 372.381165 466.145996 372.634827 C 465.934143 372.884705 465.791016 373.195862 465.816772 373.322021 C 465.846252 373.466431 465.64212 373.94043 465.376587 374.388977 C 465.114807 374.855713 464.698822 375.579651 464.451538 376.024414 C 463.498169 377.703674 459.257141 384.168335 459.076233 384.205322 C 458.968292 384.227356 458.875183 384.414978 458.861694 384.62439 C 458.841156 384.892273 458.935425 384.985474 459.151276 384.941406 C 459.49411 384.871399 460.831024 384.147949 461.619385 383.591858 C 462.508514 382.978821 463.265137 382.635925 464.880249 382.080505 C 467.793365 381.072449 471.682037 381.162231 473.184174 382.26416 C 473.409302 382.443848 474.200928 382.827026 474.906372 383.152527 C 475.712677 383.514465 476.277435 383.887695 476.408447 384.161072 C 476.532349 384.399414 476.989227 384.888123 477.438568 385.246948 C 479.774078 387.118652 480.645172 388.162537 482.770477 391.579956 C 483.4935 392.728516 484.470398 394.201416 484.96048 394.852783 C 485.450562 395.50415 485.959106 396.245972 486.068329 396.505554 C 486.19577 396.761414 486.384491 397.041931 486.500702 397.149658 C 486.77182 397.376221 488.004059 401.108215 488.345551 402.691772 C 488.70636 404.459045 488.656403 407.344238 488.238159 409.251587 C 488.096283 409.844299 487.866821 411.20636 487.727264 412.268127 C 487.568726 413.333801 487.406403 414.287842 487.356201 414.410522 C 487.30246 414.515686 487.264587 414.973938 487.2771 415.403748 C 487.293182 415.851013 487.244446 416.256042 487.169495 416.346558 C 487.090057 416.419006 487.065643 416.667847 487.113586 416.90271 C 487.161407 417.136841 487.166473 417.530151 487.124725 417.783325 C 487.082062 418.035889 487.009125 418.783997 486.979736 419.466187 C 486.834106 421.975891 485.632385 427.406738 484.561035 430.443481 C 484.296936 431.174377 484.11972 432.05542 484.139465 432.42749 C 484.177734 432.983398 484.2612 433.116821 484.633331 433.190491 C 484.886688 433.233032 485.316956 433.502258 485.581604 433.786316 C 487.06427 435.343567 487.365631 435.714355 487.682037 436.344971 C 487.875305 436.737061 488.16214 437.129822 488.328613 437.208313 C 488.856659 437.494812 489.39267 438.832764 489.644562 440.528076 C 489.838379 441.93512 489.825134 442.238708 489.509583 442.810669 C 489.319763 443.168518 489.176849 443.573792 489.198883 443.681763 C 489.257843 443.970581 487.100098 447.022461 486.660583 447.262634 C 486.476929 447.375366 486.22934 447.632568 486.139954 447.838501 C 486.053497 448.062805 485.885376 448.247559 485.776672 448.269775 C 485.560028 448.313965 483.551727 449.70105 482.763306 450.349792 C 482.490173 450.574951 482.083954 451.071228 481.843903 451.458313 C 481.588531 451.867554 481.2258 452.204529 480.972687 452.256165 C 480.630615 452.325989 480.472748 452.564941 480.248138 453.400208 C 480.080597 453.960144 479.90799 454.860046 479.848358 455.397949 C 479.785187 455.918396 479.629395 456.532166 479.521912 456.742615 C 479.381348 456.977173 479.364319 457.169067 479.495026 457.254822 C 479.668182 457.369934 481.20636 457.35675 483.03595 457.20813 C 483.443909 457.181824 483.953186 457.190308 484.170044 457.240295 C 484.715271 457.335632 486.968903 457.607971 487.535858 457.623657 C 487.799988 457.625916 488.103058 457.733521 488.233795 457.819275 C 488.349243 457.927124 488.895233 458.022339 489.443939 458.041748 C 489.989105 458.04364 490.537903 458.156494 490.694305 458.275024 C 490.831726 458.3974 491.142609 458.44635 491.37674 458.39856 C 491.629089 458.347046 491.831451 458.418945 491.860931 458.563354 C 491.890259 458.707031 492.121857 458.829224 492.385986 458.831482 C 493.220062 458.867859 496.919586 460.517334 497.015259 460.892883 C 497.051819 460.978882 497.402649 461.320557 497.8302 461.665588 C 498.239502 462.014343 498.751343 462.58606 498.976013 462.953491 C 499.18396 463.324402 499.491852 463.731079 499.673187 463.882507 C 500.281952 464.378174 500.963989 469.74353 500.578857 470.986938 C 500.536133 471.146057 500.354034 471.728027 500.187225 472.287842 C 500.016113 472.830322 499.751862 473.560486 499.572205 473.879028 C 499.397064 474.215637 499.25766 474.544983 499.272247 474.616455 C 499.345947 474.977539 494.378113 482.21051 493.999573 482.287842 C 493.855164 482.317322 493.552856 482.585693 493.311798 482.878784 C 492.787811 483.531311 491.121338 484.754333 490.597626 484.861267 C 490.399231 484.901794 490.08667 485.116028 489.925049 485.33667 C 489.748932 485.579285 488.776764 486.247314 487.768066 486.829346 C 486.745453 487.432434 485.816254 488.035461 485.697601 488.191132 C 485.582672 488.365051 484.934784 488.779175 484.289673 489.117554 C 483.630798 489.477722 482.536255 490.283142 481.852966 490.892181 C 481.17337 491.51947 480.290924 492.169159 479.890656 492.326111 C 479.491119 492.48291 478.755524 492.839722 478.248291 493.112732 C 477.063019 493.749023 468.636627 495.544525 466.185944 495.687744 C 465.312653 495.734589 463.818634 495.870972 462.847656 495.993958 C 461.872955 496.098724 460.967651 496.171112 460.844238 496.121094 C 460.580627 496.024475 455.647552 496.524048 453.464417 496.876312 C 452.718109 496.990662 451.714172 497.045166 451.23764 497.011017 C 450.761139 496.976868 450.049744 496.990662 449.649231 497.053406 C 447.322449 497.434998 444.752808 497.546295 443.246338 497.346283 C 440.237152 496.964539 437.351349 496.539398 436.58493 496.37677 C 435.721375 496.195984 433.848602 496.31543 430.986908 496.749207 C 429.876007 496.9198 428.2229 497.106842 427.31015 497.142731 C 426.378418 497.182526 424.963684 497.245667 424.148071 497.299744 C 423.332489 497.353821 422.192078 497.379974 421.621399 497.346039 C 421.054413 497.330353 419.906586 497.320038 419.07547 497.302032 C 417.473083 497.272064 416.469055 497.233185 414.334442 497.086212 C 413.59082 497.031342 412.319702 496.971771 411.49292 496.9711 C 410.66629 496.971222 409.630096 496.957092 409.214874 496.947632 C 408.781525 496.942688 407.471985 497.05957 406.295166 497.186615 C 403.653778 497.501007 400.907562 497.666534 398.358307 497.699219 C 397.2901 497.710632 395.640503 497.821747 394.691498 497.95929 C 393.73877 498.078552 392.685333 498.162201 392.374298 498.112457 C 391.775085 498.028137 391.688354 498.06485 387.4198 499.612488 C 385.023102 500.477875 383.515472 500.822906 379.874664 501.303314 C 375.594757 501.87619 369.104034 502.844208 368.021606 503.065186 C 367.516876 503.168213 365.320007 503.542297 363.119232 503.897369 C 359.118195 504.544739 356.80484 504.716949 351.270477 504.757294 C 350.032166 504.765411 347.757904 504.853607 346.23465 504.939728 C 343.953918 505.085449 336.679108 504.974365 334.360565 504.752502 C 332.236755 504.565338 328.67337 502.756683 326.835602 500.933807 C 326.364807 500.466156 325.882477 500.038879 325.763519 500.006958 C 325.658325 499.953217 324.086487 498.696045 322.279083 497.204285 C 319.609467 494.987488 318.996948 494.380127 318.901184 493.911133 C 318.83493 493.586578 318.696442 493.276733 318.588287 493.20459 C 318.494049 493.11142 318.250366 492.747833 318.061432 492.373077 C 317.889984 491.994781 317.442383 491.090057 317.089447 490.373474 C 316.718079 489.659851 316.16748 488.250427 315.849731 487.244812 C 314.694397 483.610291 313.948975 482.25885 312.900635 481.909912 C 312.560333 481.809937 311.872864 481.293091 311.35083 480.760681 C 310.404785 479.807312 310.404785 479.807312 309.694611 477.340942 C 307.669525 470.183167 307.366913 469.530701 305.527954 468.252869 C 305.06842 467.93335 304.492432 467.411987 304.278015 467.098633 C 304.063751 466.786072 303.632263 466.328613 303.321106 466.092041 C 302.110901 465.136353 301.827484 464.57428 301.363647 462.302246 C 300.947449 460.263611 300.93103 458.895569 301.287079 458.521973 C 301.725555 458.09436 301.514801 457.705872 300.686737 457.423584 C 299.617218 457.059937 298.454742 456.244995 297.616608 455.269531 C 297.011292 454.604492 296.924072 454.359436 296.570557 452.627869 C 296.357025 451.58197 296.248749 450.683167 296.327423 450.610901 C 296.388489 450.541443 296.411621 450.010925 296.351379 449.440491 C 296.292023 448.870605 296.321472 448.28186 296.393616 448.173706 C 296.47937 448.042969 296.511017 447.736389 296.459351 447.483276 C 296.404236 447.21344 296.473694 446.54126 296.619293 445.966797 C 296.761139 445.374084 296.84549 444.774902 296.812286 444.612183 C 296.775482 444.432068 296.828735 444.045105 296.913574 443.727661 C 297.002747 443.427612 297.0625 443.076477 297.036743 442.950317 C 297.014709 442.842346 297.271454 441.9823 297.602997 441.031006 C 298.513977 438.496521 298.542175 438.359314 298.499939 436.771667 C 298.467682 435.969849 298.458557 434.637512 298.459229 433.81073 C 298.459106 432.984131 298.323975 431.678284 298.148041 430.905762 C 297.919983 429.881836 297.88916 429.362366 298.024872 429.014771 C 298.14975 428.707397 298.139618 427.920837 298.046112 427.094299 C 297.819 425.431152 297.648132 421.464233 297.774963 420.611694 C 297.801971 420.286316 297.840576 419.094727 297.850891 417.946838 C 297.860321 416.798401 297.931061 415.58197 298.031036 415.241699 C 298.131165 414.902161 298.157867 414.38916 298.09906 414.101074 C 298.0401 413.812256 298.058472 413.07605 298.135345 412.440369 C 298.2854 411.150818 298.147644 410.107605 297.756805 409.849304 C 297.517914 409.691406 297.472626 409.287354 297.244232 405.313965 C 297.213165 404.700317 297.133118 403.664368 297.054565 403.004211 C 296.97583 402.343323 296.877472 401.217651 296.846191 400.509827 C 296.792328 399.788391 296.740509 398.615234 296.690979 397.911133 C 296.609344 396.405945 296.607361 394.189331 296.709686 393.492249 C 296.730377 393.225159 296.773987 392.333374 296.773895 391.506775 C 296.792023 390.676392 296.827972 389.653992 296.873138 389.231445 C 296.918304 388.808899 296.99765 387.909851 297.045258 387.223938 C 297.075409 386.541565 297.170532 385.902161 297.24176 385.793396 C 297.291931 385.670715 297.312622 385.403625 297.264679 385.168762 C 297.220459 384.952087 297.219116 384.577087 297.261597 384.32373 C 297.286011 384.07489 297.372955 383.399109 297.407043 382.829224 C 297.565308 380.936157 298.31073 374.922241 298.508728 373.867554 C 298.557922 373.650818 298.649536 373.087341 298.738434 372.59967 C 298.808136 372.115112 298.992676 371.269836 299.120789 370.698914 C 299.251862 370.146362 299.347046 369.600403 299.325012 369.492432 C 299.291809 369.329773 299.621704 367.815796 300.136444 365.644104 C 300.218323 365.30835 300.405579 364.387207 300.543457 363.588684 C 300.681305 362.7901 300.918304 361.557983 301.073853 360.850037 C 301.230164 360.141907 301.407257 359.260132 301.480927 358.887939 C 301.537872 358.519226 301.64447 358.122131 301.712738 357.994995 C 301.765869 357.890686 301.782837 357.605347 301.731323 357.353027 C 301.576599 356.595154 301.789185 355.611877 302.58197 353.421448 C 303.003662 352.264038 303.655579 350.120544 304.014893 348.657593 C 304.391541 347.190308 304.743683 345.878418 304.829437 345.747742 C 304.912384 345.599365 305.147675 345.006531 305.344269 344.402649 C 305.55835 343.795166 305.833557 343.025574 305.965698 342.660522 C 306.101379 342.312927 306.319183 341.723694 306.451324 341.358643 C 306.587158 341.01178 307.080322 339.839783 307.556213 338.765564 C 308.050354 337.687622 308.425964 336.766052 308.411224 336.693848 C 308.400208 336.639893 308.564331 336.249268 308.80069 335.843933 C 309.023254 335.460388 309.194611 335.012085 309.165131 334.867615 C 309.135651 334.723206 309.254089 334.473389 309.441406 334.285461 C 309.610291 334.100586 309.928833 333.546997 310.164948 333.047485 C 310.383728 332.552246 310.867126 331.60791 311.222076 330.953491 C 311.576843 330.298279 311.866882 329.694336 311.852142 329.622131 C 311.826355 329.495911 312.690033 327.834961 313.32431 326.80365 C 315.584656 323.148804 315.997192 322.594299 318.302429 320.35791 C 318.745392 319.948425 319.158356 319.582214 319.24881 319.563721 C 319.339264 319.545288 319.605103 319.284363 319.860687 318.969299 C 320.097076 318.657349 320.43512 318.381714 320.616028 318.344727 C 320.777924 318.311707 320.979828 318.195251 321.069458 318.083557 C 321.137726 317.95636 321.868744 317.488037 322.708466 316.997498 C 323.532745 316.52832 324.440979 316.004822 324.725098 315.833557 C 326.003571 315.103027 327.24762 314.661377 327.655701 314.82196 C 327.942047 314.932983 328.194397 314.881409 328.583649 314.670532 C 329.476593 314.169128 332.346832 313.319519 332.871002 313.40094 C 333.279022 313.468079 333.404968 313.348145 334.039032 312.222595 C 334.906647 310.674072 336.571625 309.075195 338.444763 307.941345 C 339.600769 307.254822 340.138031 307.031921 341.472809 306.759399 L 343.095642 306.428101 L 343.603424 305.141479 C 343.874969 304.447083 344.163696 303.561462 344.21991 303.192871 C 344.276093 302.824341 344.418945 302.325623 344.504608 302.10144 C 344.801636 301.345642 344.487762 300.545044 343.662323 300.000183 C 343.249512 299.727356 342.872955 299.352905 342.836182 299.172729 C 342.799408 298.992615 342.474731 298.232239 342.117889 297.496643 C 341.757507 296.743591 341.41452 295.893555 341.348236 295.56897 C 341.285553 295.261902 340.911407 294.53064 340.52948 293.951416 C 339.425964 292.315979 339.425964 292.315979 338.821899 291.199341 C 338.512939 290.605164 338.211517 290.140991 338.121063 290.159424 C 338.048828 290.174194 337.682495 289.760437 337.312195 289.234253 C 336.94577 288.727112 336.481232 288.107727 336.281555 287.866577 C 336.085602 287.643738 335.896667 287.268982 335.852448 287.052368 C 335.80838 286.836487 335.647919 286.512146 335.477509 286.321228 C 335.223663 285.996948 334.557281 284.668213 333.544556 282.376038 C 333.278625 281.810303 332.952332 281.406616 332.525757 281.155579 C 331.972198 280.837097 331.833801 280.620667 331.4133 279.297913 C 331.153381 278.486328 330.864899 277.530884 330.794922 277.18811 C 330.724945 276.845276 330.157227 274.894592 329.53537 272.860718 C 328.142029 268.335754 327.687714 265.741943 327.684875 262.322693 C 327.671783 259.958679 327.703491 259.745544 328.988342 255.086365 C 330.173218 250.767456 330.36557 250.239685 330.905426 249.75415 C 331.239716 249.460205 331.491577 249.126892 331.462097 248.982483 C 331.40329 248.694397 331.923676 248.024414 332.650757 247.443665 C 332.956787 247.193481 333.517212 246.440125 333.882172 245.745605 C 334.247894 245.050964 334.714355 244.391968 334.901703 244.297546 C 335.442627 243.999451 336.308075 242.901855 336.647278 242.081238 C 336.983521 241.242126 338.231995 240.085388 340.190277 238.821716 C 340.921906 238.352478 341.619965 237.815674 341.738617 237.659973 C 341.856506 237.504517 342.418274 237.12616 342.976654 236.824463 C 344.317169 236.118469 350.127899 234.76355 350.561768 235.050293 Z M 455.533142 324.055664 C 454.243011 325.559021 452.580566 326.987976 451.701294 327.374084 C 451.391479 327.512573 450.779572 328.013611 450.370361 328.491455 C 449.377991 329.614929 447.781281 331.08667 447.456696 331.152893 C 447.095642 331.226624 445.810486 333.029846 445.176727 334.342957 C 444.968872 334.798706 444.696869 335.30481 444.567413 335.500671 C 444.079834 336.238403 443.076111 339.055481 442.354309 341.682739 C 441.93396 343.21521 441.503326 344.693542 441.392181 344.979065 C 440.141785 348.240051 439.784485 349.065186 439.640045 349.094666 C 439.549591 349.113159 439.406311 349.423523 439.328125 349.777527 C 439.215668 350.421265 438.038422 353.02832 437.807495 353.188721 C 437.743347 353.239014 437.657867 353.557312 437.611725 353.885864 C 437.588287 354.22876 437.315674 354.735718 437.016937 355.021606 C 436.690094 355.35199 436.471069 355.752991 436.465271 356.093079 C 436.473846 356.4104 436.230499 356.967651 435.950989 357.343811 C 435.670715 357.720154 435.319641 358.393555 435.148285 358.841858 C 434.976929 359.290161 434.754364 359.673706 434.66391 359.6922 C 434.574219 359.71051 434.412811 360.02533 434.312683 360.364868 C 434.217041 360.722473 433.693665 361.750183 433.15979 362.629639 C 432.625153 363.509216 432.191986 364.424255 432.182068 364.651184 C 432.157806 364.900757 432.031921 365.114136 431.888275 365.143494 C 431.184387 365.28717 430.924255 367.049805 431.585632 367.159424 C 431.741058 367.183899 431.907745 367.356567 431.944519 367.536682 C 431.985046 367.735107 431.91037 368.013184 431.79187 368.169617 C 431.357208 368.708923 431.624603 368.917175 432.505035 368.719238 C 433.741913 368.428711 435.585022 368.803833 435.702942 369.381531 C 435.769226 369.706116 435.895477 369.773804 436.256531 369.700073 C 436.941406 369.560242 438.492065 369.976868 438.663544 370.355164 C 438.848755 370.71167 438.848755 370.71167 440.230194 370.392456 C 440.966064 370.223206 441.337097 370.016052 441.704102 369.603027 C 441.962494 369.305603 442.228302 369.044678 442.28302 369.033508 C 442.498901 368.989441 443.785553 367.562012 443.75235 367.399353 C 443.734039 367.309631 443.863708 367.207947 444.062103 367.167419 C 444.243011 367.130493 444.469604 366.95282 444.566315 366.782593 C 444.662994 366.612427 444.835632 366.44574 444.943573 366.423706 C 445.052277 366.40155 445.444061 366.02063 445.80658 365.589539 C 446.170013 365.159058 446.561798 364.778198 446.669739 364.756104 C 446.778442 364.733948 447.213165 364.288086 447.619385 363.791809 C 448.039398 363.273743 448.568237 362.734253 448.820374 362.588562 C 449.07251 362.442871 449.273346 362.138977 449.272064 361.857361 C 449.289032 361.572021 449.436127 361.373352 449.634521 361.332825 C 449.81543 361.295898 450.042023 361.118225 450.138733 360.947998 C 450.235413 360.777832 450.462006 360.600159 450.642181 360.563354 C 450.82309 360.526428 451.099701 360.225281 451.257507 359.892944 C 451.414429 359.560059 451.716675 359.198242 451.939606 359.095703 C 452.314362 358.906799 455.383728 354.428833 456.192871 352.87323 C 456.383301 352.514465 456.896118 351.621155 457.347809 350.889954 C 457.795959 350.141235 458.466522 349.008301 458.806763 348.375061 C 459.147797 347.741638 459.886169 346.483215 460.438293 345.600037 C 461.303223 344.220703 461.704437 343.424622 462.71637 341.019958 C 462.79126 340.835999 463.062805 340.141602 463.320587 339.468994 C 463.577637 338.796509 463.942383 338.007874 464.107483 337.711304 C 464.943176 336.281738 465.165009 333.963135 464.513336 333.53241 C 464.361389 333.432007 464.193878 333.166138 464.149658 332.949463 C 464.046448 332.444031 464.124146 328.313965 464.24884 327.912354 C 464.309937 327.750244 464.343872 327.179565 464.334106 326.674011 C 464.339752 326.147095 464.361389 325.240845 464.405365 324.630066 C 464.518341 322.972717 464.456085 322.854004 463.527863 322.817871 C 462.563873 322.789001 460.744019 322.709961 458.93869 322.609009 C 456.909271 322.515747 456.84079 322.548767 455.533142 324.055664 Z M 408.085938 395.065735 C 406.60144 397.548645 405.613617 398.78363 404.504486 399.517578 C 403.377716 400.254395 401.845612 400.754822 401.559143 400.45697 C 401.483002 400.359314 401.107178 400.36084 400.746124 400.434509 C 400.367584 400.51178 399.876556 400.499634 399.648682 400.395691 C 398.802307 400.023743 397.707214 400.453979 397.843445 401.121338 C 397.869202 401.247498 397.781311 401.829224 397.653198 402.400146 C 397.533295 403.007385 397.500946 404.047302 397.579712 404.801636 C 397.673004 405.533997 397.647705 406.515442 397.552307 406.967285 C 397.438629 407.422791 397.376495 408.130676 397.403534 408.538513 C 397.430573 408.946289 397.397919 409.798584 397.302795 410.437988 C 397.225891 411.073669 397.214233 411.846497 397.273041 412.134583 C 397.427765 412.892395 396.996368 415.929932 396.602722 416.949402 C 396.41684 417.419678 396.016388 418.215637 395.704315 418.71167 C 395.395844 419.225159 395.098541 419.793396 395.041138 419.973816 C 394.98761 420.173157 394.786835 420.570435 394.589722 420.892578 C 394.392609 421.214722 394.285187 421.518494 394.350922 421.56134 C 394.592804 421.73761 396.464966 421.242981 397.023163 420.847107 C 397.368469 420.607178 397.919647 420.36322 398.262482 420.293213 C 398.605286 420.223206 399.574158 419.725342 400.406433 419.198303 C 401.237946 418.671448 402.009033 418.213135 402.098724 418.194824 C 402.207428 418.172668 402.589386 417.926025 402.966736 417.660522 C 403.341248 417.377441 404.285187 416.846619 405.038239 416.486206 C 406.96936 415.54718 408.060394 414.817688 409.153503 413.729919 C 411.703369 411.217957 416.576538 408.40033 417.225769 409.094421 C 417.413666 409.281738 418.391876 409.101013 418.473816 408.858643 C 418.563232 408.65271 420.284698 407.606079 421.084503 407.292358 C 421.416321 407.168396 421.902496 406.88147 422.161865 406.678101 C 422.402985 406.478455 422.809723 406.263977 423.026367 406.219727 C 423.26123 406.171753 423.64975 405.960999 423.909088 405.757629 C 424.150208 405.557983 424.769592 405.093384 425.258514 404.730713 C 426.432312 403.852112 426.763062 403.54071 427.054138 403.124146 C 427.251251 402.802063 427.18985 402.77655 426.179565 402.889404 C 425.334778 402.986633 424.886536 402.908691 424.123413 402.575989 C 423.566956 402.332458 423.00235 401.959961 422.850189 401.765381 C 422.574371 401.426575 420.592804 400.741577 419.556549 400.634094 C 419.134003 400.588867 417.322388 399.906433 417.094421 399.709106 C 417.029297 399.665405 416.790619 399.601685 416.541016 399.577393 C 416.310394 399.549255 416.100006 399.441772 416.081696 399.352112 C 416.063202 399.261658 415.940552 399.211487 415.814362 399.237244 C 415.449585 399.292664 414.519684 398.693909 414.164063 398.146545 C 413.891144 397.732727 413.832153 397.443848 413.887848 396.793518 C 413.92572 396.335205 414.010132 395.829468 414.074829 395.684814 C 414.217957 395.373718 413.557983 394.813232 413.161194 394.894226 C 412.782654 394.971558 411.310364 394.295044 411.132446 393.974243 C 411.041687 393.805115 410.723083 393.532043 410.419189 393.331238 L 409.871948 392.954407 L 409.300079 393.465454 C 409.001495 393.752075 408.451874 394.465271 408.085938 395.065735 Z"/>
            </g>
            <g id="g1">
                <path id="path7" fill="#000000" stroke="none" d="M 428.452057 497.492371 C 428.336884 497.572113 428.171265 497.586914 428.105499 497.544128 C 428.023041 497.50473 428.119812 497.427979 428.32193 497.405731 C 428.520325 497.365204 428.585297 497.408173 428.452057 497.492371 Z"/>
            </g>
        </g>
        <path id="book-1296329" fill="#000000" stroke="#000000" stroke-width="0.0938" d="M 627.073486 416.432129 C 635.407715 410.907959 643.308716 404.35083 653.251526 401.231873 C 659.733093 399.03125 666.646179 399.672546 672.843201 401.112915 C 677.934021 402.363037 682.79187 404.229919 687.044556 406.796448 C 691.752625 409.650146 693.391907 414.731628 695.061768 419.317139 C 695.924988 422.123596 699.017151 423.792542 702.149841 424.488159 C 705.502441 424.887085 709.279175 424.453186 712.132263 426.112183 C 714.87384 427.776733 717.101379 429.953003 719.363586 432.051147 C 723.268555 435.924988 727.349548 439.822205 729.731628 444.640015 C 731.051453 448.434387 730.883179 452.637024 732.72937 456.275391 C 735.660889 461.862732 740.144165 466.609192 743.994812 471.682495 C 746.30542 474.741821 749.715332 477.087036 751.535889 480.450378 C 753.676819 484.352417 753.258484 488.945801 752.913208 493.304962 C 752.677368 495.286346 753.251526 497.20755 754.173035 498.920258 C 754.466431 499.765808 754.708496 500.630005 754.932678 501.503479 C 754.421082 501.693817 753.911926 501.874939 753.404297 502.042816 C 750.786316 500.41629 748.62323 498.341705 746.006348 496.719177 C 747.165894 500.2164 748.950256 503.487274 750.641846 506.775604 C 751.517639 508.655029 753.238953 510.032562 754.546997 511.658356 C 755.73938 512.944641 754.366699 514.791382 754.965698 516.269531 C 756.885559 523.01239 759.359253 529.58728 761.656738 536.211609 C 761.891235 537.231812 762.984863 537.780518 763.504883 538.665161 C 763.562012 539.859009 762.904968 541.052063 762.969055 542.252563 C 763.285522 543.76709 766.292236 543.407898 766.317993 545.076538 C 765.74939 547.245239 763.589355 549.141479 763.933105 551.413696 C 765.082336 552.729126 766.325195 553.975647 767.647461 555.157104 C 768.982605 556.219543 768.46582 558.023132 768.443359 559.483032 C 768.346924 562.053833 767.627319 564.765015 768.795898 567.139526 C 769.528137 569.22168 772.294922 570.169495 772.547119 572.463013 C 774.080505 578.908081 774.864624 585.520264 776.118469 592.030762 C 776.471191 595.031494 777.511292 597.882446 777.931824 600.868469 C 778.553589 603.60144 779.172119 606.579041 777.713989 609.385986 C 777.14502 610.874939 775.795349 612.309021 776.03717 613.887268 C 779.22937 613.933533 782.336304 611.310303 785.455017 612.377563 C 788.057678 612.977966 788.383484 615.51593 789.391052 617.315735 C 793.170776 625.692322 796.840576 634.116821 800.412598 642.577271 C 801.930115 646.12384 803.541748 649.639771 804.948181 653.230225 C 806.57196 657.046326 808.275635 660.835815 809.709656 664.726379 C 810.339661 666.131714 811.033142 667.562012 811.131958 669.124756 C 810.929749 671.07959 808.424255 671.871338 806.616943 672.570068 C 803.305542 673.583252 799.93396 674.711609 796.480286 674.905396 C 794.59021 674.575562 794.000122 672.744263 793.491943 671.351807 C 793.297424 668.695862 791.816711 666.417236 790.854065 663.989258 C 787.210815 656.044678 783.622498 648.076233 779.744141 640.227478 C 778.630981 637.86731 777.469055 635.516479 775.992615 633.326538 C 768.226807 635.104492 760.650024 637.66748 752.998291 639.871033 C 747.836182 641.684875 742.513062 643.052185 737.427734 645.066772 C 734.584229 646.521851 731.403137 648.550171 730.867432 651.496338 C 730.77124 654.819458 731.253723 658.10022 731.843933 661.325195 C 732.910034 668.247437 734.400208 675.106445 736.807556 681.682861 C 737.395081 683.651611 738.614563 685.456116 738.7771 687.539673 C 738.309387 689.060181 736.182556 689.296875 734.814453 690.005005 C 730.564697 691.482056 726.323792 693.247314 721.830322 693.817871 C 720.556885 694.020691 719.224976 693.739746 718.440735 692.920532 C 716.746826 691.218994 716.790039 688.77002 716.393372 686.602417 C 713.677979 676.341553 712.143799 665.805298 709.938782 655.422852 C 709.021545 650.425537 707.972412 645.452271 707.372559 640.395996 C 707.232422 637.934204 709.94342 636.152954 711.266846 634.093506 C 710.930237 633.405396 709.760803 633.686035 709.047607 633.50531 C 706.099731 633.377808 703.172546 632.902466 700.211243 632.983887 C 695.080444 634.707703 690.20105 637.053711 685.078796 638.826477 C 678.999268 640.995667 672.832153 643.420288 666.352905 643.905884 C 658.827271 644.359619 651.516113 643.214233 644.326294 642.043457 C 642.69873 641.678589 640.51239 642.692932 639.313171 641.455627 C 638.839722 640.168884 638.920532 638.752441 638.698059 637.408203 C 637.985657 628.980347 637.604553 620.506714 637.215027 612.039673 C 637.064331 610.016907 637.669617 607.979004 637.845947 605.950195 C 638.070679 603.929199 636.679626 602.245361 634.804443 601.308594 C 632.923096 600.386353 630.662842 599.394958 628.311462 600.113525 C 627.996521 603.480896 629.215942 606.623596 629.591003 609.887451 C 629.309692 615.263306 628.427612 620.657837 628.019409 626.039307 C 627.451904 634.701782 624.126709 643.200562 621.127502 651.616455 C 618.692871 658.527588 615.315308 665.318115 614.073669 672.399414 C 613.353699 675.512573 615.455261 678.156006 617.549622 680.296814 C 619.953308 682.808472 623.063354 684.72467 625.632019 687.091797 C 626.942627 688.580078 625.299377 690.451294 624.611816 692.011963 C 624.67926 692.1427 624.815308 692.408142 624.882751 692.538879 C 626.019897 693.041138 627.523804 693.239746 628.259277 694.196533 C 629.759094 697.294922 630.476501 700.680908 631.138916 704.035217 C 631.88916 706.933105 632.425842 709.912231 632.378723 712.952393 C 632.362488 715.222778 630.206116 717.11377 628.196106 718.519043 C 626.52948 719.738403 624.457886 720.318787 622.421387 720.73114 C 620.065125 720.313843 619.617676 718.075012 618.767578 716.470581 C 617.745422 713.738525 616.617004 711.049194 615.599609 708.315918 C 614.735901 706.552734 613.858826 704.742065 612.184326 703.458374 C 611.50415 703.670288 610.73822 703.777954 610.181458 704.228943 C 608.233215 705.817932 607.004395 707.885132 605.711182 709.850586 C 603.673279 713.264587 601.896301 716.785034 600.419006 720.366821 C 599.739563 721.809814 600.359375 723.252197 600.709534 724.612061 C 600.456055 725.503906 600.190796 726.518738 599.147339 727.029053 C 594.458435 729.762085 589.105591 731.261719 583.992432 733.121704 C 578.924805 734.631165 573.826904 736.050781 568.712708 737.393799 C 564.118225 738.300415 559.565857 739.742554 554.901367 739.959106 C 553.565735 740.068237 552.34021 739.543701 551.628418 738.652954 C 549.781799 736.498169 549.132874 733.503479 550.06543 730.745483 C 550.543457 729.243469 552.294434 728.453674 553.792847 727.807251 C 557.516541 726.34082 561.536255 725.325806 564.849915 723.110657 C 568.001465 720.885254 569.441284 717.536316 571.202454 714.546143 C 576.907837 703.525146 581.238037 692.068481 584.249939 680.489563 C 586.309448 671.909302 586.750122 663.252441 587.262085 654.648315 C 587.799438 644.172974 587.911133 633.718628 588.05957 623.266846 C 588.187622 619.250671 587.854431 615.201294 588.977478 611.180054 C 589.790527 608.160522 590.840698 605.125854 590.84082 602.064697 C 590.800781 596.330017 588.902466 590.78241 589.863708 584.955322 C 591.038086 577.285706 595.07605 570.010925 597.286499 562.482849 C 591.567444 562.088501 585.763489 562.179688 579.992615 562.150391 C 577.660095 562.239563 575.329895 562.080078 572.99292 562.409851 C 571.838135 563.109619 571.076477 564.387512 569.617981 564.608032 C 567.015259 564.960938 564.374023 564.20459 562.717041 562.616638 C 561.392761 561.226196 558.965027 562.038879 557.222778 562.676636 C 554.013123 564.016174 550.534607 564.396362 547.222412 565.388428 C 542.384399 566.654053 537.25769 567.714111 532.396606 566.972534 C 528.566528 566.390991 524.923706 565.23114 521.572021 563.699036 C 520.611755 563.241272 519.61731 562.771729 518.927551 562.032959 C 517.766113 560.673828 517.737366 558.847839 517.002136 557.305176 C 515.37738 553.925537 513.659546 550.580444 512.214905 547.128845 C 511.522278 545.719666 513.476746 543.731323 511.743347 542.750549 C 506.849579 538.995544 501.480469 535.707153 496.48175 532.054199 C 493.726379 530.04718 491.436829 527.576233 488.355682 525.891357 C 487.468262 525.400391 486.753418 524.737061 486.092377 524.045776 C 486.272858 522.875122 486.886566 521.783997 487.454041 520.692993 C 489.993774 514.945313 492.039337 509.08371 494.23938 503.260101 C 494.913116 501.74176 495.824585 499.733551 497.958832 499.413513 C 498.587646 499.164673 499.010284 499.683289 499.47171 499.90033 C 502.594391 501.898468 505.086609 504.744446 508.894379 505.888 C 511.633911 505.436859 513.374512 503.234894 515.564636 501.885956 C 516.315247 501.393524 516.904785 502.233032 517.410828 502.535889 C 518.880371 503.949738 519.872375 505.694 521.393494 507.072021 C 528.565979 513.625977 535.754211 520.16272 542.906189 526.735229 C 547.733215 531.278442 552.753357 535.686401 557.311096 540.441895 C 558.374207 541.486572 556.651062 542.559265 555.802979 543.326965 C 555.695984 543.476685 555.477173 543.777344 555.365417 543.928406 C 557.773987 545.797363 560.420959 547.454224 563.315979 548.768066 C 564.102722 547.671204 564.411316 546.169617 565.927551 545.58667 C 567.575806 545.035156 569.409973 545.18396 570.932007 545.685303 C 572.101685 546.285278 572.913757 547.259155 574.002319 547.95459 C 577.275269 547.22583 580.48584 546.219482 583.738342 545.380981 C 590.223694 543.487122 596.74408 541.681763 603.244141 539.822266 C 607.543579 538.669067 611.853821 537.187988 616.310608 536.999634 C 619.799683 536.749023 623.376953 537.106323 626.781555 535.857544 C 629.468872 535.220093 631.01593 533.042358 632.611694 531.240112 C 637.717773 525.119629 642.251465 518.697876 646.854248 512.320801 C 651.841736 505.19046 656.828125 498.056122 661.464355 490.771912 C 663.929138 487.01178 666.360168 483.222595 668.434509 479.315308 C 669.500977 477.695496 668.516602 475.923401 667.358948 474.742859 C 665.78595 473.161316 663.495728 471.806396 660.832581 472.035156 C 656.4422 473.30365 652.76001 476.036743 648.478027 477.5271 C 647.400146 477.914551 646.11145 478.172974 645.218811 477.516724 C 643.209656 476.083069 642.593262 473.7547 641.35083 471.84967 C 640.277283 471.940979 639.205933 472.040161 638.1427 472.149902 C 637.921143 471.96405 637.478027 471.592285 637.257507 471.410339 C 637.4823 470.470947 637.749634 469.536743 638.022766 468.605164 C 636.60321 468.323059 634.994568 468.465942 633.726685 467.863464 C 632.973877 466.881531 633.212708 465.570557 632.930603 464.435425 C 630.449463 464.177124 627.655457 464.562256 625.58905 463.272888 C 625.379333 462.450989 625.083435 461.614685 625.324829 460.734741 C 626.012695 457.121826 627.723022 453.491821 627.185303 449.867432 C 626.64679 444.315125 623.648499 439.387756 623.260864 433.805969 C 623.204163 431.256714 623.424866 428.689575 623.483154 426.129456 C 623.583923 424.344116 622.045471 422.94104 622.218445 421.156799 C 623.034241 419.137085 625.25708 417.813171 627.073547 416.432129 M 695.609375 432.528198 C 695.954529 434.475098 696.726013 436.422241 696.205811 438.470459 C 695.686096 440.685303 695.364624 443.002747 693.977722 445.037231 C 693.124939 445.42157 692.297546 445.841431 691.483032 446.270569 C 691.84198 447.790283 692.123291 449.344666 692.67395 450.815002 C 693.637878 452.349121 694.916626 453.705261 696.009766 455.168945 C 696.20282 455.106323 696.593689 454.979736 696.786682 454.917114 C 696.213623 451.918213 695.385498 448.815552 696.367615 445.684509 C 697.177246 443.037903 698.69928 440.550842 700.177002 438.088989 C 701.012817 436.709045 702.662781 435.173706 701.625977 433.672852 C 700.494324 431.924927 697.719727 432.031067 695.609375 432.528198 M 661.089172 547.438721 C 656.695313 550.674805 652.505066 554.106018 648.408142 557.61377 C 648.483215 557.716675 648.638123 557.921265 648.713196 558.02417 C 654.930359 558.509888 661.144348 559.039185 667.328186 559.662354 C 671.533752 560.117371 675.773987 560.549805 679.751465 561.675659 C 683.579285 562.634033 687.194946 564.045166 691.080688 564.880493 C 690.623413 563.614868 689.997986 562.40918 689.630066 561.114258 C 690.658386 560.018066 691.507507 558.814026 692.215332 557.563965 C 690.790283 557.830688 689.151978 558.930969 687.822815 558.183228 C 686.873291 556.957153 687.963562 555.330688 687.668396 553.94696 C 687.249756 551.939453 686.336426 549.724243 684.085999 548.841248 C 680.694336 548.248047 676.896545 549.431702 673.64386 548.307922 C 670.84613 547.432983 669.625305 544.743774 666.681519 544.080688 C 664.596497 544.869995 662.85437 546.20459 661.089172 547.438721 Z"/>
    </g>
</svg>
