<?xml version='1.0' encoding='utf-8'?>
<svg xmlns="http://www.w3.org/2000/svg" enable-background="new 0 0 100 100" version="1.1" viewBox="0 0 100 100">
	<path d="m89.027 16.403h-21.806c1.279 2.555 2.131 5.417 2.438 8.466 1.151 0.524 1.961 1.679 1.961 3.03 0 1.396-0.858 2.59-2.075 3.088-0.391 0.158-0.814 0.248-1.261 0.248-0.55 0-1.063-0.134-1.521-0.368-1.078-0.553-1.816-1.673-1.816-2.968 0-1.17 0.605-2.192 1.52-2.788-0.335-3.212-1.354-6.182-2.884-8.708h-27.136c-1.532 2.529-2.551 5.503-2.884 8.719 0.901 0.598 1.499 1.615 1.499 2.777 0 1.295-0.738 2.415-1.816 2.968-0.457 0.234-0.972 0.368-1.52 0.368-0.446 0-0.872-0.09-1.26-0.248-1.217-0.498-2.075-1.692-2.075-3.088 0-1.358 0.815-2.521 1.98-3.041 0.306-3.043 1.155-5.903 2.433-8.456h-21.834l-2.671 73.254c0 2.951 2.392 5.344 5.344 5.344h72.712c2.953 0 5.347-2.393 5.347-5.344l-2.675-73.253z"/>
	<path d="m30.661 27.355l6e-3 0.059c0.033 0.626 0.548 1.117 1.171 1.117 0.625 0 1.139-0.49 1.173-1.117l7e-3 -0.145c0.073-10.761 7.669-19.49 16.997-19.49 9.344 0 16.953 8.762 16.997 19.552l8e-3 0.083c0.031 0.626 0.545 1.116 1.17 1.116s1.139-0.49 1.174-1.117l5e-3 -0.097c-0.066-12.088-8.738-21.895-19.354-21.895-10.627 0-19.308 9.83-19.353 21.911l-1e-3 0.023z"/>
</svg>