<?xml version="1.0" encoding="UTF-8"?>
<!-- Generated by Pixelmator Pro 3.3.2 -->
<svg width="1000" height="1000" viewBox="0 0 1000 1000" xmlns="http://www.w3.org/2000/svg" xmlns:xlink="http://www.w3.org/1999/xlink">
    <g id="book-1296045">
        <filter id="filter1" x="0" y="0" width="1000" height="1000" filterUnits="userSpaceOnUse" primitiveUnits="userSpaceOnUse" color-interpolation-filters="sRGB">
            <feGaussianBlur stdDeviation="9.937792"/>
        </filter>
        <path id="Traado" fill="#94d4b2" stroke="none" filter="url(#filter1)" d="M 811.653687 999.001526 L 135.68988 947.311951 C 104.696159 944.977112 73.594101 934.663513 76.501358 909.817993 L 116.847298 100.128357 C 117.429626 67.447021 181.459763 112.175842 214.400284 111.907166 L 821.908447 122.275269 C 869.636902 123.106567 883.086792 136.009399 882.821411 175.516602 L 877.819092 943.841064 C 877.533813 987.972534 860.896667 1002.743896 811.653687 999.001526 Z"/>
        <path id="path1" fill="#6a9856" stroke="none" d="M 861.60022 921.151489 L 159.941208 927.356506 C 127.766006 927.674438 95.400665 920.196472 98.152824 895.734558 L 132.148438 100.299744 C 132.457809 68.194885 199.316956 106.573975 233.48674 103.546082 L 863.706177 62.752991 C 913.336548 59.495544 927.391968 71.074463 927.500183 109.743164 L 929.790833 861.661011 C 929.923523 904.854736 912.698608 920.765015 861.60022 921.151489 Z"/>
        <filter id="filter2" x="0" y="0" width="1000" height="1000" filterUnits="userSpaceOnUse" primitiveUnits="userSpaceOnUse" color-interpolation-filters="sRGB">
            <feGaussianBlur stdDeviation="6.11926"/>
            <feOffset dx="-0" dy="18.35778" result="offsetblur"/>
            <feFlood flood-color="#000000" flood-opacity="0.5"/>
            <feComposite in2="offsetblur" operator="in"/>
            <feMerge>
                <feMergeNode/>
                <feMergeNode in="SourceGraphic"/>
            </feMerge>
        </filter>
        <path id="path2" fill="#95c0c8" fill-rule="evenodd" stroke="none" filter="url(#filter2)" d="M 126.391426 843.805481 C 126.610428 870.841187 135.671494 898.968384 162.707214 898.74939 L 842.805237 894.454041 C 869.840942 894.235046 898.537842 887.850647 898.318848 860.814941 L 907.786682 69.228455 C 907.567688 42.192749 854.359863 38.010864 827.324036 38.229858 L 188.470123 44.378967 C 161.434448 44.597961 144.321442 50.195679 144.540298 77.231384 Z"/>
        <path id="path3" fill="#6a9856" stroke="none" d="M 814.184021 859.027283 L 145.868317 865.033081 C 119.674332 864.690125 107.059853 873.49707 97.885002 897.12207 L 131.796173 94.195496 C 132.105545 62.090698 151.900497 44.449768 186.070297 41.421753 L 816.312195 0.542297 C 865.920105 -2.628723 879.99823 8.863892 880.106445 47.532532 L 882.37439 799.536743 C 882.507019 842.73053 865.304871 858.554382 814.184021 859.027283 Z"/>
        <filter id="filter3" x="0" y="0" width="1000" height="1000" filterUnits="userSpaceOnUse" primitiveUnits="userSpaceOnUse" color-interpolation-filters="sRGB">
            <feGaussianBlur stdDeviation="4.234247"/>
        </filter>
        <path id="path4" fill="none" stroke="#507441" stroke-width="8.926337" filter="url(#filter3)" d="M 904.77124 68.690308 L 907.260986 841.870667 C 907.393677 885.064453 890.191223 900.888306 839.070374 901.361145 L 170.754913 907.367065 C 170.754913 907.367065 127.252518 912.952759 123.647873 868.21228"/>
        <linearGradient id="linearGradient1" x1="265.506977" y1="123.89046" x2="265.506977" y2="816.287523" gradientUnits="userSpaceOnUse" gradientTransform="matrix(0.999745 0.022603 -0.022603 0.999745 10.683146 -4.974935)">
            <stop offset="1e-05" stop-color="#ffffff" stop-opacity="1"/>
            <stop offset="0.5" stop-color="#cee5f0" stop-opacity="1"/>
            <stop offset="1" stop-color="#e9f3f8" stop-opacity="1"/>
        </linearGradient>
        <path id="Retngulo-arredondado" fill="url(#linearGradient1)" fill-rule="evenodd" stroke="none" visibility="hidden" d="M 188.083939 785.332031 C 187.707031 802.002502 200.915604 815.822144 217.586105 816.199097 C 234.256592 816.575989 248.076248 803.367432 248.453156 786.696899 L 262.738708 154.845947 C 263.115631 138.175476 249.907043 124.355774 233.236557 123.978882 C 216.566055 123.60199 202.746399 136.810547 202.369507 153.481018 Z"/>
        <g id="Arames">
            <g id="Furos">
                <path id="Elipse" fill="#f2f7f8" fill-rule="evenodd" stroke="none" d="M 265.468262 181.116943 C 270.137848 163.125366 259.868591 144.892578 242.531281 140.392822 C 225.193954 135.893005 207.353851 146.830322 202.68428 164.821838 C 198.014725 182.813416 208.283966 201.046204 225.621292 205.546021 C 242.958603 210.045776 260.798706 199.108521 265.468262 181.116943 Z"/>
                <path id="Elipse-copiar" fill="#f2f7f8" fill-rule="evenodd" stroke="none" d="M 247.128754 494.185852 C 251.798309 476.194275 241.529068 457.961487 224.191742 453.461731 C 206.854431 448.961975 189.014328 459.899231 184.344757 477.890747 C 179.675186 495.882324 189.944443 514.115112 207.281754 518.614868 C 224.61908 523.114624 242.459183 512.177368 247.128754 494.185852 Z"/>
                <path id="Elipse-copiar-2" fill="#f2f7f8" fill-rule="evenodd" stroke="none" d="M 248.683594 769.967957 C 253.353165 751.97644 243.083908 733.743591 225.746597 729.243835 C 208.409271 724.74408 190.569168 735.681335 185.899612 753.672852 C 181.230042 771.664429 191.499283 789.897278 208.836609 794.397034 C 226.17392 798.89679 244.014038 787.959534 248.683594 769.967957 Z"/>
            </g>
            <g id="Arame">
                <path id="path5" fill="#222424" fill-rule="evenodd" stroke="none" d="M 130.306946 141.81488 C 118.214973 140.471008 88.031067 148.25293 74.673218 159.912292 C 74.673218 159.912292 70.426735 175.755249 72.071472 181.069519 C 74.765923 189.775452 82.635468 196.826233 92.361092 198.305359 C 131.098068 204.196594 209.895706 196.5896 209.895706 196.5896 C 222.049423 196.032104 244.842133 183.888184 244.284653 171.734558 C 243.727173 159.580933 228.532455 150.404602 216.378784 150.962097 L 123.295494 151.556274 C 111.141792 152.113831 134.664642 142.299133 130.306946 141.81488 Z"/>
                <path id="Traado-copiar-2" fill="#222424" fill-rule="evenodd" stroke="none" d="M 104.833443 732.00061 C 92.74147 730.656738 62.557571 738.438721 49.199722 750.098022 C 49.199722 750.098022 44.953236 765.940979 46.597977 771.25531 C 49.292423 779.961243 57.161972 787.012024 66.887589 788.49115 C 105.624573 794.382385 184.422211 786.775391 184.422211 786.775391 C 196.575928 786.217834 219.368637 774.073975 218.811157 761.920288 C 218.253677 749.766663 203.05896 740.590393 190.905289 741.147827 L 97.821999 741.742065 C 85.668297 742.299561 109.191154 732.484924 104.833443 732.00061 Z"/>
                <path id="Traado-copiar" fill="#222424" fill-rule="evenodd" stroke="none" d="M 111.450233 453.180115 C 99.358253 451.836243 59.959778 461.019775 46.601921 472.679138 C 46.601921 472.679138 42.355434 488.522095 44.000175 493.836395 C 46.69463 502.542328 54.564175 509.593109 64.289787 511.072235 C 103.026756 516.963501 181.824417 509.356476 181.824417 509.356476 C 193.978119 508.79895 216.770828 496.65506 216.213348 484.501404 C 215.655884 472.347778 200.461166 463.171509 188.30748 463.728943 L 98.591408 463.751099 C 86.437691 464.308655 115.807938 453.664368 111.450233 453.180115 Z"/>
            </g>
        </g>
        <g id="Agrupar">
            <g id="Mo">
                <path id="path6" fill="#eab71b" fill-rule="evenodd" stroke="#ffe6a7" stroke-width="3.088627" stroke-linejoin="round" d="M 589.657532 435.558533 C 593.468689 438.037354 595.516296 443.13623 594.0177 447.502319 C 593.347046 450.212463 591.139771 452.462097 588.399109 453.064087 C 581.586121 455.588867 574.265381 455.996155 567.141724 457.083069 C 564.562866 457.452209 561.922546 457.240601 559.443665 456.437195 C 554.937317 455.33844 550.447754 454.158691 545.947815 453.053467 C 543.200256 452.124573 540.280701 450.431702 539.49707 447.431519 C 538.93335 445.451782 539.889587 443.152222 541.71637 442.184326 C 544.423462 440.171082 547.922302 439.994934 551.065735 439.082397 C 555.489685 437.988525 559.968018 437.148804 564.459106 436.388245 C 567.482483 435.725769 570.427185 434.746399 573.256348 433.504639 C 576.769958 432.325928 580.546143 432.89093 584.104736 433.526611 C 586.034851 433.949585 587.951843 434.535095 589.656616 435.558044 Z"/>
                <path id="path7" fill="#eab71b" fill-rule="evenodd" stroke="#ffe6a7" stroke-width="3.088627" stroke-linejoin="round" d="M 640.645081 439.109375 C 642.311584 440.211792 643.903137 441.494751 644.931396 443.24646 C 646.145264 445.288879 646.87085 447.907898 645.817749 450.170166 C 644.521118 452.347351 642.102234 454.014893 639.498657 453.86908 C 637.020447 454.014954 634.474792 453.845276 632.103699 454.708435 C 629.885864 455.356689 627.868164 456.518066 625.696777 457.294067 C 620.583557 459.741333 615.045959 461.04071 609.567139 462.374878 C 602.944397 464.034363 596.295654 465.612122 589.549072 466.682739 C 582.985962 467.780579 576.432678 469.193298 569.759521 469.356018 C 565.053528 469.216431 560.120178 467.281555 557.305542 463.366394 C 556.286743 461.103638 557.762512 458.522522 559.762878 457.37207 C 562.521667 455.667969 565.883789 455.629761 568.978638 454.997253 C 577.886963 453.498352 586.839966 452.129456 595.618652 449.985535 C 600.381226 448.195251 604.991699 446.017212 609.570007 443.805054 C 613.570984 441.531982 617.381653 438.675415 621.953857 437.66217 C 625.929626 436.612915 630.13562 435.110168 634.249878 436.346436 C 636.512024 436.913025 638.615662 437.983032 640.645813 439.10968 Z"/>
                <path id="path8" fill="#eab71b" fill-rule="evenodd" stroke="#ffe6a7" stroke-width="3.088627" stroke-linejoin="round" d="M 665.747009 452.069458 C 661.924683 452.281189 658.668701 454.593323 655.779297 456.904114 C 648.082458 462.964661 641.558899 470.321777 634.320984 476.892761 C 630.25 480.768127 624.919922 482.838745 620.329041 485.970581 C 618.860596 486.938904 617.602417 488.610779 617.891663 490.455902 C 618.116394 492.092743 619.698181 493.356689 621.339844 493.262146 C 623.014404 493.210052 624.61322 492.603363 626.273987 492.413971 C 629.627686 491.738129 632.976379 490.840118 636.009583 489.221832 C 640.755249 487.327332 645.881104 486.768433 650.769043 485.364746 C 653.204834 484.759949 655.597168 484.011597 657.970215 483.198425 C 662.280334 481.84436 666.774963 480.811707 670.686279 478.465027 C 673.692444 476.656128 676.603516 474.317139 678.020813 471.012024 C 679.772461 467.301331 679.943787 462.664978 677.786072 459.082825 C 676.112061 456.473083 673.471619 454.620361 670.697937 453.32666 C 669.126953 452.637939 667.465149 452.167847 665.746216 452.069946 Z"/>
                <path id="path9" fill="#eab71b" fill-rule="evenodd" stroke="#ffe6a7" stroke-width="3.088627" stroke-linejoin="round" d="M 660.935608 444.526978 C 663.560364 445.881775 666.307434 448.011108 666.68988 451.154175 C 665.658813 455.496033 663.79425 459.593384 661.433472 463.368835 C 659.717224 466.236145 657.655518 468.87738 655.625366 471.524475 C 651.111328 477.198486 645.630005 482.048035 639.617859 486.081848 C 635.241333 489.046051 630.579224 491.574341 625.714539 493.640198 C 616.936035 497.581146 607.909241 500.935089 598.916199 504.346161 C 592.975403 506.490234 586.885864 508.33197 580.594604 509.087982 C 574.847717 509.864502 569.028076 509.293121 563.278931 508.835785 C 548.84375 507.553253 534.376953 506.683838 519.914429 505.789276 C 508.286438 505.09375 496.635193 505.593323 484.998291 505.667328 C 480.289703 505.608002 475.48703 505.983368 470.900726 504.679443 C 467.023834 503.66507 463.68338 501.333588 460.211945 499.420532 C 455.631195 496.756775 451.134766 493.874115 446.150421 492.006561 C 432.983002 486.612305 419.689911 481.52179 406.654785 475.806396 C 394.648224 470.642029 382.727722 465.268677 370.598206 460.39447 C 366.640503 458.817993 362.571747 457.554321 358.453827 456.474304 C 348.685486 453.653992 338.659576 451.833008 328.873688 449.085388 C 326.552216 448.286255 324.227112 446.885803 323.200562 444.553711 C 322.165802 442.573425 321.800232 440.296082 321.533813 438.097473 C 321.2323 434.120728 321.443268 429.77002 323.916595 426.451843 C 326.022156 423.776367 329.805817 422.947998 333.013153 423.750916 C 339.874451 425.070374 346.717896 427.148743 353.781006 426.740234 C 361.66806 426.580383 369.524933 425.8078 377.383545 425.194153 C 383.056915 424.541809 388.781952 424.34082 394.479858 424.729797 C 399.376282 425.039734 404.337372 425.06665 409.13385 426.195618 C 412.87674 427.203552 416.044189 429.510132 419.220184 431.630615 C 422.487274 433.310059 426.177368 433.690613 429.698578 434.539856 C 432.85791 435.506775 435.838531 436.969482 438.861542 438.286682 C 441.227539 439.370789 443.614624 440.475037 446.15387 441.078308 C 448.512604 441.814331 451.007172 442.033325 453.375214 442.753418 C 455.478882 443.171936 457.446259 444.105103 459.249603 445.240051 C 464.412567 447.894165 470.06134 449.46051 475.161743 452.252991 C 479.288544 454.42865 483.476227 456.4953 487.815216 458.217102 C 490.31012 459.246948 492.619537 460.644348 495.042328 461.817017 C 501.453033 464.410645 507.848755 467.03833 514.278564 469.586487 C 521.250732 472.281128 528.233521 474.956665 535.160156 477.764954 C 540.109009 479.817322 544.815613 482.387024 549.640381 484.700928 C 553.122559 486.296509 556.736328 487.975098 560.620361 488.142151 C 562.53833 488.127747 564.85614 487.496216 565.584839 485.505493 C 567.484619 481.228333 565.706909 476.344543 567.299866 471.989502 C 567.5448 470.51947 568.719971 469.67334 570.07196 469.28595 C 572.779785 468.545471 575.624939 468.613037 578.352661 467.963135 C 588.891357 466.133545 599.384094 464.04303 609.829407 461.741333 C 614.919434 460.474426 619.694336 458.198669 624.156433 455.471436 C 631.862183 451.13147 639.462463 446.486389 647.754395 443.322693 C 651.377747 442.186646 655.46344 441.895081 658.980591 443.552979 C 659.654602 443.82959 660.282349 444.209656 660.937866 444.52832 Z"/>
                <g id="g1">
                    <path id="path10" fill="#eab71b" fill-rule="evenodd" stroke="#ffe6a7" stroke-width="3.088627" stroke-linejoin="round" d="M 413.108521 354.671448 C 423.242737 360.922241 433.652222 366.797485 443.140839 374.024048 C 448.439423 378.240662 453.474304 382.777588 458.256042 387.572083 C 461.690613 390.687195 464.197205 394.704529 467.806549 397.634094 C 470.988708 400.1521 475.097107 401.098511 478.309357 403.579529 C 481.861694 405.951599 485.474365 408.33728 489.555298 409.701294 C 492.595825 410.772583 495.602936 411.984558 498.324493 413.735657 C 501.830322 415.794983 505.259155 418.00354 508.992798 419.638794 C 513.88269 422.02356 518.754639 424.445068 523.716064 426.674255 C 531.439575 430.549683 537.837952 436.468201 544.771912 441.525513 C 552.087769 447.450928 559.401611 453.654541 564.709229 461.519714 C 567.110474 465.26825 568.963013 469.515686 569.186157 474.014832 C 569.405945 477.32489 568.764404 480.683105 567.463257 483.72406 C 565.901367 486.993408 563.746521 490.415649 560.211243 491.76416 C 558.25769 492.486298 555.966064 492.262421 554.194275 491.168762 C 547.536377 488.109619 541.323914 484.188721 534.824585 480.818542 C 529.80365 478.018982 524.553345 475.620789 519.164612 473.6203 C 506.967926 469.275269 495.046783 464.200989 483.032715 459.379822 C 469.47522 453.880737 455.919708 448.367126 442.190582 443.307922 C 428.517914 438.393127 414.940857 433.166931 401.016174 428.99292 C 394.901428 427.40448 388.586945 426.600342 382.26828 426.695923 C 376.7948 426.698242 371.303253 427.083801 365.908905 428.035034 C 362.448395 428.779419 358.725159 429.172485 355.737671 431.230225 C 353.047668 433.236572 351.654999 436.417603 349.944824 439.208313 C 347.824158 442.723328 345.913086 446.646667 342.442474 449.0354 C 340.068054 450.649658 337.087311 450.575439 334.345459 450.403992 C 328.479126 450.164795 322.695801 449.037231 316.930756 448.007141 C 314.16272 447.188599 312.928741 444.077148 312.97287 441.407898 C 313.136292 435.172974 313.574921 428.946533 313.864929 422.715637 C 314.34668 412.540833 315.120544 402.357056 314.796387 392.164978 C 314.580627 385.703064 313.632935 379.298462 312.463684 372.948242 C 311.580475 367.894104 310.694519 362.831421 310.048309 357.74469 C 309.933044 356.008362 311.357971 354.550781 312.985199 354.189758 C 316.756744 353.044861 320.706573 352.658203 324.561096 351.881226 C 341.246094 348.968445 357.885895 345.69989 374.718536 343.740417 C 380.828613 343.131592 387.071533 343.908936 392.819611 346.081665 C 399.398895 348.186218 405.594574 351.280396 411.910919 354.041687 L 413.107452 354.671387 Z"/>
                    <path id="path11" fill="#fff1ce" fill-rule="evenodd" stroke="none" d="M 550.443604 458.668152 C 552.982239 460.536255 555.477478 462.640686 557.106018 465.381226 C 558.314209 467.492432 559.247253 469.776733 559.806213 472.143677 C 560.279114 474.13739 560.115051 476.215515 559.492371 478.156921 C 558.653015 481.164185 557.103882 483.908447 555.710083 486.682861 C 555.025696 487.990723 553.941467 489.534241 552.283569 489.442963 C 550.478027 489.448334 548.854553 488.50943 547.241272 487.809082 C 543.979187 486.151306 540.983093 484.008728 537.618408 482.542603 C 534.91626 481.259705 532.40387 479.603943 530.009033 477.821533 C 528.879517 477.002991 527.419983 475.91217 527.891052 474.314087 C 528.058411 472.82373 528.903503 471.524048 529.313477 470.092041 C 530.398682 466.563538 531.709045 463.072449 533.7146 459.953247 C 534.688416 458.243835 536.14447 456.821167 537.772827 455.728027 C 540.562927 454.375427 543.890625 454.896423 546.607056 456.178467 C 548.019836 456.779053 549.165344 457.838501 550.443665 458.668518 Z"/>
                    <path id="path12" fill="#eab71b" fill-rule="evenodd" stroke="none" d="M 319.318329 356.35376 C 321.453247 357.640137 322.281189 359.245483 322.452789 360.434021 C 322.902588 361.970398 323.392609 363.519287 323.387238 364.911621 C 323.713165 367.125427 323.490662 369.143372 323.637085 371.291931 C 323.968079 374.253479 324.516663 377.286316 325.30835 380.394531 C 325.730194 382.163452 326.671661 384.077637 327.288086 385.901611 C 328.200378 387.328003 328.791748 388.801697 330.736938 390.265137 C 332.700775 391.607727 335.046875 392.184875 336.973877 392.41156 C 340.163391 392.945557 343.27182 393.331238 346.190033 393.481384 C 348.595795 393.649902 351.058105 393.896545 353.554016 394.187378 C 358.062347 394.595093 362.450836 394.846313 366.953308 395.248535 C 369.75708 395.661682 372.286591 395.644226 375.284698 396.376587 C 377.840027 396.86438 380.491272 397.516174 383.134552 398.205811 C 385.550598 398.936707 387.9552 399.556213 390.378845 400.356689 C 393.298004 401.534241 396.21759 402.383118 399.139038 403.619873 C 402.172943 404.793945 405.424072 406.065186 408.004852 407.949341 C 412.199554 410.742126 416.613007 413.464478 420.283325 416.479431 C 422.045868 417.873474 423.945526 419.417175 424.292328 420.782959 C 425.260437 422.994324 424.6091 424.685364 424.671448 426.592346 C 424.762451 427.958984 426.423645 429.727478 428.433075 431.238892 C 430.570526 432.922241 432.62204 434.634583 434.211304 436.392212 C 435.496155 437.642883 436.529846 438.89917 437.144104 440.097595 C 438.038666 441.717529 438.428284 443.21521 438.591034 444.635681 C 439.019623 446.194763 439.409393 447.748962 439.26767 449.118591 C 439.250092 450.749939 439.196686 452.377441 438.960022 453.919312 C 438.545959 454.957397 437.642792 455.733398 436.484741 456.348206 C 433.930298 458.165344 431.61203 460.125793 429.098663 461.967957 C 427.584106 463.084717 424.542542 463.058655 422.293457 463.618469 C 418.768463 463.934326 415.029846 464.039001 411.260345 464.107666 C 408.816528 463.954224 406.372711 463.832825 403.593628 463.176086 C 400.691895 462.571167 397.737854 461.872009 394.756775 461.069153 C 391.897583 460.208496 389.042114 459.553772 386.141449 458.312866 C 380.813965 456.292297 375.515472 454.008728 370.192291 451.931946 C 367.412384 450.860413 364.621857 449.618652 361.845795 448.687988 C 358.731293 447.905701 355.922943 447.911316 354.315735 448.75415 C 352.381042 449.284058 350.619537 449.945496 348.559204 450.376709 C 346.894043 450.741821 344.937378 450.868896 342.830597 450.805603 C 340.455566 450.434631 338.098694 450.111206 335.564697 449.443726 C 333.705292 449.098145 332.071136 447.804016 330.690948 446.74054 C 329.286987 445.384766 326.68042 444.444336 325.470306 444.932373 C 324.352539 445.335388 323.490448 445.947571 322.796356 446.631104 C 320.945038 447.304565 318.143768 447.156799 315.335846 446.862549 C 312.985565 446.244263 311.157593 444.274109 311.199097 443.169739 C 310.454163 440.552002 309.790924 437.949402 309.486725 435.469727 C 309.561768 433.829346 309.253998 432.047791 309.47168 430.459961 C 309.7258 427.290588 309.617615 423.983765 309.8573 420.808533 C 310.026825 416.03125 310.344391 411.309875 310.418091 406.496582 C 310.376923 403.815857 310.15329 401.069397 310.20694 398.423157 C 310.205658 393.488098 309.858643 388.427307 309.797516 383.470642 C 309.520721 378.705505 309.665833 374.09314 309.630188 369.417908 C 309.385712 366.750183 309.454468 364.190125 308.942719 361.429688 C 308.76123 360.033813 308.529144 358.618408 308.522278 357.286987 C 308.908234 356.414124 310.083649 356.016052 311.263672 355.64032 C 312.961823 355.498535 314.221313 354.804688 316.510895 355.332031 C 317.296173 355.42395 318.525299 355.868286 319.318054 356.354004 Z"/>
                </g>
            </g>
            <g id="Corao">
                <path id="path13" fill="#e91414" fill-rule="evenodd" stroke="none" d="M 537 408 C 534.508484 412.230347 534.006409 415.6875 534 417 C 533.992432 418.550354 532.757324 414.571167 529 408 C 527.525879 405.421936 523.838501 401.856079 521 398 C 503.862915 374.719421 439 309 439 309 C 439 309 415.834045 290.525513 399 269 C 385.773254 252.087158 382.218719 244.843628 378 231 C 375.756683 223.638611 374 208 374 208 C 374 208 372.989197 180.545593 380 168 C 384.240295 160.41217 390.576538 151.85614 397 146 C 407.245605 136.659241 420.856171 131.41156 434 127 C 446.832428 122.692932 460.489746 119.166016 474 120 C 486.523865 120.773071 499.244019 124.53833 510 131 C 518.890015 136.340698 532 162 532 162 C 532 162 545.606262 142.178833 555 135 C 559.976074 131.197205 566.02594 128.879517 572 127 C 583.291199 123.447632 595.169189 120.621521 607 121 C 614.192017 121.230103 628 124 628 124 C 628 124 639.065002 125.755798 648 131 C 655.952698 135.667664 663 142 663 142 C 663 142 675.659302 158.598938 680 168 C 684.952148 178.725281 689.045959 190.22522 690 202 C 690.868164 212.714539 689.115112 223.711548 686 234 C 682.328125 246.12738 676.408875 257.720703 669 268 C 661.557861 278.325439 651.095215 286.096252 642 295 C 626.164001 310.502625 610.10083 325.772583 594 341 C 589.030884 345.699524 579 355 579 355 C 579 355 559 375 559 375 C 559 375 547.203735 390.675354 537 408 Z"/>
                <linearGradient id="linearGradient2" x1="143.633856" y1="149.853968" x2="143.633856" y2="220.505309" gradientUnits="userSpaceOnUse" gradientTransform="matrix(0.370099 -0.928992 0.928992 0.370099 91.136844 504.992417)">
                    <stop offset="1e-05" stop-color="#ffffff" stop-opacity="1"/>
                    <stop offset="1" stop-color="#ffffff" stop-opacity="0"/>
                </linearGradient>
                <path id="path14" fill="url(#linearGradient2)" stroke="none" d="M 456.328735 142.673645 C 484.588715 134.738525 418.12558 151.073486 407 179 C 395.874451 206.926514 435.111938 267.561768 416.039063 243.805603 C 399.922943 223.732239 381.757385 203.916077 392.88327 175.98877 C 404.009155 148.061462 432.414795 133.145752 456.329041 142.672852 Z"/>
                <linearGradient id="linearGradient3" x1="253.817615" y1="121.995351" x2="253.817615" y2="148.504368" gradientUnits="userSpaceOnUse">
                    <stop offset="1e-05" stop-color="#ffffff" stop-opacity="1"/>
                    <stop offset="1" stop-color="#ffffff" stop-opacity="0"/>
                </linearGradient>
                <path id="path15" fill="url(#linearGradient3)" stroke="none" d="M 655.400452 142.184448 C 655.400452 151.532593 633.896667 137 607 137 C 580.103394 137 558 151.532654 558 142.184448 C 558 132.836182 579.803589 125.257996 606.700256 125.257996 C 633.596863 125.257996 655.400452 132.836243 655.400452 142.184448 Z"/>
            </g>
        </g>
        <filter id="filter4" x="0" y="0" width="1000" height="1000" filterUnits="userSpaceOnUse" primitiveUnits="userSpaceOnUse" color-interpolation-filters="sRGB">
            <feGaussianBlur stdDeviation="5"/>
            <feOffset dx="-0" dy="5" result="offsetblur"/>
            <feFlood flood-color="#000000" flood-opacity="0.5"/>
            <feComposite in2="offsetblur" operator="in"/>
            <feMerge>
                <feMergeNode/>
                <feMergeNode in="SourceGraphic"/>
            </feMerge>
        </filter>
        <text id="Nos-apoie" filter="url(#filter4)" xml:space="preserve" x="515" y="653" text-anchor="middle" font-family="Poppins" font-size="110" font-weight="700" fill="#131819">Nos apoie</text>
    </g>
</svg>
