<?xml version="1.0" encoding="UTF-8"?>
<!-- Generated by Pixelmator Pro 3.3.2 -->
<svg width="1000" height="1000" viewBox="0 0 1000 1000" xmlns="http://www.w3.org/2000/svg" xmlns:xlink="http://www.w3.org/1999/xlink">
    <g id="Virtuakeoplaces">
        <filter id="filter1" x="0" y="0" width="1000" height="1000" filterUnits="userSpaceOnUse" primitiveUnits="userSpaceOnUse" color-interpolation-filters="sRGB">
            <feGaussianBlur stdDeviation="9.937792"/>
        </filter>
        <path id="Traado" fill="#94d4b2" stroke="none" filter="url(#filter1)" d="M 811.653687 999.001526 L 135.68988 947.311951 C 104.696159 944.977112 73.594101 934.663513 76.501358 909.817993 L 116.847298 100.128357 C 117.429626 67.447021 181.459763 112.175842 214.400284 111.907166 L 821.908447 122.275269 C 869.636902 123.106567 883.086792 136.009399 882.821411 175.516602 L 877.819092 943.841064 C 877.533813 987.972534 860.896667 1002.743896 811.653687 999.001526 Z"/>
        <path id="path1" fill="#6a9856" stroke="none" d="M 861.60022 921.151489 L 159.941208 927.356506 C 127.766006 927.674438 95.400665 920.196472 98.152824 895.734558 L 132.148438 100.299744 C 132.457809 68.194885 199.316956 106.573975 233.48674 103.546082 L 863.706177 62.752991 C 913.336548 59.495544 927.391968 71.074463 927.500183 109.743164 L 929.790833 861.661011 C 929.923523 904.854736 912.698608 920.765015 861.60022 921.151489 Z"/>
        <filter id="filter2" x="0" y="0" width="1000" height="1000" filterUnits="userSpaceOnUse" primitiveUnits="userSpaceOnUse" color-interpolation-filters="sRGB">
            <feGaussianBlur stdDeviation="6.11926"/>
            <feOffset dx="-0" dy="18.35778" result="offsetblur"/>
            <feFlood flood-color="#000000" flood-opacity="0.5"/>
            <feComposite in2="offsetblur" operator="in"/>
            <feMerge>
                <feMergeNode/>
                <feMergeNode in="SourceGraphic"/>
            </feMerge>
        </filter>
        <path id="path2" fill="#95c0c8" fill-rule="evenodd" stroke="none" filter="url(#filter2)" d="M 126.391426 843.805481 C 126.610428 870.841187 135.671494 898.968384 162.707214 898.74939 L 842.805237 894.454041 C 869.840942 894.235046 898.537842 887.850647 898.318848 860.814941 L 907.786682 69.228455 C 907.567688 42.192749 854.359863 38.010864 827.324036 38.229858 L 188.470123 44.378967 C 161.434448 44.597961 144.321442 50.195679 144.540298 77.231384 Z"/>
        <path id="path3" fill="#6a9856" stroke="none" d="M 814.184021 859.027283 L 145.868317 865.033081 C 119.674332 864.690125 107.059853 873.49707 97.885002 897.12207 L 131.796173 94.195496 C 132.105545 62.090698 151.900497 44.449768 186.070297 41.421753 L 816.312195 0.542297 C 865.920105 -2.628723 879.99823 8.863892 880.106445 47.532532 L 882.37439 799.536743 C 882.507019 842.73053 865.304871 858.554382 814.184021 859.027283 Z"/>
        <filter id="filter3" x="0" y="0" width="1000" height="1000" filterUnits="userSpaceOnUse" primitiveUnits="userSpaceOnUse" color-interpolation-filters="sRGB">
            <feGaussianBlur stdDeviation="4.234247"/>
        </filter>
        <path id="path4" fill="none" stroke="#507441" stroke-width="8.926337" filter="url(#filter3)" d="M 904.77124 68.690308 L 907.260986 841.870667 C 907.393677 885.064453 890.191223 900.888306 839.070374 901.361145 L 170.754913 907.367065 C 170.754913 907.367065 127.252518 912.952759 123.647873 868.21228"/>
        <linearGradient id="linearGradient1" x1="265.506977" y1="123.89046" x2="265.506977" y2="816.287523" gradientUnits="userSpaceOnUse" gradientTransform="matrix(0.999745 0.022603 -0.022603 0.999745 10.683146 -4.974935)">
            <stop offset="1e-05" stop-color="#ffffff" stop-opacity="1"/>
            <stop offset="0.5" stop-color="#cee5f0" stop-opacity="1"/>
            <stop offset="1" stop-color="#e9f3f8" stop-opacity="1"/>
        </linearGradient>
        <path id="Retngulo-arredondado" fill="url(#linearGradient1)" fill-rule="evenodd" stroke="none" visibility="hidden" d="M 188.083939 785.332031 C 187.707031 802.002502 200.915604 815.822144 217.586105 816.199097 C 234.256592 816.575989 248.076248 803.367432 248.453156 786.696899 L 262.738708 154.845947 C 263.115631 138.175476 249.907043 124.355774 233.236557 123.978882 C 216.566055 123.60199 202.746399 136.810547 202.369507 153.481018 Z"/>
        <g id="Arames">
            <g id="Furos">
                <path id="Elipse" fill="#f2f7f8" fill-rule="evenodd" stroke="none" d="M 265.468262 181.116943 C 270.137848 163.125366 259.868591 144.892578 242.531281 140.392822 C 225.193954 135.893005 207.353851 146.830322 202.68428 164.821838 C 198.014725 182.813416 208.283966 201.046204 225.621292 205.546021 C 242.958603 210.045776 260.798706 199.108521 265.468262 181.116943 Z"/>
                <path id="Elipse-copiar" fill="#f2f7f8" fill-rule="evenodd" stroke="none" d="M 247.128754 494.185852 C 251.798309 476.194275 241.529068 457.961487 224.191742 453.461731 C 206.854431 448.961975 189.014328 459.899231 184.344757 477.890747 C 179.675186 495.882324 189.944443 514.115112 207.281754 518.614868 C 224.61908 523.114624 242.459183 512.177368 247.128754 494.185852 Z"/>
                <path id="Elipse-copiar-2" fill="#f2f7f8" fill-rule="evenodd" stroke="none" d="M 248.683594 769.967957 C 253.353165 751.97644 243.083908 733.743591 225.746597 729.243835 C 208.409271 724.74408 190.569168 735.681335 185.899612 753.672852 C 181.230042 771.664429 191.499283 789.897278 208.836609 794.397034 C 226.17392 798.89679 244.014038 787.959534 248.683594 769.967957 Z"/>
            </g>
            <g id="Arame">
                <path id="path5" fill="#222424" fill-rule="evenodd" stroke="none" d="M 130.306946 141.81488 C 118.214973 140.471008 88.031067 148.25293 74.673218 159.912292 C 74.673218 159.912292 70.426735 175.755249 72.071472 181.069519 C 74.765923 189.775452 82.635468 196.826233 92.361092 198.305359 C 131.098068 204.196594 209.895706 196.5896 209.895706 196.5896 C 222.049423 196.032104 244.842133 183.888184 244.284653 171.734558 C 243.727173 159.580933 228.532455 150.404602 216.378784 150.962097 L 123.295494 151.556274 C 111.141792 152.113831 134.664642 142.299133 130.306946 141.81488 Z"/>
                <path id="Traado-copiar-2" fill="#222424" fill-rule="evenodd" stroke="none" d="M 104.833443 732.00061 C 92.74147 730.656738 62.557571 738.438721 49.199722 750.098022 C 49.199722 750.098022 44.953236 765.940979 46.597977 771.25531 C 49.292423 779.961243 57.161972 787.012024 66.887589 788.49115 C 105.624573 794.382385 184.422211 786.775391 184.422211 786.775391 C 196.575928 786.217834 219.368637 774.073975 218.811157 761.920288 C 218.253677 749.766663 203.05896 740.590393 190.905289 741.147827 L 97.821999 741.742065 C 85.668297 742.299561 109.191154 732.484924 104.833443 732.00061 Z"/>
                <path id="Traado-copiar" fill="#222424" fill-rule="evenodd" stroke="none" d="M 111.450233 453.180115 C 99.358253 451.836243 59.959778 461.019775 46.601921 472.679138 C 46.601921 472.679138 42.355434 488.522095 44.000175 493.836395 C 46.69463 502.542328 54.564175 509.593109 64.289787 511.072235 C 103.026756 516.963501 181.824417 509.356476 181.824417 509.356476 C 193.978119 508.79895 216.770828 496.65506 216.213348 484.501404 C 215.655884 472.347778 200.461166 463.171509 188.30748 463.728943 L 98.591408 463.751099 C 86.437691 464.308655 115.807938 453.664368 111.450233 453.180115 Z"/>
            </g>
        </g>
        <text id="Renda-Extra" xml:space="preserve" x="505" y="710" text-anchor="middle" font-family="Poppins" font-size="68" font-weight="700" fill="#131819">Renda Extra</text>
        <g id="Moedas">
            <g id="layer2">
                <path id="path4213-1" fill="#f2f2f2" stroke="#c9d114" stroke-width="15.596943" stroke-linecap="round" stroke-linejoin="round" d="M 303.036774 451.237976 L 303.036774 493.782501"/>
                <path id="path4217-8" fill="#f2f2f2" stroke="#bfc612" stroke-width="20.132082" stroke-linecap="round" stroke-linejoin="round" d="M 661.095764 451.237976 L 661.095825 493.782501"/>
                <path id="path4157-79" fill="#f3d60a" stroke="#e6cf30" stroke-width="20.132095" stroke-linecap="round" stroke-linejoin="round" d="M 661.095764 493.782501 C 661.095764 529.897766 580.941528 559.174988 482.066284 559.174988 C 383.190979 559.174988 303.036743 529.897766 303.036743 493.782501 C 303.036743 457.667236 383.190979 428.390015 482.066284 428.390015 C 580.941528 428.390015 661.095764 457.667236 661.095764 493.782501 Z"/>
                <path id="path4157-7-20" fill="#f3d60a" stroke="#dbca34" stroke-width="20.132095" stroke-linecap="round" stroke-linejoin="round" d="M 661.095764 451.237976 C 661.095764 487.35321 580.941528 516.630493 482.066284 516.630493 C 383.190979 516.630493 303.036774 487.35321 303.036774 451.237976 C 303.036774 415.122681 383.190979 385.845459 482.066284 385.845459 C 580.941528 385.845459 661.095764 415.122681 661.095764 451.237976 Z"/>
                <path id="path4213-6" fill="#f2f2f2" stroke="#c9d114" stroke-width="15.596943" stroke-linecap="round" stroke-linejoin="round" d="M 393.940887 402.034424 L 393.940887 444.578918"/>
                <path id="path4217-0" fill="#f2f2f2" stroke="#c9d114" stroke-width="20.132082" stroke-linecap="round" stroke-linejoin="round" d="M 751.999939 402.034424 L 752 444.578918"/>
                <path id="path4157-6" fill="#f3d60a" stroke="#daca34" stroke-width="20.132095" stroke-linecap="round" stroke-linejoin="round" d="M 751.999939 444.578918 C 751.999939 480.694214 671.845703 509.971436 572.970398 509.971436 C 474.095123 509.971436 393.940857 480.694214 393.940857 444.578918 C 393.940857 408.463684 474.095123 379.186401 572.970398 379.186401 C 671.845703 379.186401 751.999939 408.463684 751.999939 444.578918 Z"/>
                <path id="path4157-7-2" fill="#f3d60a" stroke="#dac934" stroke-width="20.132095" stroke-linecap="round" stroke-linejoin="round" d="M 751.999939 402.034424 C 751.999939 438.149658 671.845642 467.42688 572.970398 467.42688 C 474.095123 467.42688 393.940887 438.149658 393.940887 402.034424 C 393.940887 365.919128 474.095123 336.641907 572.970398 336.641907 C 671.845642 336.641907 751.999939 365.919128 751.999939 402.034424 Z"/>
                <path id="path4213" fill="#f2f2f2" stroke="#c9d114" stroke-width="15.596943" stroke-linecap="round" stroke-linejoin="round" d="M 351.069061 320.096802 L 351.069061 362.641357"/>
                <path id="path4217" fill="#f2f2f2" stroke="#c9d114" stroke-width="15.596943" stroke-linecap="round" stroke-linejoin="round" d="M 709.128113 320.096802 L 709.128113 362.641357"/>
                <path id="path4157" fill="#f3d60a" stroke="#dac934" stroke-width="20.132095" stroke-linecap="round" stroke-linejoin="round" d="M 709.128113 362.641357 C 709.128113 398.756653 628.973877 428.033875 530.098633 428.033875 C 431.223328 428.033875 351.069061 398.756653 351.069061 362.641357 C 351.069061 326.526001 431.223328 297.24884 530.098633 297.24884 C 628.973877 297.24884 709.128113 326.526001 709.128113 362.641357 Z"/>
                <path id="path4157-7" fill="#f3d60a" stroke="#dac934" stroke-width="20.132095" stroke-linecap="round" stroke-linejoin="round" d="M 709.128113 320.096802 C 709.128113 356.212097 628.973816 385.489319 530.098633 385.489319 C 431.223328 385.489319 351.069061 356.212097 351.069061 320.096802 C 351.069061 283.981567 431.223328 254.704346 530.098633 254.704346 C 628.973816 254.704346 709.128113 283.981567 709.128113 320.096802 Z"/>
                <path id="path4219-5-copiar" fill="none" stroke="#daca34" stroke-width="10.066047" stroke-linecap="round" stroke-linejoin="round" d="M 471.611633 330.722168 C 478.184387 321.366333 486.437103 294.918579 504.935028 289.98407 C 512.026672 288.092285 518.999329 289.343994 529.59259 289.247253 C 539.344788 289.158142 558.894165 282.450745 555.789917 277.824524 C 538.785278 252.483276 524.961792 268.48645 518.247803 272.450195 C 511.18103 276.622253 502.036041 282.330994 484.535614 293.293457 C 478.501495 297.073303 462.402405 304.76062 450.473877 311.736023"/>
                <g id="Agrupar">
                    <path id="path4219-5" fill="none" stroke="#dac934" stroke-width="10.066047" stroke-linecap="round" stroke-linejoin="round" d="M 610.812683 302.542175 C 625.195313 315.513428 626.673157 331.83606 614.113586 339.000122 M 565.329468 328.485352 C 550.946594 315.513855 549.468933 299.190857 562.029175 292.0271 C 574.588928 284.86322 596.429932 289.570984 610.812683 302.542175 M 565.329468 328.485352 C 579.712036 341.456604 581.189941 357.779236 568.630371 364.943298 C 556.070679 372.107056 534.229614 367.399353 519.846863 354.428162 C 505.464233 341.45697 503.986359 325.134216 516.545898 317.970276"/>
                    <path id="path4237-2" fill="none" stroke="#dac934" stroke-width="10.066048" stroke-linecap="round" stroke-linejoin="round" d="M 615.059387 284.753845 L 494.725922 353.390869"/>
                    <path id="path4237-3-9" fill="none" stroke="#dac934" stroke-width="10.066048" stroke-linecap="round" stroke-linejoin="round" d="M 635.933594 303.579468 L 515.600098 372.216492"/>
                </g>
            </g>
        </g>
    </g>
</svg>
